<svg width="583" height="128" viewBox="0 0 583 128" fill="none" xmlns="http://www.w3.org/2000/svg">
<path opacity="0.7" d="M567 117V6C467.239 94.2308 198.345 110.833 16 117H567Z" fill="url(#paint0_linear_331_2261)"/>
<path opacity="0.7" d="M16 117V6C115.761 94.2308 384.655 110.833 567 117H16Z" fill="url(#paint1_linear_331_2261)"/>
<line x1="15.65" y1="128" x2="15.65" y2="-1.5299e-08" stroke="#848484" stroke-width="0.7"/>
<line x1="84.625" y1="128" x2="84.625" y2="-1.09278e-08" stroke="#848484" stroke-width="0.5" stroke-dasharray="12 12"/>
<line x1="153.4" y1="128" x2="153.4" y2="-1.5299e-08" stroke="#848484" stroke-width="0.7"/>
<line x1="222.375" y1="128" x2="222.375" y2="-1.09278e-08" stroke="#848484" stroke-width="0.5" stroke-dasharray="6 6"/>
<line x1="291.15" y1="128" x2="291.15" y2="-1.5299e-08" stroke="#848484" stroke-width="0.7"/>
<line x1="360.125" y1="128" x2="360.125" y2="-1.09278e-08" stroke="#848484" stroke-width="0.5" stroke-dasharray="6 6"/>
<line x1="428.9" y1="128" x2="428.9" y2="-1.5299e-08" stroke="#848484" stroke-width="0.7"/>
<line x1="497.875" y1="128" x2="497.875" y2="-1.09278e-08" stroke="#848484" stroke-width="0.5" stroke-dasharray="12 12"/>
<path d="M567 128L567 -1.3113e-06" stroke="#848484" stroke-width="0.7"/>
<defs>
<linearGradient id="paint0_linear_331_2261" x1="16" y1="61.5" x2="567" y2="61.5" gradientUnits="userSpaceOnUse">
<stop stop-color="#9F9C80"/>
<stop offset="1" stop-color="#24231F"/>
</linearGradient>
<linearGradient id="paint1_linear_331_2261" x1="567" y1="61.5" x2="16" y2="61.5" gradientUnits="userSpaceOnUse">
<stop stop-color="#9F9C80"/>
<stop offset="1" stop-color="#24231F"/>
</linearGradient>
</defs>
</svg>
