<svg width="583" height="128" viewBox="0 0 583 128" fill="none" xmlns="http://www.w3.org/2000/svg">
<path d="M16 118V3.03234e-06C43.4085 52.9942 165.343 118 291.5 118C444.934 118 541.053 50.1679 567 0V118H291.5H16Z" fill="url(#paint0_radial_331_2249)"/>
<line x1="15.65" y1="128" x2="15.65" y2="-1.5299e-08" stroke="#848484" stroke-width="0.7"/>
<line x1="84.625" y1="128" x2="84.625" y2="-1.09278e-08" stroke="#848484" stroke-width="0.5" stroke-dasharray="12 12"/>
<line x1="153.4" y1="128" x2="153.4" y2="-1.5299e-08" stroke="#848484" stroke-width="0.7"/>
<line x1="222.375" y1="128" x2="222.375" y2="-1.09278e-08" stroke="#848484" stroke-width="0.5" stroke-dasharray="6 6"/>
<line x1="291.15" y1="128" x2="291.15" y2="-1.5299e-08" stroke="#848484" stroke-width="0.7"/>
<line x1="360.125" y1="128" x2="360.125" y2="-1.09278e-08" stroke="#848484" stroke-width="0.5" stroke-dasharray="6 6"/>
<line x1="428.9" y1="128" x2="428.9" y2="-1.5299e-08" stroke="#848484" stroke-width="0.7"/>
<line x1="497.875" y1="128" x2="497.875" y2="-1.09278e-08" stroke="#848484" stroke-width="0.5" stroke-dasharray="12 12"/>
<path d="M567 128L567 -1.3113e-06" stroke="#848484" stroke-width="0.7"/>

<!-- Animated dots -->
<circle cx="0" cy="0" r="3.0" fill="#F9AC20">
  <animateMotion dur="1.2s" repeatCount="indefinite" keyPoints="0;1" keyTimes="0;1" calcMode="spline" keySplines="0.4 0 1 1">
    <mpath href="#exp-curve-left"/>
  </animateMotion>
</circle>
<circle cx="0" cy="0" r="3.0" fill="#F9AC20">
  <animateMotion dur="1.2s" repeatCount="indefinite" keyPoints="0;1" keyTimes="0;1" calcMode="spline" keySplines="0.4 0 1 1">
    <mpath href="#exp-curve-right"/>
  </animateMotion>
</circle>

<defs>
  <path id="exp-curve-left" d="M291.5 118 C165.343 118 43.4085 52.9942 16 0"/>
  <path id="exp-curve-right" d="M291.5 118 C444.934 118 541.053 50.1679 567 0"/>
  <radialGradient id="paint0_radial_331_2249" cx="0" cy="0" r="1" gradientTransform="matrix(-321.506 -46.3571 -51.6213 201.959 291.5 46.3571)" gradientUnits="userSpaceOnUse">
    <stop offset="0.00164139" stop-color="#615F4C"/>
    <stop offset="0.966346" stop-color="#171713"/>
  </radialGradient>
</defs>
</svg>
