<svg width="583" height="128" viewBox="0 0 583 128" fill="none" xmlns="http://www.w3.org/2000/svg">
<path opacity="0.7" d="M16 118L291.15 118H567V5.00007H545.823V14.4167H523.833V23.8334H502.354V33.25H480.876V42.6667H457.352V52.0834H431.271V61.5H409.281V70.9167H383.712V80.3334H361.722V89.75H338.198V99.1667H312.629V108.583H291.15L270.371 108.583V99.1666H244.802V89.7499H221.278V80.3333H199.288V70.9166H173.719V61.5H151.729V52.0833H125.648V42.6666H102.124V33.25H80.6455V23.8333H59.1671V14.4167H37.1774V5H16V118Z" fill="url(#paint0_radial_192_811)"/>
<line x1="15.65" y1="128" x2="15.65" y2="-1.5299e-08" stroke="#848484" stroke-width="0.7"/>
<line x1="84.625" y1="128" x2="84.625" y2="-1.09278e-08" stroke="#848484" stroke-width="0.5" stroke-dasharray="12 12"/>
<line x1="153.4" y1="128" x2="153.4" y2="-1.5299e-08" stroke="#848484" stroke-width="0.7"/>
<line x1="222.375" y1="128" x2="222.375" y2="-1.09278e-08" stroke="#848484" stroke-width="0.5" stroke-dasharray="6 6"/>
<line x1="291.15" y1="128" x2="291.15" y2="-1.5299e-08" stroke="#848484" stroke-width="0.7"/>
<line x1="360.125" y1="128" x2="360.125" y2="-1.09278e-08" stroke="#848484" stroke-width="0.5" stroke-dasharray="6 6"/>
<line x1="428.9" y1="128" x2="428.9" y2="-1.5299e-08" stroke="#848484" stroke-width="0.7"/>
<line x1="497.875" y1="128" x2="497.875" y2="-1.09278e-08" stroke="#848484" stroke-width="0.5" stroke-dasharray="12 12"/>
<path d="M567 128L567 -1.3113e-06" stroke="#848484" stroke-width="0.7"/>
<defs>
<radialGradient id="paint0_radial_192_811" cx="0" cy="0" r="1" gradientTransform="matrix(321.506 -44.3929 51.6213 193.402 291.5 49.3929)" gradientUnits="userSpaceOnUse">
<stop offset="0.00164139" stop-color="#615F4C"/>
<stop offset="0.966346" stop-color="#171713"/>
</radialGradient>
</defs>
</svg>
