<svg width="583" height="61" viewBox="0 0 583 61" fill="none" xmlns="http://www.w3.org/2000/svg">
<path opacity="0.7" d="M567 50V7L16 50H567Z" fill="url(#paint0_linear_379_2490)"/>
<line x1="15.65" y1="61" x2="15.65" y2="-1.5299e-08" stroke="#848484" stroke-width="0.7"/>
<line x1="84.625" y1="61" x2="84.625" y2="-1.09278e-08" stroke="#848484" stroke-width="0.5" stroke-dasharray="12 12"/>
<line x1="153.4" y1="61" x2="153.4" y2="-1.5299e-08" stroke="#848484" stroke-width="0.7"/>
<line x1="222.375" y1="61" x2="222.375" y2="-1.09278e-08" stroke="#848484" stroke-width="0.5" stroke-dasharray="6 6"/>
<line x1="291.15" y1="61" x2="291.15" y2="-1.5299e-08" stroke="#848484" stroke-width="0.7"/>
<line x1="360.125" y1="61" x2="360.125" y2="-1.09278e-08" stroke="#848484" stroke-width="0.5" stroke-dasharray="6 6"/>
<line x1="428.9" y1="61" x2="428.9" y2="-1.5299e-08" stroke="#848484" stroke-width="0.7"/>
<line x1="497.875" y1="61" x2="497.875" y2="-1.09278e-08" stroke="#848484" stroke-width="0.5" stroke-dasharray="12 12"/>
<path d="M567 61L567 0" stroke="#848484" stroke-width="0.7"/>

<!-- Animated dot -->
<circle cx="0" cy="0" r="3.0" fill="#F9AC20">
  <animateMotion dur="1.75s" repeatCount="indefinite" keyPoints="0;1" keyTimes="0;1" calcMode="linear">
    <mpath href="#lin-curve"/>
  </animateMotion>
</circle>

<defs>
  <path id="lin-curve" d="M16 50 L567 7"/>
  <linearGradient id="paint0_linear_379_2490" x1="16" y1="28.5" x2="567" y2="28.5" gradientUnits="userSpaceOnUse">
    <stop stop-color="#9F9C80"/>
    <stop offset="1" stop-color="#24231F"/>
  </linearGradient>
</defs>
</svg>
