<svg width="583" height="128" viewBox="0 0 583 128" fill="none" xmlns="http://www.w3.org/2000/svg">
<style>
  @keyframes move-linear-left {
    0% {
      cx: 291.5;
      cy: 117;
    }
    100% {
      cx: 16;
      cy: 6;
    }
  }
  
  @keyframes move-linear-right {
    0% {
      cx: 291.5;
      cy: 117;
    }
    100% {
      cx: 567;
      cy: 6;
    }
  }
  
  .dot-linear-left {
    animation: move-linear-left var(--anim-duration, 1s) ease-in-out infinite;
  }
  
  .dot-linear-right {
    animation: move-linear-right var(--anim-duration, 1s) ease-in-out infinite;
  }
</style>

<path d="M16 117V6L291.5 117L567 6V117H291.5H16Z" fill="url(#paint0_radial_192_796)"/>
<line x1="15.65" y1="128" x2="15.65" y2="-1.5299e-08" stroke="#848484" stroke-width="0.7"/>
<line x1="84.625" y1="128" x2="84.625" y2="-1.09278e-08" stroke="#848484" stroke-width="0.5" stroke-dasharray="12 12"/>
<line x1="153.4" y1="128" x2="153.4" y2="-1.5299e-08" stroke="#848484" stroke-width="0.7"/>
<line x1="222.375" y1="128" x2="222.375" y2="-1.09278e-08" stroke="#848484" stroke-width="0.5" stroke-dasharray="6 6"/>
<line x1="291.15" y1="128" x2="291.15" y2="-1.5299e-08" stroke="#848484" stroke-width="0.7"/>
<line x1="360.125" y1="128" x2="360.125" y2="-1.09278e-08" stroke="#848484" stroke-width="0.5" stroke-dasharray="6 6"/>
<line x1="428.9" y1="128" x2="428.9" y2="-1.5299e-08" stroke="#848484" stroke-width="0.7"/>
<line x1="497.875" y1="128" x2="497.875" y2="-1.09278e-08" stroke="#848484" stroke-width="0.5" stroke-dasharray="12 12"/>
<path d="M567 128L567 -1.3113e-06" stroke="#848484" stroke-width="0.7"/>

<!-- Animated dots -->
<circle class="dot-linear-left" cx="291.5" cy="117" r="3.0" fill="#F9AC20"/>
<circle class="dot-linear-right" cx="291.5" cy="117" r="3.0" fill="#F9AC20"/>

<defs>
<radialGradient id="paint0_radial_192_796" cx="0" cy="0" r="1" gradientTransform="matrix(-321.506 -43.6071 -51.6213 189.979 291.5 49.6071)" gradientUnits="userSpaceOnUse">
<stop offset="0.00164139" stop-color="#615F4C"/>
<stop offset="0.966346" stop-color="#171713"/>
</radialGradient>
</defs>
</svg>
