<svg width="583" height="128" viewBox="0 0 583 128" fill="none" xmlns="http://www.w3.org/2000/svg">
<path opacity="0.7" d="M16 118V6C135.5 6 233.5 22.6491 291.5 118C348.658 24.0339 447 6 567 6V118H291.5H16Z" fill="url(#paint0_radial_331_2237)"/>
<line x1="15.65" y1="128" x2="15.65" y2="-1.5299e-08" stroke="#848484" stroke-width="0.7"/>
<line x1="84.625" y1="128" x2="84.625" y2="-1.09278e-08" stroke="#848484" stroke-width="0.5" stroke-dasharray="12 12"/>
<line x1="153.4" y1="128" x2="153.4" y2="-1.5299e-08" stroke="#848484" stroke-width="0.7"/>
<line x1="222.375" y1="128" x2="222.375" y2="-1.09278e-08" stroke="#848484" stroke-width="0.5" stroke-dasharray="6 6"/>
<line x1="291.15" y1="128" x2="291.15" y2="-1.5299e-08" stroke="#848484" stroke-width="0.7"/>
<line x1="360.125" y1="128" x2="360.125" y2="-1.09278e-08" stroke="#848484" stroke-width="0.5" stroke-dasharray="6 6"/>
<line x1="428.9" y1="128" x2="428.9" y2="-1.5299e-08" stroke="#848484" stroke-width="0.7"/>
<line x1="497.875" y1="128" x2="497.875" y2="-1.09278e-08" stroke="#848484" stroke-width="0.5" stroke-dasharray="12 12"/>
<path d="M567 128L567 -1.3113e-06" stroke="#848484" stroke-width="0.7"/>
<defs>
<radialGradient id="paint0_radial_331_2237" cx="0" cy="0" r="1" gradientTransform="matrix(-321.506 -44 -51.6213 191.69 291.5 50)" gradientUnits="userSpaceOnUse">
<stop offset="0.00164139" stop-color="#615F4C"/>
<stop offset="0.966346" stop-color="#171713"/>
</radialGradient>
</defs>
</svg>
