<svg width="583" height="129" viewBox="0 0 583 129" fill="none" xmlns="http://www.w3.org/2000/svg">
<path opacity="0.7" d="M291.5 119H16C102 110 261.5 134 277.5 0C277.5 0 280 100.5 291.5 119C303.5 99.5 305 0 305 0C319 138 409 106.5 567 119H291.5Z" fill="url(#paint0_radial_354_2189)"/>
<line x1="15.65" y1="129" x2="15.65" y2="1" stroke="#848484" stroke-width="0.7"/>
<line x1="84.625" y1="129" x2="84.625" y2="1" stroke="#848484" stroke-width="0.5" stroke-dasharray="12 12"/>
<line x1="153.4" y1="129" x2="153.4" y2="1" stroke="#848484" stroke-width="0.7"/>
<line x1="222.375" y1="129" x2="222.375" y2="1" stroke="#848484" stroke-width="0.5" stroke-dasharray="6 6"/>
<line x1="291.15" y1="129" x2="291.15" y2="1" stroke="#848484" stroke-width="0.7"/>
<line x1="360.125" y1="129" x2="360.125" y2="1" stroke="#848484" stroke-width="0.5" stroke-dasharray="6 6"/>
<line x1="428.9" y1="129" x2="428.9" y2="1" stroke="#848484" stroke-width="0.7"/>
<line x1="497.875" y1="129" x2="497.875" y2="1" stroke="#848484" stroke-width="0.5" stroke-dasharray="12 12"/>
<path d="M567 129L567 0.999999" stroke="#848484" stroke-width="0.7"/>
<defs>
<radialGradient id="paint0_radial_354_2189" cx="0" cy="0" r="1" gradientTransform="matrix(-321.506 -46.75 -51.6213 203.671 291.5 46.75)" gradientUnits="userSpaceOnUse">
<stop offset="0.00164139" stop-color="#615F4C"/>
<stop offset="0.966346" stop-color="#171713"/>
</radialGradient>
</defs>
</svg>
