<svg width="583" height="133" viewBox="0 0 583 133" fill="none" xmlns="http://www.w3.org/2000/svg">
<path opacity="0.68" d="M567 121.5H16C23.1171 121.5 29 71.5 29 0C107.5 111 232.5 121.5 567 121.5Z" fill="url(#paint0_linear_354_2174)"/>
<line x1="15.65" y1="132.5" x2="15.65" y2="4.5" stroke="#848484" stroke-width="0.7"/>
<line x1="84.625" y1="132.5" x2="84.625" y2="4.5" stroke="#848484" stroke-width="0.5" stroke-dasharray="12 12"/>
<line x1="153.4" y1="132.5" x2="153.4" y2="4.5" stroke="#848484" stroke-width="0.7"/>
<line x1="222.375" y1="132.5" x2="222.375" y2="4.5" stroke="#848484" stroke-width="0.5" stroke-dasharray="6 6"/>
<line x1="291.15" y1="132.5" x2="291.15" y2="4.5" stroke="#848484" stroke-width="0.7"/>
<line x1="360.125" y1="132.5" x2="360.125" y2="4.5" stroke="#848484" stroke-width="0.5" stroke-dasharray="6 6"/>
<line x1="428.9" y1="132.5" x2="428.9" y2="4.5" stroke="#848484" stroke-width="0.7"/>
<line x1="497.875" y1="132.5" x2="497.875" y2="4.5" stroke="#848484" stroke-width="0.5" stroke-dasharray="12 12"/>
<path d="M567 132.5L567 4.5" stroke="#848484" stroke-width="0.7"/>

<!-- Animated dot -->
<circle cx="0" cy="0" r="3.0" fill="#F9AC20">
  <animateMotion dur="1.75s" repeatCount="indefinite" keyPoints="0;1" keyTimes="0;1" calcMode="spline" keySplines="0 0 0.6 1">
    <mpath href="#pd-curve"/>
  </animateMotion>
</circle>

<defs>
  <path id="pd-curve" d="M29 0 C107.5 111 232.5 121.5 567 121.5"/>
  <linearGradient id="paint0_linear_354_2174" x1="-65.5" y1="60.5" x2="588.5" y2="60.5" gradientUnits="userSpaceOnUse">
    <stop stop-color="#9F9C80"/>
    <stop offset="1" stop-color="#24231F"/>
  </linearGradient>
</defs>
</svg>
