<svg width="38" height="33" viewBox="0 0 38 33" fill="none" xmlns="http://www.w3.org/2000/svg">
<path d="M9.19644 1.0848L1.18165 11.9048C0.692786 12.5647 1.1639 13.5 1.98521 13.5H5C5.55228 13.5 6 13.9477 6 14.5V31C6 31.5523 6.44772 32 7 32H13C13.5523 32 14 31.5523 14 31V14.5C14 13.9477 14.4477 13.5 15 13.5H18.0148C18.8361 13.5 19.3072 12.5647 18.8183 11.9048L10.8036 1.0848C10.4038 0.545106 9.59622 0.545106 9.19644 1.0848Z" fill="#F9AC20"/>
<path d="M28.8036 31.9152L36.8183 21.0952C37.3072 20.4353 36.8361 19.5 36.0148 19.5L33 19.5C32.4477 19.5 32 19.0523 32 18.5L32 2C32 1.44772 31.5523 0.999999 31 0.999999L25 0.999999C24.4477 0.999999 24 1.44771 24 2L24 18.5C24 19.0523 23.5523 19.5 23 19.5L19.9852 19.5C19.1639 19.5 18.6928 20.4353 19.1817 21.0952L27.1964 31.9152C27.5962 32.4549 28.4038 32.4549 28.8036 31.9152Z" fill="#F9AC20"/>
</svg>
