<svg width="19" height="32" viewBox="0 0 19 32" fill="none" xmlns="http://www.w3.org/2000/svg">
<path d="M9.82016 30.9152L17.835 20.0952C18.3238 19.4353 17.8527 18.5 17.0314 18.5L14.0166 18.5C13.4643 18.5 13.0166 18.0523 13.0166 17.5L13.0166 0.999999C13.0166 0.447715 12.5689 -5.63677e-07 12.0166 -6.11959e-07L6.01661 -1.1365e-06C5.46432 -1.18478e-06 5.01661 0.447715 5.01661 0.999999L5.0166 17.5C5.0166 18.0523 4.56889 18.5 4.0166 18.5L1.00181 18.5C0.180505 18.5 -0.29061 19.4353 0.198255 20.0952L8.21305 30.9152C8.61282 31.4549 9.42038 31.4549 9.82016 30.9152Z" fill="#F9AC20"/>
</svg>
