<svg width="20" height="45" viewBox="0 0 20 45" fill="none" xmlns="http://www.w3.org/2000/svg">
<path d="M9.19644 24.0848L1.18165 34.9048C0.692786 35.5647 1.1639 36.5 1.98521 36.5H5C5.55228 36.5 6 36.9477 6 37.5V44C6 44.5523 6.44772 45 7 45H13C13.5523 45 14 44.5523 14 44V37.5C14 36.9477 14.4477 36.5 15 36.5H18.0148C18.8361 36.5 19.3072 35.5647 18.8183 34.9048L10.8036 24.0848C10.4038 23.5451 9.59622 23.5451 9.19644 24.0848Z" fill="#F9AC20"/>
<path d="M10.8036 20.9152L18.8184 10.0952C19.3072 9.43526 18.8361 8.5 18.0148 8.5L15 8.5C14.4477 8.5 14 8.05228 14 7.5L14 0.999999C14 0.447715 13.5523 -5.63677e-07 13 -6.11959e-07L7 -1.1365e-06C6.44772 -1.18478e-06 6 0.447715 6 0.999999L6 7.5C6 8.05228 5.55229 8.5 5 8.5L1.98521 8.5C1.16391 8.5 0.69279 9.43526 1.18166 10.0952L9.19644 20.9152C9.59622 21.4549 10.4038 21.4549 10.8036 20.9152Z" fill="#F9AC20"/>
</svg>
