<?xml version="1.0" encoding="UTF-8"?>
<svg id="Layer_22_copy_2" xmlns="http://www.w3.org/2000/svg" version="1.1" viewBox="0 0 108.78 110.75">
  <!-- Generator: Adobe Illustrator 30.3.0, SVG Export Plug-In . SVG Version: 2.1.3 Build 182)  -->
  <defs>
    <style>
      .st0 {
        stroke-width: 6px;
      }

      .st0, .st1 {
        fill: none;
        stroke: #eaeaea;
        stroke-miterlimit: 10;
      }

      .st1 {
        stroke-width: 4.81px;
      }
    </style>
  </defs>
  <path class="st0" d="M73.36,73.19c-2.04-.15-6.42-.66-10.63-2.14-1.39-.49-2.89.17-3.55,1.49-2.83,5.67-9,9.37-15.94,8.53-7.28-.88-13.06-6.94-13.63-14.25-.51-6.5,2.97-12.23,8.24-15.05,1.05-.56,1.47-1.83,1-2.92-1.65-3.78-2.74-7.86-3.17-12.13-.14-1.42-1.59-2.29-2.91-1.76-1.66.67-3.25,1.46-4.75,2.38l-8.61-5.17c-3.34,2.58-6.28,5.65-8.71,9.1l5.55,8.37c-1.39,2.52-2.45,5.24-3.15,8.11l-9.75,2.43c-.22,1.76-.35,3.55-.35,5.37,0,2.46.22,4.87.63,7.22l9.85,2c.82,2.83,2,5.5,3.5,7.96l-5.17,8.61c2.58,3.34,5.65,6.28,9.1,8.71l8.37-5.55c2.52,1.39,5.24,2.45,8.11,3.15l2.43,9.75c1.76.22,3.55.35,5.37.35,2.46,0,4.87-.22,7.22-.63l2-9.85c2.83-.82,5.5-2,7.96-3.5l8.61,5.17c3.34-2.58,6.28-5.65,8.71-9.1l-5.55-8.37c.63-1.14,1.33-2.91,1.92-4.51.65-1.78-.62-3.68-2.52-3.76h-.18Z"/>
  <path class="st1" d="M99.66,13.61c-.8-.99-1.66-1.94-2.61-2.84-1.27-1.22-2.63-2.29-4.05-3.25l-5.9,4.11c-1.87-.97-3.84-1.69-5.85-2.13l-1.89-6.93c-3-.32-6.04-.18-9.01.4l-1.27,7.07c-1.96.62-3.86,1.5-5.64,2.64l-6.24-3.56c-.99.8-1.94,1.66-2.84,2.61-1.22,1.27-2.29,2.63-3.25,4.05l4.11,5.9c-.97,1.87-1.69,3.84-2.13,5.85l-6.93,1.89c-.32,3-.18,6.04.4,9.01l7.07,1.27c.62,1.96,1.5,3.86,2.64,5.64l-3.56,6.24c.8.99,1.66,1.94,2.61,2.84,1.27,1.22,2.63,2.29,4.05,3.25l5.9-4.11c1.87.97,3.84,1.69,5.85,2.13l1.89,6.93c3,.32,6.04.18,9.01-.4l1.27-7.07c1.96-.62,3.86-1.5,5.64-2.64l6.24,3.56c.99-.8,1.94-1.66,2.84-2.61,1.22-1.27,2.29-2.63,3.25-4.05l-4.11-5.9c.97-1.87,1.69-3.84,2.13-5.85l6.93-1.89c.32-3,.18-6.04-.4-9.01l-7.07-1.27c-.62-1.96-1.5-3.86-2.64-5.64l3.56-6.24h0ZM83.04,39.14c-3.61,3.78-9.61,3.92-13.39.3s-3.92-9.61-.3-13.39,9.61-3.92,13.39-.3c3.78,3.61,3.92,9.61.3,13.39Z"/>
</svg>