<?xml version="1.0" encoding="UTF-8"?>
<svg id="Layer_22_copy" xmlns="http://www.w3.org/2000/svg" version="1.1" viewBox="0 0 107.49 109.44">
  <!-- Generator: Adobe Illustrator 30.3.0, SVG Export Plug-In . SVG Version: 2.1.3 Build 182)  -->
  <defs>
    <style>
      .st0 {
        fill: #eaeaea;
      }
    </style>
  </defs>
  <g>
    <path class="st0" d="M44.19,108.45c-1.77,0-3.62-.12-5.5-.36l-.68-.09-2.45-9.83c-2.52-.66-4.94-1.6-7.23-2.81l-8.44,5.59-.56-.39c-3.54-2.49-6.67-5.49-9.32-8.92l-.42-.54,5.21-8.68c-1.3-2.23-2.35-4.61-3.12-7.1l-9.93-2.01-.12-.67c-.43-2.47-.64-4.96-.64-7.39,0-1.77.12-3.62.36-5.5l.09-.68,9.83-2.45c.66-2.51,1.6-4.94,2.81-7.23l-5.59-8.44.39-.56c2.49-3.54,5.49-6.67,8.92-9.32l.54-.42,8.68,5.22c1.39-.81,2.86-1.53,4.38-2.14.38-.15.78-.23,1.18-.23,1.61,0,2.94,1.21,3.1,2.82.41,4.09,1.45,8.07,3.09,11.83.68,1.56.05,3.41-1.45,4.21-5.14,2.74-8.17,8.27-7.71,14.09.54,6.9,5.91,12.51,12.76,13.34.61.07,1.23.11,1.83.11,5.58,0,10.59-3.1,13.09-8.1.68-1.36,2.02-2.2,3.51-2.2.43,0,.86.07,1.27.22,4.48,1.57,9.07,2,10.38,2.09h.14c1.23.06,2.33.68,3.01,1.7s.83,2.26.41,3.41c-.63,1.73-1.2,3.11-1.7,4.1l5.6,8.45-.39.56c-2.5,3.54-5.49,6.67-8.92,9.32l-.54.42-8.68-5.21c-2.23,1.3-4.61,2.35-7.1,3.12l-2.01,9.93-.67.12c-2.47.43-4.96.64-7.39.64l-.02-.02Z"/>
    <path class="st0" d="M18.4,31.87l8.61,5.17c1.51-.92,3.1-1.71,4.75-2.38.27-.11.54-.16.81-.16,1.05,0,1.99.78,2.11,1.92.43,4.27,1.52,8.35,3.17,12.13.48,1.09.05,2.36-1,2.92-5.27,2.81-8.75,8.54-8.24,15.05.57,7.31,6.35,13.37,13.63,14.25.66.08,1.31.12,1.95.12,6.12,0,11.42-3.52,13.98-8.65.51-1.02,1.53-1.65,2.61-1.65.31,0,.63.05.94.16,4.22,1.48,8.59,2,10.63,2.14h.17c1.9.09,3.17,1.99,2.52,3.77-.58,1.6-1.29,3.37-1.92,4.51l5.55,8.37c-2.43,3.45-5.37,6.52-8.71,9.1l-8.61-5.17c-2.46,1.5-5.13,2.68-7.96,3.5l-2,9.85c-2.35.41-4.76.63-7.22.63-1.82,0-3.61-.13-5.37-.35l-2.43-9.75c-2.87-.69-5.59-1.76-8.11-3.15l-8.37,5.55c-3.45-2.43-6.52-5.37-9.1-8.71l5.17-8.61c-1.5-2.46-2.68-5.13-3.5-7.96l-9.85-2c-.41-2.35-.63-4.76-.63-7.22,0-1.82.13-3.61.35-5.37l9.75-2.43c.69-2.87,1.76-5.59,3.15-8.11l-5.55-8.37c2.43-3.45,5.37-6.52,8.71-9.1M18.26,29.45l-1.08.84c-3.5,2.71-6.57,5.92-9.12,9.53l-.79,1.12.76,1.14,4.89,7.38c-1.02,2.02-1.85,4.15-2.46,6.34l-8.59,2.14-1.33.33-.17,1.36c-.24,1.92-.37,3.82-.37,5.63,0,2.49.22,5.03.66,7.56l.23,1.35,1.34.27,8.68,1.76c.71,2.17,1.63,4.25,2.74,6.22l-4.56,7.59-.7,1.17.84,1.08c2.71,3.5,5.92,6.57,9.53,9.12l1.12.79,1.14-.76,7.38-4.89c2.02,1.02,4.15,1.85,6.34,2.46l2.14,8.59.33,1.33,1.36.17c1.92.24,3.82.37,5.63.37,2.49,0,5.03-.22,7.56-.66l1.35-.23.27-1.34,1.76-8.68c2.17-.71,4.25-1.63,6.22-2.74l7.59,4.56,1.17.7,1.08-.84c3.5-2.71,6.57-5.92,9.12-9.53l.79-1.12-.76-1.14-4.91-7.41c.45-.97.95-2.2,1.49-3.68.53-1.45.34-3.02-.52-4.31s-2.25-2.07-3.8-2.14h-.14c-1.31-.1-5.76-.52-10.09-2.04-.52-.18-1.05-.27-1.6-.27-1.87,0-3.55,1.06-4.4,2.76-2.33,4.65-7,7.55-12.2,7.55-.57,0-1.14-.03-1.71-.1-6.38-.77-11.37-6-11.88-12.42-.43-5.42,2.39-10.57,7.19-13.13,1.95-1.04,2.78-3.45,1.89-5.49-1.6-3.66-2.61-7.54-3.01-11.53-.21-2.12-1.97-3.72-4.1-3.72-.53,0-1.06.1-1.55.3-1.38.55-2.72,1.2-3.99,1.91l-7.59-4.56-1.17-.7h0Z"/>
  </g>
  <g>
    <path class="st0" d="M75.19,64.36c-1.12,0-2.25-.06-3.36-.18l-.15-.02-2-7.33c-2.06-.46-4.07-1.19-5.97-2.17l-6.24,4.34-.13-.09c-1.55-1.04-2.99-2.2-4.3-3.45-.95-.91-1.88-1.92-2.77-3.02l-.1-.12,3.77-6.6c-1.14-1.8-2.05-3.74-2.69-5.76l-7.48-1.34-.03-.15c-.62-3.15-.76-6.37-.43-9.57l.02-.15,7.33-2c.46-2.06,1.19-4.07,2.17-5.97l-4.34-6.24.09-.13c1.04-1.55,2.2-2.99,3.45-4.3.92-.96,1.91-1.87,3.02-2.77l.12-.1,6.6,3.77c1.8-1.14,3.74-2.05,5.76-2.69l1.34-7.48.15-.03c2.04-.4,4.13-.6,6.2-.6,1.12,0,2.25.06,3.37.18l.15.02,2,7.33c2.06.46,4.07,1.19,5.97,2.17l6.24-4.34.13.09c1.55,1.04,2.99,2.2,4.3,3.45.95.91,1.88,1.92,2.77,3.02l.1.12-3.77,6.6c1.14,1.8,2.05,3.74,2.69,5.76l7.48,1.34.03.15c.62,3.15.76,6.37.43,9.57l-.02.15-7.33,2c-.46,2.06-1.19,4.07-2.17,5.97l4.34,6.24-.09.13c-1.04,1.54-2.2,2.99-3.45,4.3-.92.96-1.91,1.87-3.02,2.77l-.12.1-6.6-3.77c-1.8,1.14-3.74,2.05-5.76,2.69l-1.34,7.48-.15.03c-2.04.4-4.13.6-6.2.6h0ZM75.19,21.9c-2.87,0-5.54,1.14-7.52,3.21-1.92,2.01-2.94,4.64-2.88,7.42s1.2,5.36,3.21,7.28c1.94,1.86,4.49,2.88,7.18,2.88,2.87,0,5.54-1.14,7.52-3.21,1.92-2.01,2.94-4.64,2.88-7.42s-1.2-5.36-3.21-7.28c-1.94-1.86-4.49-2.88-7.18-2.88Z"/>
    <path class="st0" d="M75.2.45c1.11,0,2.23.06,3.34.17l2,7.31c2.13.46,4.2,1.22,6.17,2.24l6.23-4.33c1.49,1,2.92,2.14,4.27,3.42.99.95,1.9,1.96,2.75,3l-3.76,6.59c1.2,1.87,2.13,3.88,2.78,5.95l7.46,1.34c.61,3.13.76,6.33.42,9.5l-7.31,2c-.46,2.13-1.22,4.2-2.24,6.17l4.33,6.23c-1,1.49-2.14,2.92-3.42,4.27-.95.99-1.96,1.9-3,2.75l-6.59-3.76c-1.87,1.2-3.88,2.13-5.95,2.78l-1.34,7.46c-2.03.4-4.1.6-6.16.6-1.11,0-2.23-.06-3.34-.17l-2-7.31c-2.13-.46-4.2-1.22-6.17-2.24l-6.23,4.33c-1.49-1-2.92-2.14-4.27-3.42-.99-.95-1.9-1.96-2.75-3l3.76-6.59c-1.2-1.87-2.13-3.88-2.78-5.95l-7.46-1.34c-.61-3.13-.76-6.33-.42-9.5l7.31-2c.46-2.13,1.22-4.2,2.24-6.17l-4.33-6.23c1-1.49,2.14-2.92,3.42-4.27.95-.99,1.96-1.9,3-2.75l6.59,3.76c1.87-1.2,3.88-2.13,5.95-2.78l1.34-7.46c2.03-.4,4.1-.6,6.16-.6M75.19,42.91c2.8,0,5.59-1.1,7.68-3.28,4.05-4.24,3.9-10.96-.34-15.02-2.06-1.97-4.7-2.94-7.34-2.94-2.8,0-5.59,1.1-7.68,3.28-4.05,4.24-3.9,10.96.34,15.02,2.06,1.97,4.7,2.94,7.34,2.94M75.2,0c-2.09,0-4.2.2-6.25.61l-.3.06-.05.3-1.29,7.19c-1.95.64-3.82,1.51-5.56,2.6l-6.35-3.62-.27-.15-.24.19c-1.1.89-2.12,1.83-3.04,2.79-1.26,1.31-2.43,2.77-3.47,4.33l-.17.26.18.25,4.18,6c-.94,1.84-1.64,3.78-2.1,5.77l-7.05,1.93-.3.08-.03.31c-.34,3.22-.19,6.46.43,9.64l.06.3.3.05,7.19,1.29c.64,1.95,1.51,3.82,2.6,5.56l-3.62,6.35-.15.27.19.24c.89,1.1,1.83,2.12,2.79,3.04,1.31,1.26,2.77,2.43,4.33,3.47l.26.17.25-.18,6-4.18c1.84.94,3.78,1.64,5.77,2.1l1.93,7.05.08.3.31.03c1.12.12,2.26.18,3.39.18,2.09,0,4.2-.2,6.25-.61l.3-.06.05-.3,1.29-7.19c1.95-.64,3.82-1.51,5.56-2.6l6.35,3.62.27.15.24-.19c1.1-.89,2.12-1.83,3.04-2.79,1.26-1.32,2.43-2.77,3.47-4.33l.17-.26-.18-.25-4.18-6c.94-1.84,1.64-3.78,2.1-5.77l7.05-1.93.3-.08.03-.31c.34-3.22.19-6.46-.43-9.64l-.06-.3-.3-.05-7.19-1.29c-.64-1.95-1.51-3.82-2.6-5.56l3.62-6.35.15-.27-.19-.24c-.89-1.1-1.83-2.12-2.79-3.04-1.31-1.26-2.77-2.43-4.33-3.47l-.26-.17-.25.18-6,4.18c-1.84-.94-3.78-1.64-5.77-2.1l-1.93-7.05-.08-.3-.31-.03c-1.12-.12-2.26-.18-3.39-.18h0ZM75.19,42.46c-2.63,0-5.13-1-7.03-2.82-1.96-1.88-3.08-4.41-3.14-7.12-.06-2.72.94-5.29,2.82-7.26,1.94-2.03,4.55-3.14,7.35-3.14,2.63,0,5.13,1,7.03,2.82,4.05,3.88,4.2,10.33.32,14.38-1.94,2.03-4.55,3.14-7.35,3.14h0Z"/>
  </g>
</svg>