<svg width="20" height="47" viewBox="0 0 20 47" fill="none" xmlns="http://www.w3.org/2000/svg">
<path d="M9.19644 1.0848L1.18165 11.9048C0.692786 12.5647 1.1639 13.5 1.98521 13.5H5C5.55228 13.5 6 13.9477 6 14.5V21C6 21.5523 6.44772 22 7 22H13C13.5523 22 14 21.5523 14 21V14.5C14 13.9477 14.4477 13.5 15 13.5H18.0148C18.8361 13.5 19.3072 12.5647 18.8183 11.9048L10.8036 1.0848C10.4038 0.545106 9.59622 0.545106 9.19644 1.0848Z" fill="#F9AC20"/>
<path d="M10.8036 45.9152L18.8184 35.0952C19.3072 34.4353 18.8361 33.5 18.0148 33.5L15 33.5C14.4477 33.5 14 33.0523 14 32.5L14 26C14 25.4477 13.5523 25 13 25L7 25C6.44772 25 6 25.4477 6 26L6 32.5C6 33.0523 5.55229 33.5 5 33.5L1.98521 33.5C1.16391 33.5 0.69279 34.4353 1.18166 35.0952L9.19644 45.9152C9.59622 46.4549 10.4038 46.4549 10.8036 45.9152Z" fill="#F9AC20"/>
</svg>
