<?xml version="1.0" encoding="UTF-8"?>
<svg id="Layer_8_copy_5" data-name="Layer 8 copy 5" xmlns="http://www.w3.org/2000/svg" viewBox="0 0 232.57 161.95">
  <defs>
    <style>
      .cls-1 {
        fill: none;
        stroke: #eaeaea;
        stroke-linecap: round;
        stroke-miterlimit: 10;
        stroke-width: 15px;
      }

      .cls-2 {
        fill: #eaeaea;
      }
    </style>
  </defs>
  <g>
    <path class="cls-2" d="M97.45,79.9c0,1.1-.65,2.1-1.65,2.57-9.16,4.33-14.34,15.85-14.34,26.38,0,3.16,0,5.68,0,5.68,0,2.9-1.57,4.47-3.51,4.47h-19.52c-1.94,0-3.51-1.57-3.51-3.51v-2.67c0-26.37,15.88-48.86,39.09-53.88,1.79-.39,3.49.97,3.48,2.8l-.06,18.15Z"/>
    <path class="cls-2" d="M127.15,79.9c0,1.1.65,2.1,1.65,2.57,9.16,4.33,14.34,15.85,14.34,26.38,0,3.16,0,5.68,0,5.68,0,2.9,1.57,4.47,3.51,4.47h19.52c1.94,0,3.51-1.57,3.51-3.51v-2.67c0-26.37-15.88-48.86-39.09-53.88-1.79-.39-3.49.97-3.48,2.8l.06,18.15Z"/>
  </g>
  <g id="Layer_10_copy_2" data-name="Layer 10 copy 2">
    <g>
      <circle class="cls-2" cx="112.3" cy="111.34" r="15.91"/>
      <line class="cls-1" x1="112.15" y1="36.27" x2="112.22" y2="110.68"/>
    </g>
  </g>
</svg>