<svg width="46" height="39" viewBox="0 0 46 39" fill="none" xmlns="http://www.w3.org/2000/svg">
<path d="M43.7641 8.71431L34.5522 1.89064C33.7298 1.2815 33.3187 0.976937 32.9748 0.985518C32.6756 0.992987 32.3955 1.13411 32.2113 1.37011C31.9998 1.64128 31.9998 2.15297 31.9998 3.17633V4.4C31.9998 4.96005 31.9998 5.24008 31.8908 5.45399C31.7949 5.64215 31.6419 5.79513 31.4538 5.89101C31.2399 6 30.9598 6 30.3998 6L24.9139 6C23.6707 6.00004 22.4756 6.46343 21.5584 7.29395L21.4709 7.37716C21.4363 7.41002 21.4191 7.42645 21.4026 7.44366C21.388 7.45896 21.3739 7.47472 21.3602 7.49092C21.3449 7.50914 21.3304 7.52809 21.3015 7.566L8.48027 24.3705C8.3041 24.6014 8.21601 24.7169 8.10501 24.8001C8.00669 24.8738 7.89562 24.9288 7.77738 24.9622C7.64388 25 7.49866 25 7.20823 25H1.75625C1.1962 25 0.916171 25 0.70226 25.109C0.514098 25.2049 0.361117 25.3578 0.265244 25.546C0.15625 25.7599 0.15625 26.0399 0.15625 26.6V31.4C0.15625 31.9601 0.15625 32.2401 0.265244 32.454C0.361117 32.6422 0.514098 32.7951 0.70226 32.891C0.916171 33 1.1962 33 1.75625 33H9.24219C10.5682 33 11.8397 32.4728 12.7773 31.5352L25.6758 14.6295L25.6758 14.6295C25.8519 14.3986 25.94 14.2831 26.051 14.1999C26.1494 14.1262 26.2604 14.0712 26.3787 14.0378C26.5122 14 26.6574 14 26.9478 14H30.3998C30.9598 14 31.2399 14 31.4538 14.109C31.6419 14.2049 31.7949 14.3578 31.8908 14.546C31.9998 14.7599 31.9998 15.0399 31.9998 15.6V16.8237C31.9998 17.847 31.9998 18.3587 32.2113 18.6299C32.3955 18.8659 32.6756 19.007 32.9748 19.0145C33.3187 19.0231 33.7298 18.7185 34.5522 18.1094L43.7641 11.2857C44.3521 10.8502 44.646 10.6324 44.7509 10.3647C44.8427 10.1302 44.8427 9.86977 44.7509 9.63531C44.646 9.36759 44.3521 9.14983 43.7641 8.71431Z" fill="#F9AC20"/>
<path d="M43.5644 30.2857L34.3524 37.1094C33.5301 37.7185 33.1189 38.0231 32.7751 38.0145C32.4759 38.007 32.1957 37.8659 32.0116 37.6299C31.8001 37.3587 31.8001 36.847 31.8001 35.8237V34.6C31.8001 34.0399 31.8001 33.7599 31.6911 33.546C31.5952 33.3578 31.4422 33.2049 31.254 33.109C31.0401 33 30.7601 33 30.2001 33L26.7141 33C25.4709 33 24.2758 32.5366 23.3586 31.7061L23.179 31.5352L20.044 28.8928C19.6303 28.5441 19.4235 28.3698 19.33 28.1552C19.2478 27.9664 19.2259 27.7568 19.2673 27.555C19.3143 27.3258 19.4806 27.1124 19.8132 26.6857L22.7778 22.8826C23.1293 22.4316 23.305 22.2062 23.5265 22.1045C23.7213 22.015 23.9396 21.9905 24.1493 22.0345C24.3879 22.0846 24.6092 22.2655 25.052 22.6272L27.5145 24.639C27.6782 24.7728 27.76 24.8396 27.8515 24.8872C27.9327 24.9294 28.0193 24.9603 28.1088 24.979C28.2098 25 28.3154 25 28.5268 25H30.2001C30.7601 25 31.0401 25 31.254 24.891C31.4422 24.7951 31.5952 24.6422 31.6911 24.454C31.8001 24.2401 31.8001 23.9601 31.8001 23.4V22.1763C31.8001 21.153 31.8001 20.6413 32.0116 20.3701C32.1957 20.1341 32.4759 19.993 32.7751 19.9855C33.1189 19.9769 33.5301 20.2815 34.3524 20.8906L34.3524 20.8906L43.5644 27.7143C44.1523 28.1498 44.4463 28.3676 44.5512 28.6353C44.643 28.8698 44.643 29.1302 44.5512 29.3647C44.4463 29.6324 44.1523 29.8502 43.5644 30.2857Z" fill="#F9AC20"/>
<path d="M9.08594 6.00031C10.412 6.00035 11.6834 6.5275 12.6211 7.46515L14.857 9.47337C15.2586 9.83411 15.4594 10.0145 15.5461 10.2315C15.6224 10.4225 15.6379 10.6323 15.5906 10.8324C15.5368 11.0598 15.3647 11.2678 15.0206 11.6837L11.9467 15.3986C11.5815 15.8401 11.3988 16.0608 11.174 16.156C10.9764 16.2397 10.7571 16.2577 10.5485 16.2071C10.3112 16.1496 10.0952 15.9614 9.66311 15.5851L8.29553 14.3938C8.12834 14.2482 8.04474 14.1754 7.95013 14.1235C7.86621 14.0775 7.77612 14.0437 7.68262 14.0233C7.5772 14.0003 7.46634 14.0003 7.24462 14.0003H1.6C1.03995 14.0003 0.759921 14.0003 0.546009 13.8913C0.357847 13.7954 0.204867 13.6425 0.108993 13.4543C0 13.2404 0 12.9604 0 12.4003V7.60031C0 7.04025 0 6.76023 0.108993 6.54632C0.204867 6.35815 0.357847 6.20517 0.546009 6.1093C0.759921 6.00031 1.03995 6.00031 1.6 6.00031H9.08594Z" fill="#F9AC20"/>
</svg>
