<svg width="34" height="32" viewBox="0 0 34 32" fill="none" xmlns="http://www.w3.org/2000/svg">
<path d="M1.5 7.5V1.5H32.5V7.5M5.5 5.5H28.5" stroke="#EAEAEA" stroke-width="3" stroke-linecap="round" stroke-linejoin="round"/>
<path d="M25.1526 20.1681C25.5585 21.5003 25.6097 22.9153 25.301 24.2733C24.9923 25.6312 24.3345 26.8851 23.3925 27.9109C22.4506 28.9366 21.2573 29.6987 19.9305 30.1218C18.6037 30.5449 17.1894 30.6143 15.8276 30.3232C14.4657 30.0321 13.2035 29.3905 12.1656 28.4619C11.1278 27.5333 10.3504 26.3499 9.91016 25.0287C9.46997 23.7074 9.3823 22.2942 9.65582 20.9287C9.92933 19.5632 10.5546 18.2928 11.4697 17.243" stroke="#EAEAEA" stroke-width="3" stroke-linecap="round"/>
<path d="M21.3523 12.5882C21.4686 11.822 22.3745 11.4735 22.9743 11.9643L29.1569 17.0233C29.7507 17.5091 29.5988 18.4551 28.8827 18.7305L21.5017 21.5698C20.7856 21.8452 20.0389 21.245 20.1539 20.4865L21.3523 12.5882Z" fill="#EAEAEA"/>
</svg>
