<svg width="583" height="78" viewBox="0 0 583 78" fill="none" xmlns="http://www.w3.org/2000/svg">
<g clip-path="url(#clip0_454_2086)">
<mask id="mask0_454_2086" style="mask-type:luminance" maskUnits="userSpaceOnUse" x="0" y="-16" width="660" height="110">
<path d="M659.477 0H0V78H659.477V0Z" fill="white"/>
</mask>
<g mask="url(#mask0_454_2086)">
<path d="M291 331C459.999 331 597 199.819 597 38C597 -123.819 459.999 -255 291 -255C122.001 -255 -15 -123.819 -15 38C-15 199.819 122.001 331 291 331Z" fill="#221022"/>
<path d="M291 266C421.891 266 528 164.369 528 39C528 -86.3687 421.891 -188 291 -188C160.108 -188 54 -86.3687 54 39C54 164.369 160.108 266 291 266Z" fill="#271227"/>
<path d="M291 141C349.542 141 397 95.333 397 39C397 -17.333 349.542 -63 291 -63C232.458 -63 185 -17.333 185 39C185 95.333 232.458 141 291 141Z" fill="#3C173B"/>
<path d="M291 110C332.421 110 366 78.2122 366 39C366 -0.212215 332.421 -32 291 -32C249.579 -32 216 -0.212215 216 39C216 78.2122 249.579 110 291 110Z" fill="#4F204F"/>
<path d="M290.927 90.8086C320.847 90.8086 345.102 67.6133 345.102 39.0004C345.102 10.3875 320.847 -12.8079 290.927 -12.8079C261.006 -12.8079 236.751 10.3875 236.751 39.0004C236.751 67.6133 261.006 90.8086 290.927 90.8086Z" fill="#6B286C"/>
<path d="M291 70C309.225 70 324 56.1208 324 39C324 21.8791 309.225 8 291 8C272.775 8 258 21.8791 258 39C258 56.1208 272.775 70 291 70Z" fill="#AC3FAF"/>
</g>
</g>
<defs>
<clipPath id="clip0_454_2086">
<rect width="583" height="78" fill="white"/>
</clipPath>
</defs>
</svg>
