<svg width="108" height="22" viewBox="0 0 108 22" fill="none" xmlns="http://www.w3.org/2000/svg">
<rect x="1" y="1" width="106" height="20" rx="3" fill="#1D1D1D"/>
<rect x="1" y="1" width="106" height="20" rx="3" stroke="#6A6853" stroke-width="2"/>
<path opacity="0.65" d="M23.1948 6.75781L23.2075 13.0166C23.2075 13.4482 23.1313 13.8524 22.979 14.229C22.8267 14.6056 22.6172 14.9336 22.3506 15.2129C22.084 15.4964 21.7666 15.7207 21.3984 15.8857C21.0303 16.0465 20.6261 16.127 20.186 16.127C19.7375 16.127 19.3291 16.0465 18.9609 15.8857C18.5928 15.7249 18.2775 15.5028 18.0151 15.2192C17.7528 14.9399 17.5475 14.612 17.3994 14.2354C17.2513 13.8545 17.1751 13.4482 17.1709 13.0166L17.1836 6.75781H18.3008L18.3262 13.0166C18.3304 13.2917 18.3727 13.5562 18.4531 13.8101C18.5378 14.064 18.6584 14.2882 18.8149 14.4829C18.9673 14.6776 19.1577 14.8341 19.3862 14.9526C19.619 15.0711 19.8856 15.1304 20.186 15.1304C20.4865 15.1304 20.751 15.0732 20.9795 14.959C21.208 14.8405 21.4006 14.6818 21.5571 14.4829C21.7095 14.2882 21.8258 14.064 21.9062 13.8101C21.9867 13.5562 22.0311 13.2917 22.0396 13.0166L22.0586 6.75781H23.1948ZM27.2007 16V9.13184H28.2544L28.3369 10.1475C28.4385 10.0036 28.5485 9.8724 28.667 9.75391C28.7897 9.63118 28.9188 9.52539 29.0542 9.43652C29.2573 9.30111 29.4774 9.19743 29.7144 9.12549C29.9556 9.04932 30.2095 9.00911 30.4761 9.00488C30.8358 9.00488 31.1616 9.05566 31.4536 9.15723C31.7498 9.25879 32.0016 9.41748 32.209 9.6333C32.4163 9.84912 32.575 10.1242 32.6851 10.4585C32.7993 10.7886 32.8564 11.1821 32.8564 11.6392V16H31.6821V11.6646C31.6821 11.3599 31.6483 11.1017 31.5806 10.8901C31.5129 10.6785 31.4134 10.5072 31.2822 10.376C31.1468 10.2448 30.9818 10.1496 30.7871 10.0903C30.5967 10.0311 30.3766 10.0015 30.127 10.0015C29.9111 10.0015 29.7101 10.0332 29.5239 10.0967C29.3377 10.1559 29.1663 10.2384 29.0098 10.3442C28.8828 10.4373 28.7643 10.5452 28.6543 10.668C28.5485 10.7907 28.4554 10.9261 28.375 11.0742V16H27.2007ZM37.1924 9.13184H40.7026V14.9844H42.9434V16H37.1924V14.9844H39.5283V10.1538H37.1924V9.13184ZM39.376 7.3291C39.376 7.22754 39.3908 7.13232 39.4204 7.04346C39.4543 6.95459 39.505 6.87842 39.5728 6.81494C39.6278 6.75993 39.6976 6.71761 39.7822 6.68799C39.8711 6.65413 39.9705 6.63721 40.0806 6.63721C40.1906 6.63721 40.2879 6.65413 40.3726 6.68799C40.4572 6.71761 40.527 6.75993 40.582 6.81494C40.6497 6.87419 40.7005 6.94824 40.7344 7.03711C40.7682 7.12598 40.7852 7.22331 40.7852 7.3291C40.7852 7.51953 40.7259 7.67822 40.6074 7.80518C40.4889 7.93213 40.3133 7.99561 40.0806 7.99561C39.8436 7.99561 39.6659 7.93213 39.5474 7.80518C39.4331 7.67822 39.376 7.51953 39.376 7.3291Z" fill="#8C8A6E"/>
<rect x="56.5" y="2.5" width="49" height="17" rx="1.5" fill="#6A6853"/>
<rect x="56.5" y="2.5" width="49" height="17" rx="1.5" stroke="#6A6853"/>
<path d="M73.2842 16V6.75781H76.0327C76.4136 6.76204 76.786 6.81283 77.1499 6.91016C77.5138 7.00326 77.8376 7.14925 78.1211 7.34814C78.4046 7.54704 78.631 7.80094 78.8003 8.10986C78.9696 8.41878 79.0521 8.78906 79.0479 9.2207C79.0436 9.46191 79.0034 9.68197 78.9272 9.88086C78.8553 10.0798 78.7559 10.2575 78.6289 10.4141C78.4977 10.5749 78.3517 10.7103 78.1909 10.8203C78.0343 10.9303 77.8439 11.034 77.6196 11.1313V11.1504C77.8524 11.2054 78.0767 11.3049 78.2925 11.4487C78.5083 11.5926 78.686 11.7513 78.8257 11.9248C78.9738 12.1152 79.0881 12.3289 79.1685 12.5659C79.2531 12.8029 79.2954 13.0589 79.2954 13.334C79.2996 13.7656 79.2171 14.1465 79.0479 14.4766C78.8786 14.8066 78.6522 15.0817 78.3687 15.3018C78.0851 15.526 77.7572 15.6974 77.3848 15.8159C77.0166 15.9344 76.6357 15.9958 76.2422 16H73.2842ZM74.4648 11.6772V15.0034H76.2739C76.5194 14.9992 76.7521 14.959 76.9722 14.8828C77.1922 14.8024 77.3869 14.6924 77.5562 14.5527C77.7254 14.4131 77.8587 14.2417 77.9561 14.0386C78.0576 13.8354 78.1084 13.6048 78.1084 13.3467C78.1126 13.0843 78.0682 12.8516 77.9751 12.6484C77.8862 12.4453 77.7614 12.2718 77.6006 12.1279C77.4398 11.9883 77.2515 11.8804 77.0356 11.8042C76.8198 11.728 76.5871 11.6857 76.3374 11.6772H74.4648ZM74.4648 10.6997H76.1025C76.3226 10.6955 76.5384 10.6616 76.75 10.5981C76.9616 10.5304 77.1499 10.4331 77.3149 10.3062C77.48 10.1834 77.6133 10.0311 77.7148 9.84912C77.8164 9.66715 77.8672 9.45557 77.8672 9.21436C77.8672 8.95622 77.8164 8.73617 77.7148 8.5542C77.6175 8.37223 77.4863 8.22201 77.3213 8.10352C77.152 7.98926 76.9574 7.90462 76.7373 7.84961C76.5215 7.7946 76.2993 7.76497 76.0708 7.76074H74.4648V10.6997ZM83.2886 9.13184H86.7988V14.9844H89.0396V16H83.2886V14.9844H85.6245V10.1538H83.2886V9.13184ZM85.4722 7.3291C85.4722 7.22754 85.487 7.13232 85.5166 7.04346C85.5505 6.95459 85.6012 6.87842 85.6689 6.81494C85.724 6.75993 85.7938 6.71761 85.8784 6.68799C85.9673 6.65413 86.0667 6.63721 86.1768 6.63721C86.2868 6.63721 86.3841 6.65413 86.4688 6.68799C86.5534 6.71761 86.6232 6.75993 86.6782 6.81494C86.7459 6.87419 86.7967 6.94824 86.8306 7.03711C86.8644 7.12598 86.8813 7.22331 86.8813 7.3291C86.8813 7.51953 86.8221 7.67822 86.7036 7.80518C86.5851 7.93213 86.4095 7.99561 86.1768 7.99561C85.9398 7.99561 85.762 7.93213 85.6436 7.80518C85.5293 7.67822 85.4722 7.51953 85.4722 7.3291Z" fill="#CDCDCD"/>
</svg>
