<svg width="108" height="22" viewBox="0 0 108 22" fill="none" xmlns="http://www.w3.org/2000/svg">
<rect x="1" y="1" width="106" height="20" rx="3" fill="#1D1D1D"/>
<rect x="1" y="1" width="106" height="20" rx="3" stroke="#3E3E36" stroke-width="2"/>
<rect x="2.5" y="2.5" width="59" height="17" rx="1.5" fill="#3E3E36"/>
<rect x="2.5" y="2.5" width="59" height="17" rx="1.5" stroke="#3E3E36"/>
<path d="M25.1948 6.75781L25.2075 13.0166C25.2075 13.4482 25.1313 13.8524 24.979 14.229C24.8267 14.6056 24.6172 14.9336 24.3506 15.2129C24.084 15.4964 23.7666 15.7207 23.3984 15.8857C23.0303 16.0465 22.6261 16.127 22.186 16.127C21.7375 16.127 21.3291 16.0465 20.9609 15.8857C20.5928 15.7249 20.2775 15.5028 20.0151 15.2192C19.7528 14.9399 19.5475 14.612 19.3994 14.2354C19.2513 13.8545 19.1751 13.4482 19.1709 13.0166L19.1836 6.75781H20.3008L20.3262 13.0166C20.3304 13.2917 20.3727 13.5562 20.4531 13.8101C20.5378 14.064 20.6584 14.2882 20.8149 14.4829C20.9673 14.6776 21.1577 14.8341 21.3862 14.9526C21.619 15.0711 21.8856 15.1304 22.186 15.1304C22.4865 15.1304 22.751 15.0732 22.9795 14.959C23.208 14.8405 23.4006 14.6818 23.5571 14.4829C23.7095 14.2882 23.8258 14.064 23.9062 13.8101C23.9867 13.5562 24.0311 13.2917 24.0396 13.0166L24.0586 6.75781H25.1948ZM29.2007 16V9.13184H30.2544L30.3369 10.1475C30.4385 10.0036 30.5485 9.8724 30.667 9.75391C30.7897 9.63118 30.9188 9.52539 31.0542 9.43652C31.2573 9.30111 31.4774 9.19743 31.7144 9.12549C31.9556 9.04932 32.2095 9.00911 32.4761 9.00488C32.8358 9.00488 33.1616 9.05566 33.4536 9.15723C33.7498 9.25879 34.0016 9.41748 34.209 9.6333C34.4163 9.84912 34.575 10.1242 34.6851 10.4585C34.7993 10.7886 34.8564 11.1821 34.8564 11.6392V16H33.6821V11.6646C33.6821 11.3599 33.6483 11.1017 33.5806 10.8901C33.5129 10.6785 33.4134 10.5072 33.2822 10.376C33.1468 10.2448 32.9818 10.1496 32.7871 10.0903C32.5967 10.0311 32.3766 10.0015 32.127 10.0015C31.9111 10.0015 31.7101 10.0332 31.5239 10.0967C31.3377 10.1559 31.1663 10.2384 31.0098 10.3442C30.8828 10.4373 30.7643 10.5452 30.6543 10.668C30.5485 10.7907 30.4554 10.9261 30.375 11.0742V16H29.2007ZM39.1924 9.13184H42.7026V14.9844H44.9434V16H39.1924V14.9844H41.5283V10.1538H39.1924V9.13184ZM41.376 7.3291C41.376 7.22754 41.3908 7.13232 41.4204 7.04346C41.4543 6.95459 41.505 6.87842 41.5728 6.81494C41.6278 6.75993 41.6976 6.71761 41.7822 6.68799C41.8711 6.65413 41.9705 6.63721 42.0806 6.63721C42.1906 6.63721 42.2879 6.65413 42.3726 6.68799C42.4572 6.71761 42.527 6.75993 42.582 6.81494C42.6497 6.87419 42.7005 6.94824 42.7344 7.03711C42.7682 7.12598 42.7852 7.22331 42.7852 7.3291C42.7852 7.51953 42.7259 7.67822 42.6074 7.80518C42.4889 7.93213 42.3133 7.99561 42.0806 7.99561C41.8436 7.99561 41.6659 7.93213 41.5474 7.80518C41.4331 7.67822 41.376 7.51953 41.376 7.3291Z" fill="#CDCDCD"/>
<path opacity="0.5" d="M75.2842 16V6.75781H78.0327C78.4136 6.76204 78.786 6.81283 79.1499 6.91016C79.5138 7.00326 79.8376 7.14925 80.1211 7.34814C80.4046 7.54704 80.631 7.80094 80.8003 8.10986C80.9696 8.41878 81.0521 8.78906 81.0479 9.2207C81.0436 9.46191 81.0034 9.68197 80.9272 9.88086C80.8553 10.0798 80.7559 10.2575 80.6289 10.4141C80.4977 10.5749 80.3517 10.7103 80.1909 10.8203C80.0343 10.9303 79.8439 11.034 79.6196 11.1313V11.1504C79.8524 11.2054 80.0767 11.3049 80.2925 11.4487C80.5083 11.5926 80.686 11.7513 80.8257 11.9248C80.9738 12.1152 81.0881 12.3289 81.1685 12.5659C81.2531 12.8029 81.2954 13.0589 81.2954 13.334C81.2996 13.7656 81.2171 14.1465 81.0479 14.4766C80.8786 14.8066 80.6522 15.0817 80.3687 15.3018C80.0851 15.526 79.7572 15.6974 79.3848 15.8159C79.0166 15.9344 78.6357 15.9958 78.2422 16H75.2842ZM76.4648 11.6772V15.0034H78.2739C78.5194 14.9992 78.7521 14.959 78.9722 14.8828C79.1922 14.8024 79.3869 14.6924 79.5562 14.5527C79.7254 14.4131 79.8587 14.2417 79.9561 14.0386C80.0576 13.8354 80.1084 13.6048 80.1084 13.3467C80.1126 13.0843 80.0682 12.8516 79.9751 12.6484C79.8862 12.4453 79.7614 12.2718 79.6006 12.1279C79.4398 11.9883 79.2515 11.8804 79.0356 11.8042C78.8198 11.728 78.5871 11.6857 78.3374 11.6772H76.4648ZM76.4648 10.6997H78.1025C78.3226 10.6955 78.5384 10.6616 78.75 10.5981C78.9616 10.5304 79.1499 10.4331 79.3149 10.3062C79.48 10.1834 79.6133 10.0311 79.7148 9.84912C79.8164 9.66715 79.8672 9.45557 79.8672 9.21436C79.8672 8.95622 79.8164 8.73617 79.7148 8.5542C79.6175 8.37223 79.4863 8.22201 79.3213 8.10352C79.152 7.98926 78.9574 7.90462 78.7373 7.84961C78.5215 7.7946 78.2993 7.76497 78.0708 7.76074H76.4648V10.6997ZM85.2886 9.13184H88.7988V14.9844H91.0396V16H85.2886V14.9844H87.6245V10.1538H85.2886V9.13184ZM87.4722 7.3291C87.4722 7.22754 87.487 7.13232 87.5166 7.04346C87.5505 6.95459 87.6012 6.87842 87.6689 6.81494C87.724 6.75993 87.7938 6.71761 87.8784 6.68799C87.9673 6.65413 88.0667 6.63721 88.1768 6.63721C88.2868 6.63721 88.3841 6.65413 88.4688 6.68799C88.5534 6.71761 88.6232 6.75993 88.6782 6.81494C88.7459 6.87419 88.7967 6.94824 88.8306 7.03711C88.8644 7.12598 88.8813 7.22331 88.8813 7.3291C88.8813 7.51953 88.8221 7.67822 88.7036 7.80518C88.5851 7.93213 88.4095 7.99561 88.1768 7.99561C87.9398 7.99561 87.762 7.93213 87.6436 7.80518C87.5293 7.67822 87.4722 7.51953 87.4722 7.3291Z" fill="#8C8A6E"/>
</svg>
