<svg width="206" height="22" viewBox="0 0 206 22" fill="none" xmlns="http://www.w3.org/2000/svg">
<rect x="1" y="1" width="204" height="20" rx="3" fill="#1D1D1D"/>
<rect x="1" y="1" width="204" height="20" rx="3" stroke="#6A6853" stroke-width="2"/>
<rect x="2.5" y="2.5" width="108" height="17" rx="1.5" fill="#6A6853"/>
<rect x="2.5" y="2.5" width="108" height="17" rx="1.5" stroke="#6A6853"/>
<path d="M25.1758 6.75781L25.1885 13.0166C25.1885 13.4482 25.1123 13.8524 24.96 14.229C24.8076 14.6056 24.5981 14.9336 24.3315 15.2129C24.0649 15.4964 23.7476 15.7207 23.3794 15.8857C23.0112 16.0465 22.6071 16.127 22.167 16.127C21.7184 16.127 21.3101 16.0465 20.9419 15.8857C20.5737 15.7249 20.2585 15.5028 19.9961 15.2192C19.7337 14.9399 19.5285 14.612 19.3804 14.2354C19.2323 13.8545 19.1561 13.4482 19.1519 13.0166L19.1646 6.75781H20.2817L20.3071 13.0166C20.3114 13.2917 20.3537 13.5562 20.4341 13.8101C20.5187 14.064 20.6393 14.2882 20.7959 14.4829C20.9482 14.6776 21.1387 14.8341 21.3672 14.9526C21.5999 15.0711 21.8665 15.1304 22.167 15.1304C22.4674 15.1304 22.7319 15.0732 22.9604 14.959C23.189 14.8405 23.3815 14.6818 23.5381 14.4829C23.6904 14.2882 23.8068 14.064 23.8872 13.8101C23.9676 13.5562 24.012 13.2917 24.0205 13.0166L24.0396 6.75781H25.1758ZM29.1816 16V9.13184H30.2354L30.3179 10.1475C30.4194 10.0036 30.5295 9.8724 30.6479 9.75391C30.7707 9.63118 30.8997 9.52539 31.0352 9.43652C31.2383 9.30111 31.4583 9.19743 31.6953 9.12549C31.9365 9.04932 32.1904 9.00911 32.457 9.00488C32.8167 9.00488 33.1426 9.05566 33.4346 9.15723C33.7308 9.25879 33.9826 9.41748 34.1899 9.6333C34.3973 9.84912 34.556 10.1242 34.666 10.4585C34.7803 10.7886 34.8374 11.1821 34.8374 11.6392V16H33.6631V11.6646C33.6631 11.3599 33.6292 11.1017 33.5615 10.8901C33.4938 10.6785 33.3944 10.5072 33.2632 10.376C33.1278 10.2448 32.9627 10.1496 32.7681 10.0903C32.5776 10.0311 32.3576 10.0015 32.1079 10.0015C31.8921 10.0015 31.6911 10.0332 31.5049 10.0967C31.3187 10.1559 31.1473 10.2384 30.9907 10.3442C30.8638 10.4373 30.7453 10.5452 30.6353 10.668C30.5295 10.7907 30.4364 10.9261 30.356 11.0742V16H29.1816ZM39.1733 9.13184H42.6836V14.9844H44.9243V16H39.1733V14.9844H41.5093V10.1538H39.1733V9.13184ZM41.3569 7.3291C41.3569 7.22754 41.3717 7.13232 41.4014 7.04346C41.4352 6.95459 41.486 6.87842 41.5537 6.81494C41.6087 6.75993 41.6785 6.71761 41.7632 6.68799C41.8521 6.65413 41.9515 6.63721 42.0615 6.63721C42.1715 6.63721 42.2689 6.65413 42.3535 6.68799C42.4382 6.71761 42.508 6.75993 42.563 6.81494C42.6307 6.87419 42.6815 6.94824 42.7153 7.03711C42.7492 7.12598 42.7661 7.22331 42.7661 7.3291C42.7661 7.51953 42.7069 7.67822 42.5884 7.80518C42.4699 7.93213 42.2943 7.99561 42.0615 7.99561C41.8245 7.99561 41.6468 7.93213 41.5283 7.80518C41.4141 7.67822 41.3569 7.51953 41.3569 7.3291ZM48.7905 18.6406V9.13184H49.8633L49.9204 9.88086C50.0135 9.76237 50.1151 9.65658 50.2251 9.56348C50.3351 9.46615 50.4536 9.38363 50.5806 9.31592C50.7583 9.21436 50.9551 9.13818 51.1709 9.0874C51.391 9.03239 51.6258 9.00488 51.8755 9.00488C52.3156 9.00488 52.7049 9.09163 53.0435 9.26514C53.382 9.43864 53.6655 9.67985 53.894 9.98877C54.1226 10.2977 54.2961 10.668 54.4146 11.0996C54.533 11.527 54.5923 11.9967 54.5923 12.5088V12.6421C54.5923 13.133 54.533 13.5921 54.4146 14.0195C54.2961 14.4427 54.1226 14.8109 53.894 15.124C53.6655 15.4372 53.382 15.6826 53.0435 15.8604C52.7091 16.0381 52.3262 16.127 51.8945 16.127C51.6322 16.127 51.3867 16.0994 51.1582 16.0444C50.9339 15.9894 50.7308 15.9111 50.5488 15.8096C50.4388 15.7461 50.3351 15.6763 50.2378 15.6001C50.1405 15.5197 50.0495 15.4329 49.9648 15.3398V18.6406H48.7905ZM53.418 12.5088C53.418 12.1745 53.3799 11.8571 53.3037 11.5566C53.2318 11.252 53.1196 10.9832 52.9673 10.7505C52.8107 10.522 52.6139 10.34 52.377 10.2046C52.14 10.0692 51.8564 10.0015 51.5264 10.0015C51.3444 10.0015 51.1751 10.0226 51.0186 10.0649C50.8662 10.1073 50.7287 10.1686 50.606 10.249C50.4705 10.3294 50.3499 10.4289 50.2441 10.5474C50.1383 10.6659 50.0452 10.797 49.9648 10.9409V14.248C50.0368 14.375 50.1193 14.4935 50.2124 14.6035C50.3055 14.7135 50.4113 14.8066 50.5298 14.8828C50.6652 14.9717 50.8154 15.0415 50.9805 15.0923C51.1497 15.1431 51.3359 15.1685 51.5391 15.1685C51.8649 15.1685 52.1463 15.1007 52.3833 14.9653C52.6203 14.8257 52.8149 14.6395 52.9673 14.4067C53.1196 14.174 53.2318 13.9053 53.3037 13.6006C53.3799 13.2959 53.418 12.9764 53.418 12.6421V12.5088ZM58.2744 12.5024C58.2744 12.0073 58.3464 11.5482 58.4902 11.125C58.6341 10.6976 58.8415 10.3273 59.1123 10.0142C59.3789 9.70101 59.7048 9.45557 60.0898 9.27783C60.4749 9.09587 60.9087 9.00488 61.3911 9.00488C61.8778 9.00488 62.3136 9.09587 62.6987 9.27783C63.0881 9.45557 63.4181 9.70101 63.689 10.0142C63.9556 10.3273 64.1608 10.6976 64.3047 11.125C64.4486 11.5482 64.5205 12.0073 64.5205 12.5024V12.6421C64.5205 13.1372 64.4486 13.5964 64.3047 14.0195C64.1608 14.4427 63.9556 14.8109 63.689 15.124C63.4181 15.4372 63.0902 15.6826 62.7051 15.8604C62.32 16.0381 61.8862 16.127 61.4038 16.127C60.9172 16.127 60.4792 16.0381 60.0898 15.8604C59.7048 15.6826 59.3789 15.4372 59.1123 15.124C58.8415 14.8109 58.6341 14.4427 58.4902 14.0195C58.3464 13.5964 58.2744 13.1372 58.2744 12.6421V12.5024ZM59.4487 12.6421C59.4487 12.9806 59.4889 13.3044 59.5693 13.6133C59.6497 13.918 59.7725 14.1867 59.9375 14.4194C60.0983 14.6522 60.3014 14.8363 60.5469 14.9717C60.7923 15.1071 61.078 15.1748 61.4038 15.1748C61.7254 15.1748 62.0068 15.1071 62.248 14.9717C62.4935 14.8363 62.6987 14.6522 62.8638 14.4194C63.0246 14.1867 63.1452 13.918 63.2256 13.6133C63.306 13.3044 63.3462 12.9806 63.3462 12.6421V12.5024C63.3462 12.1681 63.3039 11.8486 63.2192 11.5439C63.1388 11.235 63.0182 10.9642 62.8574 10.7314C62.6924 10.4987 62.4871 10.3146 62.2417 10.1792C62.0005 10.0396 61.717 9.96973 61.3911 9.96973C61.0653 9.96973 60.7817 10.0396 60.5405 10.1792C60.2993 10.3146 60.0983 10.4987 59.9375 10.7314C59.7725 10.9642 59.6497 11.235 59.5693 11.5439C59.4889 11.8486 59.4487 12.1681 59.4487 12.5024V12.6421ZM68.5962 6.25H72.1064V14.9844H74.3472V16H68.5962V14.9844H70.9321V7.27197H68.5962V6.25ZM82.7329 16C82.6864 15.9111 82.6483 15.8011 82.6187 15.6699C82.5933 15.5345 82.5742 15.3949 82.5615 15.251C82.443 15.3695 82.3097 15.4816 82.1616 15.5874C82.0177 15.6932 81.859 15.7863 81.6855 15.8667C81.5078 15.9471 81.3195 16.0106 81.1206 16.0571C80.9217 16.1037 80.7101 16.127 80.4858 16.127C80.1219 16.127 79.7918 16.0741 79.4956 15.9683C79.2036 15.8625 78.9561 15.7186 78.7529 15.5366C78.5456 15.3589 78.3848 15.1473 78.2705 14.9019C78.1605 14.6522 78.1055 14.3835 78.1055 14.0957C78.1055 13.7191 78.1795 13.389 78.3276 13.1055C78.48 12.8219 78.6937 12.585 78.9688 12.3945C79.2438 12.2083 79.5739 12.0687 79.959 11.9756C80.3483 11.8825 80.7821 11.8359 81.2603 11.8359H82.5425V11.2964C82.5425 11.089 82.5044 10.9028 82.4282 10.7378C82.3521 10.5728 82.2441 10.431 82.1045 10.3125C81.9648 10.1982 81.7935 10.1094 81.5903 10.0459C81.3914 9.98242 81.1672 9.95068 80.9175 9.95068C80.6847 9.95068 80.4753 9.98031 80.2891 10.0396C80.1071 10.0988 79.9526 10.1771 79.8257 10.2744C79.6987 10.3717 79.5993 10.4881 79.5273 10.6235C79.4596 10.7547 79.4258 10.8923 79.4258 11.0361H78.2451C78.2493 10.7865 78.3128 10.541 78.4355 10.2998C78.5625 10.0586 78.7445 9.84066 78.9814 9.646C79.2142 9.45557 79.4977 9.30111 79.832 9.18262C80.1706 9.06413 80.5535 9.00488 80.981 9.00488C81.3703 9.00488 81.7321 9.05355 82.0664 9.15088C82.4007 9.24398 82.6906 9.38574 82.936 9.57617C83.1772 9.77083 83.3677 10.012 83.5073 10.2998C83.647 10.5876 83.7168 10.924 83.7168 11.3091V14.502C83.7168 14.7305 83.738 14.9738 83.7803 15.2319C83.8226 15.4858 83.8818 15.708 83.958 15.8984V16H82.7329ZM80.6572 15.105C80.8857 15.105 81.0994 15.0754 81.2983 15.0161C81.4972 14.9569 81.6792 14.8786 81.8442 14.7812C82.005 14.6839 82.1447 14.5739 82.2632 14.4512C82.3817 14.3242 82.4748 14.193 82.5425 14.0576V12.6675H81.4507C81.0444 12.6675 80.689 12.7035 80.3843 12.7754C80.0838 12.8431 79.8447 12.9489 79.667 13.0928C79.54 13.1943 79.4427 13.3149 79.375 13.4546C79.3115 13.5942 79.2798 13.7529 79.2798 13.9307C79.2798 14.0999 79.3073 14.2565 79.3623 14.4004C79.4215 14.5443 79.5083 14.667 79.6226 14.7686C79.7368 14.8743 79.8807 14.9569 80.0542 15.0161C80.2277 15.0754 80.4287 15.105 80.6572 15.105ZM92.5278 9.00488C92.7437 9.00488 92.9679 9.01969 93.2007 9.04932C93.4377 9.07894 93.6154 9.11914 93.7339 9.16992L93.5752 10.3188C93.3467 10.2681 93.1287 10.2321 92.9214 10.2109C92.7183 10.1855 92.5046 10.1729 92.2803 10.1729C91.9925 10.1729 91.7323 10.2088 91.4995 10.2808C91.2668 10.3485 91.0636 10.45 90.8901 10.5854C90.7336 10.7039 90.596 10.8499 90.4775 11.0234C90.3633 11.1927 90.2681 11.3831 90.1919 11.5947V16H89.0112V9.13184H90.1284L90.1792 10.0522L90.1855 10.2236C90.4648 9.84701 90.7992 9.55078 91.1885 9.33496C91.582 9.11491 92.0285 9.00488 92.5278 9.00488Z" fill="#CDCDCD"/>
<path opacity="0.5" d="M124.265 16V6.75781H127.014C127.395 6.76204 127.767 6.81283 128.131 6.91016C128.495 7.00326 128.819 7.14925 129.102 7.34814C129.386 7.54704 129.612 7.80094 129.781 8.10986C129.951 8.41878 130.033 8.78906 130.029 9.2207C130.025 9.46191 129.984 9.68197 129.908 9.88086C129.836 10.0798 129.737 10.2575 129.61 10.4141C129.479 10.5749 129.333 10.7103 129.172 10.8203C129.015 10.9303 128.825 11.034 128.601 11.1313V11.1504C128.833 11.2054 129.058 11.3049 129.273 11.4487C129.489 11.5926 129.667 11.7513 129.807 11.9248C129.955 12.1152 130.069 12.3289 130.149 12.5659C130.234 12.8029 130.276 13.0589 130.276 13.334C130.281 13.7656 130.198 14.1465 130.029 14.4766C129.86 14.8066 129.633 15.0817 129.35 15.3018C129.066 15.526 128.738 15.6974 128.366 15.8159C127.998 15.9344 127.617 15.9958 127.223 16H124.265ZM125.446 11.6772V15.0034H127.255C127.5 14.9992 127.733 14.959 127.953 14.8828C128.173 14.8024 128.368 14.6924 128.537 14.5527C128.706 14.4131 128.84 14.2417 128.937 14.0386C129.039 13.8354 129.089 13.6048 129.089 13.3467C129.094 13.0843 129.049 12.8516 128.956 12.6484C128.867 12.4453 128.742 12.2718 128.582 12.1279C128.421 11.9883 128.232 11.8804 128.017 11.8042C127.801 11.728 127.568 11.6857 127.318 11.6772H125.446ZM125.446 10.6997H127.083C127.304 10.6955 127.519 10.6616 127.731 10.5981C127.943 10.5304 128.131 10.4331 128.296 10.3062C128.461 10.1834 128.594 10.0311 128.696 9.84912C128.797 9.66715 128.848 9.45557 128.848 9.21436C128.848 8.95622 128.797 8.73617 128.696 8.5542C128.598 8.37223 128.467 8.22201 128.302 8.10352C128.133 7.98926 127.938 7.90462 127.718 7.84961C127.502 7.7946 127.28 7.76497 127.052 7.76074H125.446V10.6997ZM134.27 9.13184H137.78V14.9844H140.021V16H134.27V14.9844H136.605V10.1538H134.27V9.13184ZM136.453 7.3291C136.453 7.22754 136.468 7.13232 136.498 7.04346C136.531 6.95459 136.582 6.87842 136.65 6.81494C136.705 6.75993 136.775 6.71761 136.859 6.68799C136.948 6.65413 137.048 6.63721 137.158 6.63721C137.268 6.63721 137.365 6.65413 137.45 6.68799C137.534 6.71761 137.604 6.75993 137.659 6.81494C137.727 6.87419 137.778 6.94824 137.812 7.03711C137.845 7.12598 137.862 7.22331 137.862 7.3291C137.862 7.51953 137.803 7.67822 137.685 7.80518C137.566 7.93213 137.39 7.99561 137.158 7.99561C136.921 7.99561 136.743 7.93213 136.625 7.80518C136.51 7.67822 136.453 7.51953 136.453 7.3291ZM143.887 18.6406V9.13184H144.959L145.017 9.88086C145.11 9.76237 145.211 9.65658 145.321 9.56348C145.431 9.46615 145.55 9.38363 145.677 9.31592C145.854 9.21436 146.051 9.13818 146.267 9.0874C146.487 9.03239 146.722 9.00488 146.972 9.00488C147.412 9.00488 147.801 9.09163 148.14 9.26514C148.478 9.43864 148.762 9.67985 148.99 9.98877C149.219 10.2977 149.392 10.668 149.511 11.0996C149.629 11.527 149.688 11.9967 149.688 12.5088V12.6421C149.688 13.133 149.629 13.5921 149.511 14.0195C149.392 14.4427 149.219 14.8109 148.99 15.124C148.762 15.4372 148.478 15.6826 148.14 15.8604C147.805 16.0381 147.422 16.127 146.991 16.127C146.728 16.127 146.483 16.0994 146.254 16.0444C146.03 15.9894 145.827 15.9111 145.645 15.8096C145.535 15.7461 145.431 15.6763 145.334 15.6001C145.237 15.5197 145.146 15.4329 145.061 15.3398V18.6406H143.887ZM148.514 12.5088C148.514 12.1745 148.476 11.8571 148.4 11.5566C148.328 11.252 148.216 10.9832 148.063 10.7505C147.907 10.522 147.71 10.34 147.473 10.2046C147.236 10.0692 146.953 10.0015 146.623 10.0015C146.441 10.0015 146.271 10.0226 146.115 10.0649C145.962 10.1073 145.825 10.1686 145.702 10.249C145.567 10.3294 145.446 10.4289 145.34 10.5474C145.235 10.6659 145.141 10.797 145.061 10.9409V14.248C145.133 14.375 145.215 14.4935 145.309 14.6035C145.402 14.7135 145.507 14.8066 145.626 14.8828C145.761 14.9717 145.912 15.0415 146.077 15.0923C146.246 15.1431 146.432 15.1685 146.635 15.1685C146.961 15.1685 147.243 15.1007 147.479 14.9653C147.716 14.8257 147.911 14.6395 148.063 14.4067C148.216 14.174 148.328 13.9053 148.4 13.6006C148.476 13.2959 148.514 12.9764 148.514 12.6421V12.5088ZM153.371 12.5024C153.371 12.0073 153.443 11.5482 153.586 11.125C153.73 10.6976 153.938 10.3273 154.208 10.0142C154.475 9.70101 154.801 9.45557 155.186 9.27783C155.571 9.09587 156.005 9.00488 156.487 9.00488C156.974 9.00488 157.41 9.09587 157.795 9.27783C158.184 9.45557 158.514 9.70101 158.785 10.0142C159.052 10.3273 159.257 10.6976 159.401 11.125C159.545 11.5482 159.617 12.0073 159.617 12.5024V12.6421C159.617 13.1372 159.545 13.5964 159.401 14.0195C159.257 14.4427 159.052 14.8109 158.785 15.124C158.514 15.4372 158.186 15.6826 157.801 15.8604C157.416 16.0381 156.982 16.127 156.5 16.127C156.013 16.127 155.575 16.0381 155.186 15.8604C154.801 15.6826 154.475 15.4372 154.208 15.124C153.938 14.8109 153.73 14.4427 153.586 14.0195C153.443 13.5964 153.371 13.1372 153.371 12.6421V12.5024ZM154.545 12.6421C154.545 12.9806 154.585 13.3044 154.666 13.6133C154.746 13.918 154.869 14.1867 155.034 14.4194C155.194 14.6522 155.398 14.8363 155.643 14.9717C155.889 15.1071 156.174 15.1748 156.5 15.1748C156.822 15.1748 157.103 15.1071 157.344 14.9717C157.59 14.8363 157.795 14.6522 157.96 14.4194C158.121 14.1867 158.241 13.918 158.322 13.6133C158.402 13.3044 158.442 12.9806 158.442 12.6421V12.5024C158.442 12.1681 158.4 11.8486 158.315 11.5439C158.235 11.235 158.114 10.9642 157.954 10.7314C157.789 10.4987 157.583 10.3146 157.338 10.1792C157.097 10.0396 156.813 9.96973 156.487 9.96973C156.161 9.96973 155.878 10.0396 155.637 10.1792C155.396 10.3146 155.194 10.4987 155.034 10.7314C154.869 10.9642 154.746 11.235 154.666 11.5439C154.585 11.8486 154.545 12.1681 154.545 12.5024V12.6421ZM163.692 6.25H167.203V14.9844H169.443V16H163.692V14.9844H166.028V7.27197H163.692V6.25ZM177.829 16C177.783 15.9111 177.744 15.8011 177.715 15.6699C177.689 15.5345 177.67 15.3949 177.658 15.251C177.539 15.3695 177.406 15.4816 177.258 15.5874C177.114 15.6932 176.955 15.7863 176.782 15.8667C176.604 15.9471 176.416 16.0106 176.217 16.0571C176.018 16.1037 175.806 16.127 175.582 16.127C175.218 16.127 174.888 16.0741 174.592 15.9683C174.3 15.8625 174.052 15.7186 173.849 15.5366C173.642 15.3589 173.481 15.1473 173.367 14.9019C173.257 14.6522 173.202 14.3835 173.202 14.0957C173.202 13.7191 173.276 13.389 173.424 13.1055C173.576 12.8219 173.79 12.585 174.065 12.3945C174.34 12.2083 174.67 12.0687 175.055 11.9756C175.444 11.8825 175.878 11.8359 176.356 11.8359H177.639V11.2964C177.639 11.089 177.601 10.9028 177.524 10.7378C177.448 10.5728 177.34 10.431 177.201 10.3125C177.061 10.1982 176.89 10.1094 176.687 10.0459C176.488 9.98242 176.263 9.95068 176.014 9.95068C175.781 9.95068 175.571 9.98031 175.385 10.0396C175.203 10.0988 175.049 10.1771 174.922 10.2744C174.795 10.3717 174.695 10.4881 174.624 10.6235C174.556 10.7547 174.522 10.8923 174.522 11.0361H173.341C173.346 10.7865 173.409 10.541 173.532 10.2998C173.659 10.0586 173.841 9.84066 174.078 9.646C174.31 9.45557 174.594 9.30111 174.928 9.18262C175.267 9.06413 175.65 9.00488 176.077 9.00488C176.466 9.00488 176.828 9.05355 177.163 9.15088C177.497 9.24398 177.787 9.38574 178.032 9.57617C178.273 9.77083 178.464 10.012 178.604 10.2998C178.743 10.5876 178.813 10.924 178.813 11.3091V14.502C178.813 14.7305 178.834 14.9738 178.876 15.2319C178.919 15.4858 178.978 15.708 179.054 15.8984V16H177.829ZM175.753 15.105C175.982 15.105 176.196 15.0754 176.395 15.0161C176.593 14.9569 176.775 14.8786 176.94 14.7812C177.101 14.6839 177.241 14.5739 177.359 14.4512C177.478 14.3242 177.571 14.193 177.639 14.0576V12.6675H176.547C176.141 12.6675 175.785 12.7035 175.48 12.7754C175.18 12.8431 174.941 12.9489 174.763 13.0928C174.636 13.1943 174.539 13.3149 174.471 13.4546C174.408 13.5942 174.376 13.7529 174.376 13.9307C174.376 14.0999 174.403 14.2565 174.458 14.4004C174.518 14.5443 174.604 14.667 174.719 14.7686C174.833 14.8743 174.977 14.9569 175.15 15.0161C175.324 15.0754 175.525 15.105 175.753 15.105ZM187.624 9.00488C187.84 9.00488 188.064 9.01969 188.297 9.04932C188.534 9.07894 188.712 9.11914 188.83 9.16992L188.671 10.3188C188.443 10.2681 188.225 10.2321 188.018 10.2109C187.814 10.1855 187.601 10.1729 187.376 10.1729C187.089 10.1729 186.828 10.2088 186.596 10.2808C186.363 10.3485 186.16 10.45 185.986 10.5854C185.83 10.7039 185.692 10.8499 185.574 11.0234C185.459 11.1927 185.364 11.3831 185.288 11.5947V16H184.107V9.13184H185.225L185.275 10.0522L185.282 10.2236C185.561 9.84701 185.895 9.55078 186.285 9.33496C186.678 9.11491 187.125 9.00488 187.624 9.00488Z" fill="#8C8A6E"/>
</svg>
