<svg width="206" height="22" viewBox="0 0 206 22" fill="none" xmlns="http://www.w3.org/2000/svg">
<rect x="1" y="1" width="204" height="20" rx="3" fill="#1D1D1D"/>
<rect x="1" y="1" width="204" height="20" rx="3" stroke="#6A6853" stroke-width="2"/>
<path opacity="0.65" d="M23.1758 6.75781L23.1885 13.0166C23.1885 13.4482 23.1123 13.8524 22.96 14.229C22.8076 14.6056 22.5981 14.9336 22.3315 15.2129C22.0649 15.4964 21.7476 15.7207 21.3794 15.8857C21.0112 16.0465 20.6071 16.127 20.167 16.127C19.7184 16.127 19.3101 16.0465 18.9419 15.8857C18.5737 15.7249 18.2585 15.5028 17.9961 15.2192C17.7337 14.9399 17.5285 14.612 17.3804 14.2354C17.2323 13.8545 17.1561 13.4482 17.1519 13.0166L17.1646 6.75781H18.2817L18.3071 13.0166C18.3114 13.2917 18.3537 13.5562 18.4341 13.8101C18.5187 14.064 18.6393 14.2882 18.7959 14.4829C18.9482 14.6776 19.1387 14.8341 19.3672 14.9526C19.5999 15.0711 19.8665 15.1304 20.167 15.1304C20.4674 15.1304 20.7319 15.0732 20.9604 14.959C21.189 14.8405 21.3815 14.6818 21.5381 14.4829C21.6904 14.2882 21.8068 14.064 21.8872 13.8101C21.9676 13.5562 22.012 13.2917 22.0205 13.0166L22.0396 6.75781H23.1758ZM27.1816 16V9.13184H28.2354L28.3179 10.1475C28.4194 10.0036 28.5295 9.8724 28.6479 9.75391C28.7707 9.63118 28.8997 9.52539 29.0352 9.43652C29.2383 9.30111 29.4583 9.19743 29.6953 9.12549C29.9365 9.04932 30.1904 9.00911 30.457 9.00488C30.8167 9.00488 31.1426 9.05566 31.4346 9.15723C31.7308 9.25879 31.9826 9.41748 32.1899 9.6333C32.3973 9.84912 32.556 10.1242 32.666 10.4585C32.7803 10.7886 32.8374 11.1821 32.8374 11.6392V16H31.6631V11.6646C31.6631 11.3599 31.6292 11.1017 31.5615 10.8901C31.4938 10.6785 31.3944 10.5072 31.2632 10.376C31.1278 10.2448 30.9627 10.1496 30.7681 10.0903C30.5776 10.0311 30.3576 10.0015 30.1079 10.0015C29.8921 10.0015 29.6911 10.0332 29.5049 10.0967C29.3187 10.1559 29.1473 10.2384 28.9907 10.3442C28.8638 10.4373 28.7453 10.5452 28.6353 10.668C28.5295 10.7907 28.4364 10.9261 28.356 11.0742V16H27.1816ZM37.1733 9.13184H40.6836V14.9844H42.9243V16H37.1733V14.9844H39.5093V10.1538H37.1733V9.13184ZM39.3569 7.3291C39.3569 7.22754 39.3717 7.13232 39.4014 7.04346C39.4352 6.95459 39.486 6.87842 39.5537 6.81494C39.6087 6.75993 39.6785 6.71761 39.7632 6.68799C39.8521 6.65413 39.9515 6.63721 40.0615 6.63721C40.1715 6.63721 40.2689 6.65413 40.3535 6.68799C40.4382 6.71761 40.508 6.75993 40.563 6.81494C40.6307 6.87419 40.6815 6.94824 40.7153 7.03711C40.7492 7.12598 40.7661 7.22331 40.7661 7.3291C40.7661 7.51953 40.7069 7.67822 40.5884 7.80518C40.4699 7.93213 40.2943 7.99561 40.0615 7.99561C39.8245 7.99561 39.6468 7.93213 39.5283 7.80518C39.4141 7.67822 39.3569 7.51953 39.3569 7.3291ZM46.7905 18.6406V9.13184H47.8633L47.9204 9.88086C48.0135 9.76237 48.1151 9.65658 48.2251 9.56348C48.3351 9.46615 48.4536 9.38363 48.5806 9.31592C48.7583 9.21436 48.9551 9.13818 49.1709 9.0874C49.391 9.03239 49.6258 9.00488 49.8755 9.00488C50.3156 9.00488 50.7049 9.09163 51.0435 9.26514C51.382 9.43864 51.6655 9.67985 51.894 9.98877C52.1226 10.2977 52.2961 10.668 52.4146 11.0996C52.533 11.527 52.5923 11.9967 52.5923 12.5088V12.6421C52.5923 13.133 52.533 13.5921 52.4146 14.0195C52.2961 14.4427 52.1226 14.8109 51.894 15.124C51.6655 15.4372 51.382 15.6826 51.0435 15.8604C50.7091 16.0381 50.3262 16.127 49.8945 16.127C49.6322 16.127 49.3867 16.0994 49.1582 16.0444C48.9339 15.9894 48.7308 15.9111 48.5488 15.8096C48.4388 15.7461 48.3351 15.6763 48.2378 15.6001C48.1405 15.5197 48.0495 15.4329 47.9648 15.3398V18.6406H46.7905ZM51.418 12.5088C51.418 12.1745 51.3799 11.8571 51.3037 11.5566C51.2318 11.252 51.1196 10.9832 50.9673 10.7505C50.8107 10.522 50.6139 10.34 50.377 10.2046C50.14 10.0692 49.8564 10.0015 49.5264 10.0015C49.3444 10.0015 49.1751 10.0226 49.0186 10.0649C48.8662 10.1073 48.7287 10.1686 48.606 10.249C48.4705 10.3294 48.3499 10.4289 48.2441 10.5474C48.1383 10.6659 48.0452 10.797 47.9648 10.9409V14.248C48.0368 14.375 48.1193 14.4935 48.2124 14.6035C48.3055 14.7135 48.4113 14.8066 48.5298 14.8828C48.6652 14.9717 48.8154 15.0415 48.9805 15.0923C49.1497 15.1431 49.3359 15.1685 49.5391 15.1685C49.8649 15.1685 50.1463 15.1007 50.3833 14.9653C50.6203 14.8257 50.8149 14.6395 50.9673 14.4067C51.1196 14.174 51.2318 13.9053 51.3037 13.6006C51.3799 13.2959 51.418 12.9764 51.418 12.6421V12.5088ZM56.2744 12.5024C56.2744 12.0073 56.3464 11.5482 56.4902 11.125C56.6341 10.6976 56.8415 10.3273 57.1123 10.0142C57.3789 9.70101 57.7048 9.45557 58.0898 9.27783C58.4749 9.09587 58.9087 9.00488 59.3911 9.00488C59.8778 9.00488 60.3136 9.09587 60.6987 9.27783C61.0881 9.45557 61.4181 9.70101 61.689 10.0142C61.9556 10.3273 62.1608 10.6976 62.3047 11.125C62.4486 11.5482 62.5205 12.0073 62.5205 12.5024V12.6421C62.5205 13.1372 62.4486 13.5964 62.3047 14.0195C62.1608 14.4427 61.9556 14.8109 61.689 15.124C61.4181 15.4372 61.0902 15.6826 60.7051 15.8604C60.32 16.0381 59.8862 16.127 59.4038 16.127C58.9172 16.127 58.4792 16.0381 58.0898 15.8604C57.7048 15.6826 57.3789 15.4372 57.1123 15.124C56.8415 14.8109 56.6341 14.4427 56.4902 14.0195C56.3464 13.5964 56.2744 13.1372 56.2744 12.6421V12.5024ZM57.4487 12.6421C57.4487 12.9806 57.4889 13.3044 57.5693 13.6133C57.6497 13.918 57.7725 14.1867 57.9375 14.4194C58.0983 14.6522 58.3014 14.8363 58.5469 14.9717C58.7923 15.1071 59.078 15.1748 59.4038 15.1748C59.7254 15.1748 60.0068 15.1071 60.248 14.9717C60.4935 14.8363 60.6987 14.6522 60.8638 14.4194C61.0246 14.1867 61.1452 13.918 61.2256 13.6133C61.306 13.3044 61.3462 12.9806 61.3462 12.6421V12.5024C61.3462 12.1681 61.3039 11.8486 61.2192 11.5439C61.1388 11.235 61.0182 10.9642 60.8574 10.7314C60.6924 10.4987 60.4871 10.3146 60.2417 10.1792C60.0005 10.0396 59.717 9.96973 59.3911 9.96973C59.0653 9.96973 58.7817 10.0396 58.5405 10.1792C58.2993 10.3146 58.0983 10.4987 57.9375 10.7314C57.7725 10.9642 57.6497 11.235 57.5693 11.5439C57.4889 11.8486 57.4487 12.1681 57.4487 12.5024V12.6421ZM66.5962 6.25H70.1064V14.9844H72.3472V16H66.5962V14.9844H68.9321V7.27197H66.5962V6.25ZM80.7329 16C80.6864 15.9111 80.6483 15.8011 80.6187 15.6699C80.5933 15.5345 80.5742 15.3949 80.5615 15.251C80.443 15.3695 80.3097 15.4816 80.1616 15.5874C80.0177 15.6932 79.859 15.7863 79.6855 15.8667C79.5078 15.9471 79.3195 16.0106 79.1206 16.0571C78.9217 16.1037 78.7101 16.127 78.4858 16.127C78.1219 16.127 77.7918 16.0741 77.4956 15.9683C77.2036 15.8625 76.9561 15.7186 76.7529 15.5366C76.5456 15.3589 76.3848 15.1473 76.2705 14.9019C76.1605 14.6522 76.1055 14.3835 76.1055 14.0957C76.1055 13.7191 76.1795 13.389 76.3276 13.1055C76.48 12.8219 76.6937 12.585 76.9688 12.3945C77.2438 12.2083 77.5739 12.0687 77.959 11.9756C78.3483 11.8825 78.7821 11.8359 79.2603 11.8359H80.5425V11.2964C80.5425 11.089 80.5044 10.9028 80.4282 10.7378C80.3521 10.5728 80.2441 10.431 80.1045 10.3125C79.9648 10.1982 79.7935 10.1094 79.5903 10.0459C79.3914 9.98242 79.1672 9.95068 78.9175 9.95068C78.6847 9.95068 78.4753 9.98031 78.2891 10.0396C78.1071 10.0988 77.9526 10.1771 77.8257 10.2744C77.6987 10.3717 77.5993 10.4881 77.5273 10.6235C77.4596 10.7547 77.4258 10.8923 77.4258 11.0361H76.2451C76.2493 10.7865 76.3128 10.541 76.4355 10.2998C76.5625 10.0586 76.7445 9.84066 76.9814 9.646C77.2142 9.45557 77.4977 9.30111 77.832 9.18262C78.1706 9.06413 78.5535 9.00488 78.981 9.00488C79.3703 9.00488 79.7321 9.05355 80.0664 9.15088C80.4007 9.24398 80.6906 9.38574 80.936 9.57617C81.1772 9.77083 81.3677 10.012 81.5073 10.2998C81.647 10.5876 81.7168 10.924 81.7168 11.3091V14.502C81.7168 14.7305 81.738 14.9738 81.7803 15.2319C81.8226 15.4858 81.8818 15.708 81.958 15.8984V16H80.7329ZM78.6572 15.105C78.8857 15.105 79.0994 15.0754 79.2983 15.0161C79.4972 14.9569 79.6792 14.8786 79.8442 14.7812C80.005 14.6839 80.1447 14.5739 80.2632 14.4512C80.3817 14.3242 80.4748 14.193 80.5425 14.0576V12.6675H79.4507C79.0444 12.6675 78.689 12.7035 78.3843 12.7754C78.0838 12.8431 77.8447 12.9489 77.667 13.0928C77.54 13.1943 77.4427 13.3149 77.375 13.4546C77.3115 13.5942 77.2798 13.7529 77.2798 13.9307C77.2798 14.0999 77.3073 14.2565 77.3623 14.4004C77.4215 14.5443 77.5083 14.667 77.6226 14.7686C77.7368 14.8743 77.8807 14.9569 78.0542 15.0161C78.2277 15.0754 78.4287 15.105 78.6572 15.105ZM90.5278 9.00488C90.7437 9.00488 90.9679 9.01969 91.2007 9.04932C91.4377 9.07894 91.6154 9.11914 91.7339 9.16992L91.5752 10.3188C91.3467 10.2681 91.1287 10.2321 90.9214 10.2109C90.7183 10.1855 90.5046 10.1729 90.2803 10.1729C89.9925 10.1729 89.7323 10.2088 89.4995 10.2808C89.2668 10.3485 89.0636 10.45 88.8901 10.5854C88.7336 10.7039 88.596 10.8499 88.4775 11.0234C88.3633 11.1927 88.2681 11.3831 88.1919 11.5947V16H87.0112V9.13184H88.1284L88.1792 10.0522L88.1855 10.2236C88.4648 9.84701 88.7992 9.55078 89.1885 9.33496C89.582 9.11491 90.0285 9.00488 90.5278 9.00488Z" fill="#8C8A6E"/>
<rect x="105.5" y="2.5" width="98" height="17" rx="1.5" fill="#6A6853"/>
<rect x="105.5" y="2.5" width="98" height="17" rx="1.5" stroke="#6A6853"/>
<path d="M122.265 16V6.75781H125.014C125.395 6.76204 125.767 6.81283 126.131 6.91016C126.495 7.00326 126.819 7.14925 127.102 7.34814C127.386 7.54704 127.612 7.80094 127.781 8.10986C127.951 8.41878 128.033 8.78906 128.029 9.2207C128.025 9.46191 127.984 9.68197 127.908 9.88086C127.836 10.0798 127.737 10.2575 127.61 10.4141C127.479 10.5749 127.333 10.7103 127.172 10.8203C127.015 10.9303 126.825 11.034 126.601 11.1313V11.1504C126.833 11.2054 127.058 11.3049 127.273 11.4487C127.489 11.5926 127.667 11.7513 127.807 11.9248C127.955 12.1152 128.069 12.3289 128.149 12.5659C128.234 12.8029 128.276 13.0589 128.276 13.334C128.281 13.7656 128.198 14.1465 128.029 14.4766C127.86 14.8066 127.633 15.0817 127.35 15.3018C127.066 15.526 126.738 15.6974 126.366 15.8159C125.998 15.9344 125.617 15.9958 125.223 16H122.265ZM123.446 11.6772V15.0034H125.255C125.5 14.9992 125.733 14.959 125.953 14.8828C126.173 14.8024 126.368 14.6924 126.537 14.5527C126.706 14.4131 126.84 14.2417 126.937 14.0386C127.039 13.8354 127.089 13.6048 127.089 13.3467C127.094 13.0843 127.049 12.8516 126.956 12.6484C126.867 12.4453 126.742 12.2718 126.582 12.1279C126.421 11.9883 126.232 11.8804 126.017 11.8042C125.801 11.728 125.568 11.6857 125.318 11.6772H123.446ZM123.446 10.6997H125.083C125.304 10.6955 125.519 10.6616 125.731 10.5981C125.943 10.5304 126.131 10.4331 126.296 10.3062C126.461 10.1834 126.594 10.0311 126.696 9.84912C126.797 9.66715 126.848 9.45557 126.848 9.21436C126.848 8.95622 126.797 8.73617 126.696 8.5542C126.598 8.37223 126.467 8.22201 126.302 8.10352C126.133 7.98926 125.938 7.90462 125.718 7.84961C125.502 7.7946 125.28 7.76497 125.052 7.76074H123.446V10.6997ZM132.27 9.13184H135.78V14.9844H138.021V16H132.27V14.9844H134.605V10.1538H132.27V9.13184ZM134.453 7.3291C134.453 7.22754 134.468 7.13232 134.498 7.04346C134.531 6.95459 134.582 6.87842 134.65 6.81494C134.705 6.75993 134.775 6.71761 134.859 6.68799C134.948 6.65413 135.048 6.63721 135.158 6.63721C135.268 6.63721 135.365 6.65413 135.45 6.68799C135.534 6.71761 135.604 6.75993 135.659 6.81494C135.727 6.87419 135.778 6.94824 135.812 7.03711C135.845 7.12598 135.862 7.22331 135.862 7.3291C135.862 7.51953 135.803 7.67822 135.685 7.80518C135.566 7.93213 135.39 7.99561 135.158 7.99561C134.921 7.99561 134.743 7.93213 134.625 7.80518C134.51 7.67822 134.453 7.51953 134.453 7.3291ZM141.887 18.6406V9.13184H142.959L143.017 9.88086C143.11 9.76237 143.211 9.65658 143.321 9.56348C143.431 9.46615 143.55 9.38363 143.677 9.31592C143.854 9.21436 144.051 9.13818 144.267 9.0874C144.487 9.03239 144.722 9.00488 144.972 9.00488C145.412 9.00488 145.801 9.09163 146.14 9.26514C146.478 9.43864 146.762 9.67985 146.99 9.98877C147.219 10.2977 147.392 10.668 147.511 11.0996C147.629 11.527 147.688 11.9967 147.688 12.5088V12.6421C147.688 13.133 147.629 13.5921 147.511 14.0195C147.392 14.4427 147.219 14.8109 146.99 15.124C146.762 15.4372 146.478 15.6826 146.14 15.8604C145.805 16.0381 145.422 16.127 144.991 16.127C144.728 16.127 144.483 16.0994 144.254 16.0444C144.03 15.9894 143.827 15.9111 143.645 15.8096C143.535 15.7461 143.431 15.6763 143.334 15.6001C143.237 15.5197 143.146 15.4329 143.061 15.3398V18.6406H141.887ZM146.514 12.5088C146.514 12.1745 146.476 11.8571 146.4 11.5566C146.328 11.252 146.216 10.9832 146.063 10.7505C145.907 10.522 145.71 10.34 145.473 10.2046C145.236 10.0692 144.953 10.0015 144.623 10.0015C144.441 10.0015 144.271 10.0226 144.115 10.0649C143.962 10.1073 143.825 10.1686 143.702 10.249C143.567 10.3294 143.446 10.4289 143.34 10.5474C143.235 10.6659 143.141 10.797 143.061 10.9409V14.248C143.133 14.375 143.215 14.4935 143.309 14.6035C143.402 14.7135 143.507 14.8066 143.626 14.8828C143.761 14.9717 143.912 15.0415 144.077 15.0923C144.246 15.1431 144.432 15.1685 144.635 15.1685C144.961 15.1685 145.243 15.1007 145.479 14.9653C145.716 14.8257 145.911 14.6395 146.063 14.4067C146.216 14.174 146.328 13.9053 146.4 13.6006C146.476 13.2959 146.514 12.9764 146.514 12.6421V12.5088ZM151.371 12.5024C151.371 12.0073 151.443 11.5482 151.586 11.125C151.73 10.6976 151.938 10.3273 152.208 10.0142C152.475 9.70101 152.801 9.45557 153.186 9.27783C153.571 9.09587 154.005 9.00488 154.487 9.00488C154.974 9.00488 155.41 9.09587 155.795 9.27783C156.184 9.45557 156.514 9.70101 156.785 10.0142C157.052 10.3273 157.257 10.6976 157.401 11.125C157.545 11.5482 157.617 12.0073 157.617 12.5024V12.6421C157.617 13.1372 157.545 13.5964 157.401 14.0195C157.257 14.4427 157.052 14.8109 156.785 15.124C156.514 15.4372 156.186 15.6826 155.801 15.8604C155.416 16.0381 154.982 16.127 154.5 16.127C154.013 16.127 153.575 16.0381 153.186 15.8604C152.801 15.6826 152.475 15.4372 152.208 15.124C151.938 14.8109 151.73 14.4427 151.586 14.0195C151.443 13.5964 151.371 13.1372 151.371 12.6421V12.5024ZM152.545 12.6421C152.545 12.9806 152.585 13.3044 152.666 13.6133C152.746 13.918 152.869 14.1867 153.034 14.4194C153.194 14.6522 153.398 14.8363 153.643 14.9717C153.889 15.1071 154.174 15.1748 154.5 15.1748C154.822 15.1748 155.103 15.1071 155.344 14.9717C155.59 14.8363 155.795 14.6522 155.96 14.4194C156.121 14.1867 156.241 13.918 156.322 13.6133C156.402 13.3044 156.442 12.9806 156.442 12.6421V12.5024C156.442 12.1681 156.4 11.8486 156.315 11.5439C156.235 11.235 156.114 10.9642 155.954 10.7314C155.789 10.4987 155.583 10.3146 155.338 10.1792C155.097 10.0396 154.813 9.96973 154.487 9.96973C154.161 9.96973 153.878 10.0396 153.637 10.1792C153.396 10.3146 153.194 10.4987 153.034 10.7314C152.869 10.9642 152.746 11.235 152.666 11.5439C152.585 11.8486 152.545 12.1681 152.545 12.5024V12.6421ZM161.692 6.25H165.203V14.9844H167.443V16H161.692V14.9844H164.028V7.27197H161.692V6.25ZM175.829 16C175.783 15.9111 175.744 15.8011 175.715 15.6699C175.689 15.5345 175.67 15.3949 175.658 15.251C175.539 15.3695 175.406 15.4816 175.258 15.5874C175.114 15.6932 174.955 15.7863 174.782 15.8667C174.604 15.9471 174.416 16.0106 174.217 16.0571C174.018 16.1037 173.806 16.127 173.582 16.127C173.218 16.127 172.888 16.0741 172.592 15.9683C172.3 15.8625 172.052 15.7186 171.849 15.5366C171.642 15.3589 171.481 15.1473 171.367 14.9019C171.257 14.6522 171.202 14.3835 171.202 14.0957C171.202 13.7191 171.276 13.389 171.424 13.1055C171.576 12.8219 171.79 12.585 172.065 12.3945C172.34 12.2083 172.67 12.0687 173.055 11.9756C173.444 11.8825 173.878 11.8359 174.356 11.8359H175.639V11.2964C175.639 11.089 175.601 10.9028 175.524 10.7378C175.448 10.5728 175.34 10.431 175.201 10.3125C175.061 10.1982 174.89 10.1094 174.687 10.0459C174.488 9.98242 174.263 9.95068 174.014 9.95068C173.781 9.95068 173.571 9.98031 173.385 10.0396C173.203 10.0988 173.049 10.1771 172.922 10.2744C172.795 10.3717 172.695 10.4881 172.624 10.6235C172.556 10.7547 172.522 10.8923 172.522 11.0361H171.341C171.346 10.7865 171.409 10.541 171.532 10.2998C171.659 10.0586 171.841 9.84066 172.078 9.646C172.31 9.45557 172.594 9.30111 172.928 9.18262C173.267 9.06413 173.65 9.00488 174.077 9.00488C174.466 9.00488 174.828 9.05355 175.163 9.15088C175.497 9.24398 175.787 9.38574 176.032 9.57617C176.273 9.77083 176.464 10.012 176.604 10.2998C176.743 10.5876 176.813 10.924 176.813 11.3091V14.502C176.813 14.7305 176.834 14.9738 176.876 15.2319C176.919 15.4858 176.978 15.708 177.054 15.8984V16H175.829ZM173.753 15.105C173.982 15.105 174.196 15.0754 174.395 15.0161C174.593 14.9569 174.775 14.8786 174.94 14.7812C175.101 14.6839 175.241 14.5739 175.359 14.4512C175.478 14.3242 175.571 14.193 175.639 14.0576V12.6675H174.547C174.141 12.6675 173.785 12.7035 173.48 12.7754C173.18 12.8431 172.941 12.9489 172.763 13.0928C172.636 13.1943 172.539 13.3149 172.471 13.4546C172.408 13.5942 172.376 13.7529 172.376 13.9307C172.376 14.0999 172.403 14.2565 172.458 14.4004C172.518 14.5443 172.604 14.667 172.719 14.7686C172.833 14.8743 172.977 14.9569 173.15 15.0161C173.324 15.0754 173.525 15.105 173.753 15.105ZM185.624 9.00488C185.84 9.00488 186.064 9.01969 186.297 9.04932C186.534 9.07894 186.712 9.11914 186.83 9.16992L186.671 10.3188C186.443 10.2681 186.225 10.2321 186.018 10.2109C185.814 10.1855 185.601 10.1729 185.376 10.1729C185.089 10.1729 184.828 10.2088 184.596 10.2808C184.363 10.3485 184.16 10.45 183.986 10.5854C183.83 10.7039 183.692 10.8499 183.574 11.0234C183.459 11.1927 183.364 11.3831 183.288 11.5947V16H182.107V9.13184H183.225L183.275 10.0522L183.282 10.2236C183.561 9.84701 183.895 9.55078 184.285 9.33496C184.678 9.11491 185.125 9.00488 185.624 9.00488Z" fill="#CDCDCD"/>
</svg>
