<svg width="118" height="22" viewBox="0 0 118 22" fill="none" xmlns="http://www.w3.org/2000/svg">
<rect x="1" y="1" width="116" height="20" rx="3" fill="#1D1D1D"/>
<rect x="1" y="1" width="116" height="20" rx="3" stroke="#3E3E36" stroke-width="2"/>
<rect x="2.5" y="2.5" width="59" height="17" rx="1.5" fill="#3E3E36"/>
<rect x="2.5" y="2.5" width="59" height="17" rx="1.5" stroke="#3E3E36"/>
<path d="M20.6816 6.75781L22.186 11.3789L23.811 6.75781H25.271V16H24.1284V12.312L24.2236 8.45264L22.5161 13.4292H21.8433L20.2754 8.58594L20.3706 12.312V16H19.228V6.75781H20.6816ZM28.8706 12.5024C28.8706 12.0073 28.9425 11.5482 29.0864 11.125C29.2303 10.6976 29.4377 10.3273 29.7085 10.0142C29.9751 9.70101 30.3009 9.45557 30.686 9.27783C31.0711 9.09587 31.5049 9.00488 31.9873 9.00488C32.474 9.00488 32.9098 9.09587 33.2949 9.27783C33.6842 9.45557 34.0143 9.70101 34.2852 10.0142C34.5518 10.3273 34.757 10.6976 34.9009 11.125C35.0448 11.5482 35.1167 12.0073 35.1167 12.5024V12.6421C35.1167 13.1372 35.0448 13.5964 34.9009 14.0195C34.757 14.4427 34.5518 14.8109 34.2852 15.124C34.0143 15.4372 33.6864 15.6826 33.3013 15.8604C32.9162 16.0381 32.4824 16.127 32 16.127C31.5133 16.127 31.0754 16.0381 30.686 15.8604C30.3009 15.6826 29.9751 15.4372 29.7085 15.124C29.4377 14.8109 29.2303 14.4427 29.0864 14.0195C28.9425 13.5964 28.8706 13.1372 28.8706 12.6421V12.5024ZM30.0449 12.6421C30.0449 12.9806 30.0851 13.3044 30.1655 13.6133C30.2459 13.918 30.3687 14.1867 30.5337 14.4194C30.6945 14.6522 30.8976 14.8363 31.1431 14.9717C31.3885 15.1071 31.6742 15.1748 32 15.1748C32.3216 15.1748 32.603 15.1071 32.8442 14.9717C33.0897 14.8363 33.2949 14.6522 33.46 14.4194C33.6208 14.1867 33.7414 13.918 33.8218 13.6133C33.9022 13.3044 33.9424 12.9806 33.9424 12.6421V12.5024C33.9424 12.1681 33.9001 11.8486 33.8154 11.5439C33.735 11.235 33.6144 10.9642 33.4536 10.7314C33.2886 10.4987 33.0833 10.3146 32.8379 10.1792C32.5967 10.0396 32.3132 9.96973 31.9873 9.96973C31.6615 9.96973 31.3779 10.0396 31.1367 10.1792C30.8955 10.3146 30.6945 10.4987 30.5337 10.7314C30.3687 10.9642 30.2459 11.235 30.1655 11.5439C30.0851 11.8486 30.0449 12.1681 30.0449 12.5024V12.6421ZM39.5479 9.13184L39.5796 9.7793C39.7192 9.53809 39.9012 9.34977 40.1255 9.21436C40.354 9.07894 40.6291 9.00911 40.9507 9.00488C41.1326 9.00488 41.2956 9.02604 41.4395 9.06836C41.5876 9.10645 41.7166 9.16357 41.8267 9.23975C41.9071 9.29899 41.979 9.37093 42.0425 9.45557C42.1102 9.5402 42.1673 9.63542 42.2139 9.74121C42.2731 9.64388 42.3429 9.5529 42.4233 9.46826C42.5037 9.38363 42.5905 9.30957 42.6836 9.24609C42.8021 9.17415 42.9333 9.11702 43.0771 9.07471C43.2253 9.03239 43.3861 9.00911 43.5596 9.00488C43.7965 9.00488 44.0103 9.04085 44.2007 9.11279C44.3911 9.1805 44.5519 9.28206 44.6831 9.41748C44.827 9.56982 44.937 9.76872 45.0132 10.0142C45.0894 10.2554 45.1274 10.541 45.1274 10.8711V16H44.0103V10.8584C44.0103 10.7145 43.9933 10.5876 43.9595 10.4775C43.9256 10.3675 43.877 10.2765 43.8135 10.2046C43.7458 10.1369 43.6611 10.0861 43.5596 10.0522C43.4622 10.0184 43.348 10.0015 43.2168 10.0015C43.0771 10.0015 42.9565 10.0205 42.855 10.0586C42.7534 10.0967 42.6688 10.1475 42.6011 10.2109C42.5334 10.2786 42.4805 10.3569 42.4424 10.4458C42.4043 10.5304 42.3789 10.6257 42.3662 10.7314C42.3662 10.7526 42.3662 10.7738 42.3662 10.7949C42.3662 10.8118 42.3662 10.833 42.3662 10.8584V16H41.249V10.8521C41.249 10.7082 41.2321 10.5812 41.1982 10.4712C41.1686 10.3612 41.12 10.2702 41.0522 10.1982C40.9888 10.1305 40.9084 10.0819 40.811 10.0522C40.7179 10.0184 40.6079 10.0015 40.481 10.0015C40.3413 10.0015 40.2186 10.0184 40.1128 10.0522C40.0112 10.0819 39.9245 10.1263 39.8525 10.1855C39.7975 10.2321 39.7489 10.285 39.7065 10.3442C39.6685 10.4035 39.6367 10.467 39.6113 10.5347V16H38.4941V9.13184H39.5479Z" fill="#CDCDCD"/>
<path opacity="0.5" d="M76.7197 15.0034H81.2393V16H75.5454V6.75781H76.7197V15.0034ZM89.7139 16C89.6673 15.9111 89.6292 15.8011 89.5996 15.6699C89.5742 15.5345 89.5552 15.3949 89.5425 15.251C89.424 15.3695 89.2907 15.4816 89.1426 15.5874C88.9987 15.6932 88.84 15.7863 88.6665 15.8667C88.4888 15.9471 88.3005 16.0106 88.1016 16.0571C87.9027 16.1037 87.6911 16.127 87.4668 16.127C87.1029 16.127 86.7728 16.0741 86.4766 15.9683C86.1846 15.8625 85.937 15.7186 85.7339 15.5366C85.5265 15.3589 85.3657 15.1473 85.2515 14.9019C85.1414 14.6522 85.0864 14.3835 85.0864 14.0957C85.0864 13.7191 85.1605 13.389 85.3086 13.1055C85.4609 12.8219 85.6746 12.585 85.9497 12.3945C86.2248 12.2083 86.5549 12.0687 86.9399 11.9756C87.3293 11.8825 87.763 11.8359 88.2412 11.8359H89.5234V11.2964C89.5234 11.089 89.4854 10.9028 89.4092 10.7378C89.333 10.5728 89.2251 10.431 89.0854 10.3125C88.9458 10.1982 88.7744 10.1094 88.5713 10.0459C88.3724 9.98242 88.1481 9.95068 87.8984 9.95068C87.6657 9.95068 87.4562 9.98031 87.27 10.0396C87.0881 10.0988 86.9336 10.1771 86.8066 10.2744C86.6797 10.3717 86.5802 10.4881 86.5083 10.6235C86.4406 10.7547 86.4067 10.8923 86.4067 11.0361H85.2261C85.2303 10.7865 85.2938 10.541 85.4165 10.2998C85.5435 10.0586 85.7254 9.84066 85.9624 9.646C86.1951 9.45557 86.4787 9.30111 86.813 9.18262C87.1515 9.06413 87.5345 9.00488 87.9619 9.00488C88.3512 9.00488 88.7131 9.05355 89.0474 9.15088C89.3817 9.24398 89.6715 9.38574 89.917 9.57617C90.1582 9.77083 90.3486 10.012 90.4883 10.2998C90.6279 10.5876 90.6978 10.924 90.6978 11.3091V14.502C90.6978 14.7305 90.7189 14.9738 90.7612 15.2319C90.8035 15.4858 90.8628 15.708 90.939 15.8984V16H89.7139ZM87.6382 15.105C87.8667 15.105 88.0804 15.0754 88.2793 15.0161C88.4782 14.9569 88.6602 14.8786 88.8252 14.7812C88.986 14.6839 89.1257 14.5739 89.2441 14.4512C89.3626 14.3242 89.4557 14.193 89.5234 14.0576V12.6675H88.4316C88.0254 12.6675 87.6699 12.7035 87.3652 12.7754C87.0648 12.8431 86.8257 12.9489 86.6479 13.0928C86.521 13.1943 86.4237 13.3149 86.356 13.4546C86.2925 13.5942 86.2607 13.7529 86.2607 13.9307C86.2607 14.0999 86.2882 14.2565 86.3433 14.4004C86.4025 14.5443 86.4893 14.667 86.6035 14.7686C86.7178 14.8743 86.8617 14.9569 87.0352 15.0161C87.2087 15.0754 87.4097 15.105 87.6382 15.105ZM97.7886 7.46875V9.13184H100.404V10.0396H97.7886V13.772C97.7886 14.0386 97.8224 14.2586 97.8901 14.4321C97.9578 14.6056 98.0509 14.7432 98.1694 14.8447C98.2879 14.9505 98.4233 15.0246 98.5757 15.0669C98.7323 15.1092 98.8973 15.1304 99.0708 15.1304C99.1978 15.1304 99.3289 15.124 99.4644 15.1113C99.5998 15.0944 99.7331 15.0754 99.8643 15.0542C99.9912 15.033 100.11 15.0119 100.22 14.9907C100.334 14.9653 100.427 14.9442 100.499 14.9272L100.664 15.7588C100.567 15.818 100.448 15.8709 100.309 15.9175C100.169 15.9598 100.017 15.9958 99.8516 16.0254C99.6865 16.0592 99.5109 16.0846 99.3247 16.1016C99.1427 16.1185 98.9608 16.127 98.7788 16.127C98.4741 16.127 98.1885 16.0846 97.9219 16C97.6595 15.9111 97.431 15.7715 97.2363 15.5811C97.0417 15.3949 96.8872 15.1536 96.7729 14.8574C96.6629 14.557 96.6079 14.1951 96.6079 13.772V10.0396H94.8052V9.13184H96.6079V7.46875H97.7886Z" fill="#8C8A6E"/>
</svg>
