<svg width="118" height="22" viewBox="0 0 118 22" fill="none" xmlns="http://www.w3.org/2000/svg">
<rect x="1" y="1" width="116" height="20" rx="3" fill="#1D1D1D"/>
<rect x="1" y="1" width="116" height="20" rx="3" stroke="#3E3E36" stroke-width="2"/>
<path opacity="0.65" d="M18.6816 6.75781L20.186 11.3789L21.811 6.75781H23.271V16H22.1284V12.312L22.2236 8.45264L20.5161 13.4292H19.8433L18.2754 8.58594L18.3706 12.312V16H17.228V6.75781H18.6816ZM26.8706 12.5024C26.8706 12.0073 26.9425 11.5482 27.0864 11.125C27.2303 10.6976 27.4377 10.3273 27.7085 10.0142C27.9751 9.70101 28.3009 9.45557 28.686 9.27783C29.0711 9.09587 29.5049 9.00488 29.9873 9.00488C30.474 9.00488 30.9098 9.09587 31.2949 9.27783C31.6842 9.45557 32.0143 9.70101 32.2852 10.0142C32.5518 10.3273 32.757 10.6976 32.9009 11.125C33.0448 11.5482 33.1167 12.0073 33.1167 12.5024V12.6421C33.1167 13.1372 33.0448 13.5964 32.9009 14.0195C32.757 14.4427 32.5518 14.8109 32.2852 15.124C32.0143 15.4372 31.6864 15.6826 31.3013 15.8604C30.9162 16.0381 30.4824 16.127 30 16.127C29.5133 16.127 29.0754 16.0381 28.686 15.8604C28.3009 15.6826 27.9751 15.4372 27.7085 15.124C27.4377 14.8109 27.2303 14.4427 27.0864 14.0195C26.9425 13.5964 26.8706 13.1372 26.8706 12.6421V12.5024ZM28.0449 12.6421C28.0449 12.9806 28.0851 13.3044 28.1655 13.6133C28.2459 13.918 28.3687 14.1867 28.5337 14.4194C28.6945 14.6522 28.8976 14.8363 29.1431 14.9717C29.3885 15.1071 29.6742 15.1748 30 15.1748C30.3216 15.1748 30.603 15.1071 30.8442 14.9717C31.0897 14.8363 31.2949 14.6522 31.46 14.4194C31.6208 14.1867 31.7414 13.918 31.8218 13.6133C31.9022 13.3044 31.9424 12.9806 31.9424 12.6421V12.5024C31.9424 12.1681 31.9001 11.8486 31.8154 11.5439C31.735 11.235 31.6144 10.9642 31.4536 10.7314C31.2886 10.4987 31.0833 10.3146 30.8379 10.1792C30.5967 10.0396 30.3132 9.96973 29.9873 9.96973C29.6615 9.96973 29.3779 10.0396 29.1367 10.1792C28.8955 10.3146 28.6945 10.4987 28.5337 10.7314C28.3687 10.9642 28.2459 11.235 28.1655 11.5439C28.0851 11.8486 28.0449 12.1681 28.0449 12.5024V12.6421ZM37.5479 9.13184L37.5796 9.7793C37.7192 9.53809 37.9012 9.34977 38.1255 9.21436C38.354 9.07894 38.6291 9.00911 38.9507 9.00488C39.1326 9.00488 39.2956 9.02604 39.4395 9.06836C39.5876 9.10645 39.7166 9.16357 39.8267 9.23975C39.9071 9.29899 39.979 9.37093 40.0425 9.45557C40.1102 9.5402 40.1673 9.63542 40.2139 9.74121C40.2731 9.64388 40.3429 9.5529 40.4233 9.46826C40.5037 9.38363 40.5905 9.30957 40.6836 9.24609C40.8021 9.17415 40.9333 9.11702 41.0771 9.07471C41.2253 9.03239 41.3861 9.00911 41.5596 9.00488C41.7965 9.00488 42.0103 9.04085 42.2007 9.11279C42.3911 9.1805 42.5519 9.28206 42.6831 9.41748C42.827 9.56982 42.937 9.76872 43.0132 10.0142C43.0894 10.2554 43.1274 10.541 43.1274 10.8711V16H42.0103V10.8584C42.0103 10.7145 41.9933 10.5876 41.9595 10.4775C41.9256 10.3675 41.877 10.2765 41.8135 10.2046C41.7458 10.1369 41.6611 10.0861 41.5596 10.0522C41.4622 10.0184 41.348 10.0015 41.2168 10.0015C41.0771 10.0015 40.9565 10.0205 40.855 10.0586C40.7534 10.0967 40.6688 10.1475 40.6011 10.2109C40.5334 10.2786 40.4805 10.3569 40.4424 10.4458C40.4043 10.5304 40.3789 10.6257 40.3662 10.7314C40.3662 10.7526 40.3662 10.7738 40.3662 10.7949C40.3662 10.8118 40.3662 10.833 40.3662 10.8584V16H39.249V10.8521C39.249 10.7082 39.2321 10.5812 39.1982 10.4712C39.1686 10.3612 39.12 10.2702 39.0522 10.1982C38.9888 10.1305 38.9084 10.0819 38.811 10.0522C38.7179 10.0184 38.6079 10.0015 38.481 10.0015C38.3413 10.0015 38.2186 10.0184 38.1128 10.0522C38.0112 10.0819 37.9245 10.1263 37.8525 10.1855C37.7975 10.2321 37.7489 10.285 37.7065 10.3442C37.6685 10.4035 37.6367 10.467 37.6113 10.5347V16H36.4941V9.13184H37.5479Z" fill="#8C8A6E"/>
<rect x="56.5" y="2.5" width="59" height="17" rx="1.5" fill="#3E3E36"/>
<rect x="56.5" y="2.5" width="59" height="17" rx="1.5" stroke="#3E3E36"/>
<path d="M74.7197 15.0034H79.2393V16H73.5454V6.75781H74.7197V15.0034ZM87.7139 16C87.6673 15.9111 87.6292 15.8011 87.5996 15.6699C87.5742 15.5345 87.5552 15.3949 87.5425 15.251C87.424 15.3695 87.2907 15.4816 87.1426 15.5874C86.9987 15.6932 86.84 15.7863 86.6665 15.8667C86.4888 15.9471 86.3005 16.0106 86.1016 16.0571C85.9027 16.1037 85.6911 16.127 85.4668 16.127C85.1029 16.127 84.7728 16.0741 84.4766 15.9683C84.1846 15.8625 83.937 15.7186 83.7339 15.5366C83.5265 15.3589 83.3657 15.1473 83.2515 14.9019C83.1414 14.6522 83.0864 14.3835 83.0864 14.0957C83.0864 13.7191 83.1605 13.389 83.3086 13.1055C83.4609 12.8219 83.6746 12.585 83.9497 12.3945C84.2248 12.2083 84.5549 12.0687 84.9399 11.9756C85.3293 11.8825 85.763 11.8359 86.2412 11.8359H87.5234V11.2964C87.5234 11.089 87.4854 10.9028 87.4092 10.7378C87.333 10.5728 87.2251 10.431 87.0854 10.3125C86.9458 10.1982 86.7744 10.1094 86.5713 10.0459C86.3724 9.98242 86.1481 9.95068 85.8984 9.95068C85.6657 9.95068 85.4562 9.98031 85.27 10.0396C85.0881 10.0988 84.9336 10.1771 84.8066 10.2744C84.6797 10.3717 84.5802 10.4881 84.5083 10.6235C84.4406 10.7547 84.4067 10.8923 84.4067 11.0361H83.2261C83.2303 10.7865 83.2938 10.541 83.4165 10.2998C83.5435 10.0586 83.7254 9.84066 83.9624 9.646C84.1951 9.45557 84.4787 9.30111 84.813 9.18262C85.1515 9.06413 85.5345 9.00488 85.9619 9.00488C86.3512 9.00488 86.7131 9.05355 87.0474 9.15088C87.3817 9.24398 87.6715 9.38574 87.917 9.57617C88.1582 9.77083 88.3486 10.012 88.4883 10.2998C88.6279 10.5876 88.6978 10.924 88.6978 11.3091V14.502C88.6978 14.7305 88.7189 14.9738 88.7612 15.2319C88.8035 15.4858 88.8628 15.708 88.939 15.8984V16H87.7139ZM85.6382 15.105C85.8667 15.105 86.0804 15.0754 86.2793 15.0161C86.4782 14.9569 86.6602 14.8786 86.8252 14.7812C86.986 14.6839 87.1257 14.5739 87.2441 14.4512C87.3626 14.3242 87.4557 14.193 87.5234 14.0576V12.6675H86.4316C86.0254 12.6675 85.6699 12.7035 85.3652 12.7754C85.0648 12.8431 84.8257 12.9489 84.6479 13.0928C84.521 13.1943 84.4237 13.3149 84.356 13.4546C84.2925 13.5942 84.2607 13.7529 84.2607 13.9307C84.2607 14.0999 84.2882 14.2565 84.3433 14.4004C84.4025 14.5443 84.4893 14.667 84.6035 14.7686C84.7178 14.8743 84.8617 14.9569 85.0352 15.0161C85.2087 15.0754 85.4097 15.105 85.6382 15.105ZM95.7886 7.46875V9.13184H98.4038V10.0396H95.7886V13.772C95.7886 14.0386 95.8224 14.2586 95.8901 14.4321C95.9578 14.6056 96.0509 14.7432 96.1694 14.8447C96.2879 14.9505 96.4233 15.0246 96.5757 15.0669C96.7323 15.1092 96.8973 15.1304 97.0708 15.1304C97.1978 15.1304 97.3289 15.124 97.4644 15.1113C97.5998 15.0944 97.7331 15.0754 97.8643 15.0542C97.9912 15.033 98.1097 15.0119 98.2197 14.9907C98.334 14.9653 98.4271 14.9442 98.499 14.9272L98.6641 15.7588C98.5667 15.818 98.4482 15.8709 98.3086 15.9175C98.1689 15.9598 98.0166 15.9958 97.8516 16.0254C97.6865 16.0592 97.5109 16.0846 97.3247 16.1016C97.1427 16.1185 96.9608 16.127 96.7788 16.127C96.4741 16.127 96.1885 16.0846 95.9219 16C95.6595 15.9111 95.431 15.7715 95.2363 15.5811C95.0417 15.3949 94.8872 15.1536 94.7729 14.8574C94.6629 14.557 94.6079 14.1951 94.6079 13.772V10.0396H92.8052V9.13184H94.6079V7.46875H95.7886Z" fill="#CDCDCD"/>
</svg>
