<svg width="254" height="22" viewBox="0 0 254 22" fill="none" xmlns="http://www.w3.org/2000/svg">
<rect x="1" y="1" width="252" height="20" rx="3" fill="#1D1D1D"/>
<rect x="1" y="1" width="252" height="20" rx="3" stroke="#3E3E36" stroke-width="2"/>
<rect x="2.5" y="2.5" width="124" height="17" rx="1.5" fill="#3E3E36"/>
<rect x="2.5" y="2.5" width="124" height="17" rx="1.5" stroke="#3E3E36"/>
<path d="M32.2109 13.6641C32.2109 13.3805 32.1453 13.1414 32.0142 12.9468C31.8872 12.7521 31.7222 12.5871 31.519 12.4517C31.3159 12.3205 31.0916 12.2104 30.8462 12.1216C30.605 12.0327 30.3722 11.9523 30.1479 11.8804C29.8221 11.7746 29.4899 11.6476 29.1514 11.4995C28.8171 11.3472 28.5124 11.1652 28.2373 10.9536C27.958 10.7378 27.7295 10.4839 27.5518 10.1919C27.3783 9.89567 27.2915 9.54867 27.2915 9.15088C27.2915 8.75309 27.3783 8.39762 27.5518 8.08447C27.7295 7.77132 27.9601 7.50684 28.2437 7.29102C28.5272 7.0752 28.8488 6.91227 29.2085 6.80225C29.5682 6.68799 29.93 6.63086 30.2939 6.63086C30.696 6.63086 31.0832 6.69857 31.4556 6.83398C31.828 6.96517 32.158 7.15137 32.4458 7.39258C32.7336 7.63379 32.9642 7.92578 33.1377 8.26855C33.3112 8.61133 33.4022 8.9943 33.4106 9.41748H32.2046C32.1707 9.15088 32.1051 8.90967 32.0078 8.69385C31.9105 8.4738 31.7814 8.28548 31.6206 8.12891C31.4598 7.97233 31.2673 7.85173 31.043 7.76709C30.8229 7.67822 30.5732 7.63379 30.2939 7.63379C30.0697 7.63379 29.8496 7.66553 29.6338 7.729C29.4222 7.79248 29.2339 7.8877 29.0688 8.01465C28.8996 8.1416 28.7642 8.29818 28.6626 8.48438C28.5653 8.67057 28.5166 8.88639 28.5166 9.13184C28.5208 9.39844 28.5885 9.62484 28.7197 9.81104C28.8509 9.993 29.0181 10.1475 29.2212 10.2744C29.4201 10.4014 29.6359 10.5072 29.8687 10.5918C30.1056 10.6764 30.3278 10.7505 30.5352 10.814C30.8779 10.9198 31.2207 11.0488 31.5635 11.2012C31.9062 11.3493 32.2194 11.5397 32.5029 11.7725C32.7822 11.9883 33.0065 12.2528 33.1758 12.5659C33.3493 12.8791 33.436 13.2409 33.436 13.6514C33.436 14.0661 33.3429 14.4279 33.1567 14.7368C32.9748 15.0457 32.7378 15.3018 32.4458 15.5049C32.1538 15.7122 31.8237 15.8688 31.4556 15.9746C31.0874 16.0762 30.7192 16.127 30.3511 16.127C29.911 16.127 29.4772 16.0529 29.0498 15.9048C28.6266 15.7567 28.2585 15.543 27.9453 15.2637C27.666 15.0225 27.4438 14.741 27.2788 14.4194C27.118 14.0936 27.0312 13.7318 27.0186 13.334H28.2183C28.2563 13.6217 28.3346 13.8778 28.4531 14.1021C28.5716 14.3221 28.724 14.5083 28.9102 14.6606C29.0964 14.8172 29.3101 14.9357 29.5513 15.0161C29.7967 15.0923 30.0633 15.1304 30.3511 15.1304C30.5796 15.1304 30.8039 15.1029 31.0239 15.0479C31.2482 14.9886 31.4471 14.8976 31.6206 14.7749C31.7941 14.6564 31.9359 14.5062 32.0459 14.3242C32.1559 14.138 32.2109 13.918 32.2109 13.6641ZM39.9619 7.46875V9.13184H42.5771V10.0396H39.9619V13.772C39.9619 14.0386 39.9958 14.2586 40.0635 14.4321C40.1312 14.6056 40.2243 14.7432 40.3428 14.8447C40.4613 14.9505 40.5967 15.0246 40.749 15.0669C40.9056 15.1092 41.0706 15.1304 41.2441 15.1304C41.3711 15.1304 41.5023 15.124 41.6377 15.1113C41.7731 15.0944 41.9064 15.0754 42.0376 15.0542C42.1646 15.033 42.283 15.0119 42.3931 14.9907C42.5073 14.9653 42.6004 14.9442 42.6724 14.9272L42.8374 15.7588C42.7401 15.818 42.6216 15.8709 42.4819 15.9175C42.3423 15.9598 42.1899 15.9958 42.0249 16.0254C41.8599 16.0592 41.6842 16.0846 41.498 16.1016C41.3161 16.1185 41.1341 16.127 40.9521 16.127C40.6475 16.127 40.3618 16.0846 40.0952 16C39.8328 15.9111 39.6043 15.7715 39.4097 15.5811C39.215 15.3949 39.0605 15.1536 38.9463 14.8574C38.8363 14.557 38.7812 14.1951 38.7812 13.772V10.0396H36.9785V9.13184H38.7812V7.46875H39.9619ZM51.5024 16C51.4559 15.9111 51.4178 15.8011 51.3882 15.6699C51.3628 15.5345 51.3438 15.3949 51.3311 15.251C51.2126 15.3695 51.0793 15.4816 50.9312 15.5874C50.7873 15.6932 50.6286 15.7863 50.4551 15.8667C50.2773 15.9471 50.089 16.0106 49.8901 16.0571C49.6912 16.1037 49.4797 16.127 49.2554 16.127C48.8914 16.127 48.5614 16.0741 48.2651 15.9683C47.9731 15.8625 47.7256 15.7186 47.5225 15.5366C47.3151 15.3589 47.1543 15.1473 47.04 14.9019C46.93 14.6522 46.875 14.3835 46.875 14.0957C46.875 13.7191 46.9491 13.389 47.0972 13.1055C47.2495 12.8219 47.4632 12.585 47.7383 12.3945C48.0133 12.2083 48.3434 12.0687 48.7285 11.9756C49.1178 11.8825 49.5516 11.8359 50.0298 11.8359H51.312V11.2964C51.312 11.089 51.2739 10.9028 51.1978 10.7378C51.1216 10.5728 51.0137 10.431 50.874 10.3125C50.7344 10.1982 50.563 10.1094 50.3599 10.0459C50.161 9.98242 49.9367 9.95068 49.687 9.95068C49.4543 9.95068 49.2448 9.98031 49.0586 10.0396C48.8766 10.0988 48.7222 10.1771 48.5952 10.2744C48.4683 10.3717 48.3688 10.4881 48.2969 10.6235C48.2292 10.7547 48.1953 10.8923 48.1953 11.0361H47.0146C47.0189 10.7865 47.0824 10.541 47.2051 10.2998C47.332 10.0586 47.514 9.84066 47.751 9.646C47.9837 9.45557 48.2673 9.30111 48.6016 9.18262C48.9401 9.06413 49.3231 9.00488 49.7505 9.00488C50.1398 9.00488 50.5016 9.05355 50.8359 9.15088C51.1702 9.24398 51.4601 9.38574 51.7056 9.57617C51.9468 9.77083 52.1372 10.012 52.2769 10.2998C52.4165 10.5876 52.4863 10.924 52.4863 11.3091V14.502C52.4863 14.7305 52.5075 14.9738 52.5498 15.2319C52.5921 15.4858 52.6514 15.708 52.7275 15.8984V16H51.5024ZM49.4268 15.105C49.6553 15.105 49.869 15.0754 50.0679 15.0161C50.2668 14.9569 50.4487 14.8786 50.6138 14.7812C50.7746 14.6839 50.9142 14.5739 51.0327 14.4512C51.1512 14.3242 51.2443 14.193 51.312 14.0576V12.6675H50.2202C49.814 12.6675 49.4585 12.7035 49.1538 12.7754C48.8534 12.8431 48.6143 12.9489 48.4365 13.0928C48.3096 13.1943 48.2122 13.3149 48.1445 13.4546C48.0811 13.5942 48.0493 13.7529 48.0493 13.9307C48.0493 14.0999 48.0768 14.2565 48.1318 14.4004C48.1911 14.5443 48.2778 14.667 48.3921 14.7686C48.5063 14.8743 48.6502 14.9569 48.8237 15.0161C48.9972 15.0754 49.1982 15.105 49.4268 15.105ZM56.7969 16V9.13184H57.8506L57.9331 10.1475C58.0347 10.0036 58.1447 9.8724 58.2632 9.75391C58.3859 9.63118 58.515 9.52539 58.6504 9.43652C58.8535 9.30111 59.0736 9.19743 59.3105 9.12549C59.5518 9.04932 59.8057 9.00911 60.0723 9.00488C60.432 9.00488 60.7578 9.05566 61.0498 9.15723C61.346 9.25879 61.5978 9.41748 61.8052 9.6333C62.0125 9.84912 62.1712 10.1242 62.2812 10.4585C62.3955 10.7886 62.4526 11.1821 62.4526 11.6392V16H61.2783V11.6646C61.2783 11.3599 61.2445 11.1017 61.1768 10.8901C61.109 10.6785 61.0096 10.5072 60.8784 10.376C60.743 10.2448 60.578 10.1496 60.3833 10.0903C60.1929 10.0311 59.9728 10.0015 59.7231 10.0015C59.5073 10.0015 59.3063 10.0332 59.1201 10.0967C58.9339 10.1559 58.7625 10.2384 58.606 10.3442C58.479 10.4373 58.3605 10.5452 58.2505 10.668C58.1447 10.7907 58.0516 10.9261 57.9712 11.0742V16H56.7969ZM66.3823 12.5088C66.3823 11.9967 66.4458 11.527 66.5728 11.0996C66.7039 10.668 66.8901 10.2977 67.1313 9.98877C67.3683 9.67985 67.6561 9.43864 67.9946 9.26514C68.3332 9.09163 68.7119 9.00488 69.1309 9.00488C69.5413 9.00488 69.8989 9.07471 70.2036 9.21436C70.5125 9.34977 70.7791 9.54867 71.0034 9.81104V6.25H72.1777V16H71.0986L71.0479 15.2764C70.8193 15.5557 70.5464 15.7673 70.229 15.9111C69.9116 16.055 69.5413 16.127 69.1182 16.127C68.7035 16.127 68.3268 16.0381 67.9883 15.8604C67.654 15.6826 67.3683 15.4372 67.1313 15.124C66.8944 14.8109 66.7103 14.4427 66.5791 14.0195C66.4479 13.5921 66.3823 13.133 66.3823 12.6421V12.5088ZM67.5566 12.6421C67.5566 12.9764 67.5926 13.2938 67.6646 13.5942C67.7365 13.8947 67.8486 14.1592 68.001 14.3877C68.1491 14.6162 68.3395 14.7982 68.5723 14.9336C68.805 15.0648 69.0843 15.1304 69.4102 15.1304C69.8037 15.1304 70.1296 15.0415 70.3877 14.8638C70.6458 14.686 70.8511 14.4469 71.0034 14.1465V10.96C70.8511 10.6807 70.6458 10.4521 70.3877 10.2744C70.1296 10.0924 69.8079 10.0015 69.4229 10.0015C69.0928 10.0015 68.8092 10.0692 68.5723 10.2046C68.3395 10.34 68.1491 10.522 68.001 10.7505C67.8486 10.9832 67.7365 11.252 67.6646 11.5566C67.5926 11.8571 67.5566 12.1745 67.5566 12.5088V12.6421ZM80.9253 16C80.8787 15.9111 80.8407 15.8011 80.811 15.6699C80.7856 15.5345 80.7666 15.3949 80.7539 15.251C80.6354 15.3695 80.5021 15.4816 80.354 15.5874C80.2101 15.6932 80.0514 15.7863 79.8779 15.8667C79.7002 15.9471 79.5119 16.0106 79.313 16.0571C79.1141 16.1037 78.9025 16.127 78.6782 16.127C78.3143 16.127 77.9842 16.0741 77.688 15.9683C77.396 15.8625 77.1484 15.7186 76.9453 15.5366C76.738 15.3589 76.5771 15.1473 76.4629 14.9019C76.3529 14.6522 76.2979 14.3835 76.2979 14.0957C76.2979 13.7191 76.3719 13.389 76.52 13.1055C76.6724 12.8219 76.8861 12.585 77.1611 12.3945C77.4362 12.2083 77.7663 12.0687 78.1514 11.9756C78.5407 11.8825 78.9744 11.8359 79.4526 11.8359H80.7349V11.2964C80.7349 11.089 80.6968 10.9028 80.6206 10.7378C80.5444 10.5728 80.4365 10.431 80.2969 10.3125C80.1572 10.1982 79.9858 10.1094 79.7827 10.0459C79.5838 9.98242 79.3595 9.95068 79.1099 9.95068C78.8771 9.95068 78.6676 9.98031 78.4814 10.0396C78.2995 10.0988 78.145 10.1771 78.0181 10.2744C77.8911 10.3717 77.7917 10.4881 77.7197 10.6235C77.652 10.7547 77.6182 10.8923 77.6182 11.0361H76.4375C76.4417 10.7865 76.5052 10.541 76.6279 10.2998C76.7549 10.0586 76.9368 9.84066 77.1738 9.646C77.4066 9.45557 77.6901 9.30111 78.0244 9.18262C78.363 9.06413 78.7459 9.00488 79.1733 9.00488C79.5627 9.00488 79.9245 9.05355 80.2588 9.15088C80.5931 9.24398 80.883 9.38574 81.1284 9.57617C81.3696 9.77083 81.5601 10.012 81.6997 10.2998C81.8394 10.5876 81.9092 10.924 81.9092 11.3091V14.502C81.9092 14.7305 81.9303 14.9738 81.9727 15.2319C82.015 15.4858 82.0742 15.708 82.1504 15.8984V16H80.9253ZM78.8496 15.105C79.0781 15.105 79.2918 15.0754 79.4907 15.0161C79.6896 14.9569 79.8716 14.8786 80.0366 14.7812C80.1974 14.6839 80.3371 14.5739 80.4556 14.4512C80.5741 14.3242 80.6672 14.193 80.7349 14.0576V12.6675H79.6431C79.2368 12.6675 78.8813 12.7035 78.5767 12.7754C78.2762 12.8431 78.0371 12.9489 77.8594 13.0928C77.7324 13.1943 77.6351 13.3149 77.5674 13.4546C77.5039 13.5942 77.4722 13.7529 77.4722 13.9307C77.4722 14.0999 77.4997 14.2565 77.5547 14.4004C77.6139 14.5443 77.7007 14.667 77.8149 14.7686C77.9292 14.8743 78.0731 14.9569 78.2466 15.0161C78.4201 15.0754 78.6211 15.105 78.8496 15.105ZM90.7202 9.00488C90.936 9.00488 91.1603 9.01969 91.3931 9.04932C91.63 9.07894 91.8078 9.11914 91.9263 9.16992L91.7676 10.3188C91.5391 10.2681 91.3211 10.2321 91.1138 10.2109C90.9106 10.1855 90.6969 10.1729 90.4727 10.1729C90.1849 10.1729 89.9246 10.2088 89.6919 10.2808C89.4591 10.3485 89.256 10.45 89.0825 10.5854C88.9259 10.7039 88.7884 10.8499 88.6699 11.0234C88.5557 11.1927 88.4604 11.3831 88.3843 11.5947V16H87.2036V9.13184H88.3208L88.3716 10.0522L88.3779 10.2236C88.6572 9.84701 88.9915 9.55078 89.3809 9.33496C89.7744 9.11491 90.2209 9.00488 90.7202 9.00488ZM95.8052 12.5088C95.8052 11.9967 95.8687 11.527 95.9956 11.0996C96.1268 10.668 96.313 10.2977 96.5542 9.98877C96.7912 9.67985 97.0789 9.43864 97.4175 9.26514C97.756 9.09163 98.1348 9.00488 98.5537 9.00488C98.9642 9.00488 99.3218 9.07471 99.6265 9.21436C99.9354 9.34977 100.202 9.54867 100.426 9.81104V6.25H101.601V16H100.521L100.471 15.2764C100.242 15.5557 99.9692 15.7673 99.6519 15.9111C99.3345 16.055 98.9642 16.127 98.541 16.127C98.1263 16.127 97.7497 16.0381 97.4111 15.8604C97.0768 15.6826 96.7912 15.4372 96.5542 15.124C96.3172 14.8109 96.1331 14.4427 96.002 14.0195C95.8708 13.5921 95.8052 13.133 95.8052 12.6421V12.5088ZM96.9795 12.6421C96.9795 12.9764 97.0155 13.2938 97.0874 13.5942C97.1593 13.8947 97.2715 14.1592 97.4238 14.3877C97.5719 14.6162 97.7624 14.7982 97.9951 14.9336C98.2279 15.0648 98.5072 15.1304 98.833 15.1304C99.2266 15.1304 99.5524 15.0415 99.8105 14.8638C100.069 14.686 100.274 14.4469 100.426 14.1465V10.96C100.274 10.6807 100.069 10.4521 99.8105 10.2744C99.5524 10.0924 99.2308 10.0015 98.8457 10.0015C98.5156 10.0015 98.2321 10.0692 97.9951 10.2046C97.7624 10.34 97.5719 10.522 97.4238 10.7505C97.2715 10.9832 97.1593 11.252 97.0874 11.5566C97.0155 11.8571 96.9795 12.1745 96.9795 12.5088V12.6421Z" fill="#CDCDCD"/>
<path opacity="0.5" d="M150.456 13.2197C150.401 13.6471 150.291 14.0407 150.126 14.4004C149.961 14.7559 149.747 15.0605 149.485 15.3145C149.218 15.5726 148.903 15.7736 148.539 15.9175C148.179 16.0571 147.777 16.127 147.333 16.127C146.952 16.127 146.605 16.0741 146.292 15.9683C145.983 15.8582 145.708 15.708 145.467 15.5176C145.221 15.3271 145.01 15.1029 144.832 14.8447C144.659 14.5866 144.515 14.3052 144.4 14.0005C144.282 13.6958 144.193 13.3763 144.134 13.042C144.079 12.7077 144.049 12.3691 144.045 12.0264V10.7378C144.049 10.395 144.079 10.0565 144.134 9.72217C144.193 9.38786 144.282 9.06836 144.4 8.76367C144.515 8.45898 144.659 8.17757 144.832 7.91943C145.01 7.65706 145.221 7.43066 145.467 7.24023C145.708 7.0498 145.983 6.90169 146.292 6.7959C146.601 6.68587 146.948 6.63086 147.333 6.63086C147.794 6.63086 148.207 6.7028 148.571 6.84668C148.935 6.98633 149.248 7.18522 149.51 7.44336C149.773 7.70573 149.982 8.01888 150.139 8.38281C150.299 8.74674 150.405 9.14876 150.456 9.58887H149.282C149.244 9.30957 149.178 9.04932 149.085 8.80811C148.992 8.56689 148.867 8.35531 148.71 8.17334C148.554 7.99137 148.361 7.84961 148.133 7.74805C147.909 7.64225 147.642 7.58936 147.333 7.58936C147.054 7.58936 146.806 7.6359 146.59 7.729C146.379 7.81787 146.197 7.94059 146.044 8.09717C145.888 8.25374 145.757 8.43571 145.651 8.64307C145.549 8.85042 145.467 9.07048 145.403 9.30322C145.34 9.53597 145.293 9.77507 145.264 10.0205C145.238 10.2617 145.226 10.4966 145.226 10.7251V12.0264C145.226 12.2549 145.238 12.4919 145.264 12.7373C145.293 12.9785 145.34 13.2155 145.403 13.4482C145.467 13.6852 145.549 13.9074 145.651 14.1147C145.752 14.3221 145.882 14.5041 146.038 14.6606C146.195 14.8215 146.379 14.9484 146.59 15.0415C146.802 15.1304 147.049 15.1748 147.333 15.1748C147.642 15.1748 147.909 15.1261 148.133 15.0288C148.361 14.9315 148.554 14.7939 148.71 14.6162C148.867 14.4427 148.992 14.2375 149.085 14.0005C149.178 13.7593 149.244 13.499 149.282 13.2197H150.456ZM153.948 12.5024C153.948 12.0073 154.02 11.5482 154.164 11.125C154.307 10.6976 154.515 10.3273 154.786 10.0142C155.052 9.70101 155.378 9.45557 155.763 9.27783C156.148 9.09587 156.582 9.00488 157.064 9.00488C157.551 9.00488 157.987 9.09587 158.372 9.27783C158.761 9.45557 159.091 9.70101 159.362 10.0142C159.629 10.3273 159.834 10.6976 159.978 11.125C160.122 11.5482 160.194 12.0073 160.194 12.5024V12.6421C160.194 13.1372 160.122 13.5964 159.978 14.0195C159.834 14.4427 159.629 14.8109 159.362 15.124C159.091 15.4372 158.764 15.6826 158.378 15.8604C157.993 16.0381 157.56 16.127 157.077 16.127C156.59 16.127 156.153 16.0381 155.763 15.8604C155.378 15.6826 155.052 15.4372 154.786 15.124C154.515 14.8109 154.307 14.4427 154.164 14.0195C154.02 13.5964 153.948 13.1372 153.948 12.6421V12.5024ZM155.122 12.6421C155.122 12.9806 155.162 13.3044 155.243 13.6133C155.323 13.918 155.446 14.1867 155.611 14.4194C155.772 14.6522 155.975 14.8363 156.22 14.9717C156.466 15.1071 156.751 15.1748 157.077 15.1748C157.399 15.1748 157.68 15.1071 157.921 14.9717C158.167 14.8363 158.372 14.6522 158.537 14.4194C158.698 14.1867 158.819 13.918 158.899 13.6133C158.979 13.3044 159.02 12.9806 159.02 12.6421V12.5024C159.02 12.1681 158.977 11.8486 158.893 11.5439C158.812 11.235 158.692 10.9642 158.531 10.7314C158.366 10.4987 158.16 10.3146 157.915 10.1792C157.674 10.0396 157.39 9.96973 157.064 9.96973C156.739 9.96973 156.455 10.0396 156.214 10.1792C155.973 10.3146 155.772 10.4987 155.611 10.7314C155.446 10.9642 155.323 11.235 155.243 11.5439C155.162 11.8486 155.122 12.1681 155.122 12.5024V12.6421ZM164.085 16V9.13184H165.139L165.222 10.1475C165.323 10.0036 165.433 9.8724 165.552 9.75391C165.674 9.63118 165.804 9.52539 165.939 9.43652C166.142 9.30111 166.362 9.19743 166.599 9.12549C166.84 9.04932 167.094 9.00911 167.361 9.00488C167.721 9.00488 168.046 9.05566 168.338 9.15723C168.635 9.25879 168.886 9.41748 169.094 9.6333C169.301 9.84912 169.46 10.1242 169.57 10.4585C169.684 10.7886 169.741 11.1821 169.741 11.6392V16H168.567V11.6646C168.567 11.3599 168.533 11.1017 168.465 10.8901C168.398 10.6785 168.298 10.5072 168.167 10.376C168.032 10.2448 167.867 10.1496 167.672 10.0903C167.481 10.0311 167.261 10.0015 167.012 10.0015C166.796 10.0015 166.595 10.0332 166.409 10.0967C166.222 10.1559 166.051 10.2384 165.895 10.3442C165.768 10.4373 165.649 10.5452 165.539 10.668C165.433 10.7907 165.34 10.9261 165.26 11.0742V16H164.085ZM173.671 12.5088C173.671 11.9967 173.734 11.527 173.861 11.0996C173.993 10.668 174.179 10.2977 174.42 9.98877C174.657 9.67985 174.945 9.43864 175.283 9.26514C175.622 9.09163 176 9.00488 176.419 9.00488C176.83 9.00488 177.188 9.07471 177.492 9.21436C177.801 9.34977 178.068 9.54867 178.292 9.81104V6.25H179.466V16H178.387L178.336 15.2764C178.108 15.5557 177.835 15.7673 177.518 15.9111C177.2 16.055 176.83 16.127 176.407 16.127C175.992 16.127 175.615 16.0381 175.277 15.8604C174.943 15.6826 174.657 15.4372 174.42 15.124C174.183 14.8109 173.999 14.4427 173.868 14.0195C173.736 13.5921 173.671 13.133 173.671 12.6421V12.5088ZM174.845 12.6421C174.845 12.9764 174.881 13.2938 174.953 13.5942C175.025 13.8947 175.137 14.1592 175.29 14.3877C175.438 14.6162 175.628 14.7982 175.861 14.9336C176.094 15.0648 176.373 15.1304 176.699 15.1304C177.092 15.1304 177.418 15.0415 177.676 14.8638C177.934 14.686 178.14 14.4469 178.292 14.1465V10.96C178.14 10.6807 177.934 10.4521 177.676 10.2744C177.418 10.0924 177.097 10.0015 176.711 10.0015C176.381 10.0015 176.098 10.0692 175.861 10.2046C175.628 10.34 175.438 10.522 175.29 10.7505C175.137 10.9832 175.025 11.252 174.953 11.5566C174.881 11.8571 174.845 12.1745 174.845 12.5088V12.6421ZM186.735 16.127C186.252 16.127 185.808 16.0444 185.402 15.8794C185 15.7144 184.655 15.4837 184.367 15.1875C184.079 14.8913 183.855 14.54 183.694 14.1338C183.534 13.7275 183.453 13.2853 183.453 12.8071V12.5405C183.453 11.9862 183.542 11.491 183.72 11.0552C183.897 10.6151 184.134 10.2427 184.431 9.93799C184.723 9.63753 185.055 9.4069 185.427 9.24609C185.804 9.08529 186.189 9.00488 186.583 9.00488C187.078 9.00488 187.509 9.09163 187.877 9.26514C188.25 9.43441 188.559 9.66927 188.804 9.96973C189.05 10.2744 189.232 10.632 189.35 11.0425C189.473 11.453 189.534 11.8973 189.534 12.3755V12.9023H184.627V12.9468C184.657 13.2811 184.723 13.5752 184.824 13.8291C184.93 14.083 185.074 14.3073 185.256 14.502C185.442 14.7093 185.666 14.8722 185.929 14.9907C186.191 15.1092 186.481 15.1685 186.798 15.1685C187.217 15.1685 187.59 15.0838 187.916 14.9146C188.241 14.7453 188.512 14.521 188.728 14.2417L189.445 14.8003C189.217 15.1473 188.874 15.4562 188.417 15.7271C187.964 15.9937 187.403 16.127 186.735 16.127ZM186.583 9.96973C186.346 9.96973 186.121 10.0142 185.91 10.103C185.698 10.1877 185.508 10.3125 185.338 10.4775C185.169 10.6468 185.025 10.8542 184.907 11.0996C184.792 11.3408 184.712 11.6201 184.666 11.9375H188.36V11.8804C188.36 11.6688 188.32 11.4424 188.239 11.2012C188.159 10.9557 188.047 10.7441 187.903 10.5664C187.759 10.3887 187.577 10.2448 187.357 10.1348C187.141 10.0247 186.883 9.96973 186.583 9.96973ZM193.508 16V9.13184H194.562L194.645 10.1475C194.746 10.0036 194.856 9.8724 194.975 9.75391C195.097 9.63118 195.226 9.52539 195.362 9.43652C195.565 9.30111 195.785 9.19743 196.022 9.12549C196.263 9.04932 196.517 9.00911 196.784 9.00488C197.143 9.00488 197.469 9.05566 197.761 9.15723C198.057 9.25879 198.309 9.41748 198.517 9.6333C198.724 9.84912 198.883 10.1242 198.993 10.4585C199.107 10.7886 199.164 11.1821 199.164 11.6392V16H197.99V11.6646C197.99 11.3599 197.956 11.1017 197.888 10.8901C197.82 10.6785 197.721 10.5072 197.59 10.376C197.454 10.2448 197.289 10.1496 197.095 10.0903C196.904 10.0311 196.684 10.0015 196.435 10.0015C196.219 10.0015 196.018 10.0332 195.832 10.0967C195.645 10.1559 195.474 10.2384 195.317 10.3442C195.19 10.4373 195.072 10.5452 194.962 10.668C194.856 10.7907 194.763 10.9261 194.683 11.0742V16H193.508ZM207.88 14.1782C207.88 14.0386 207.852 13.9137 207.797 13.8037C207.742 13.6895 207.649 13.5858 207.518 13.4927C207.387 13.3996 207.213 13.3149 206.998 13.2388C206.782 13.1584 206.513 13.0864 206.191 13.0229C205.798 12.9425 205.438 12.8452 205.112 12.731C204.791 12.6167 204.516 12.4792 204.287 12.3184C204.054 12.1618 203.875 11.9777 203.748 11.7661C203.621 11.5503 203.557 11.3006 203.557 11.0171C203.557 10.7378 203.623 10.4775 203.754 10.2363C203.885 9.99089 204.069 9.77718 204.306 9.59521C204.543 9.41325 204.825 9.26937 205.15 9.16357C205.48 9.05778 205.842 9.00488 206.236 9.00488C206.659 9.00488 207.04 9.0599 207.378 9.16992C207.717 9.27995 208.005 9.43229 208.242 9.62695C208.479 9.82161 208.661 10.0501 208.788 10.3125C208.919 10.5706 208.984 10.8499 208.984 11.1504H207.81C207.81 11.0023 207.772 10.8584 207.696 10.7188C207.62 10.5749 207.514 10.4479 207.378 10.3379C207.243 10.2279 207.078 10.139 206.883 10.0713C206.693 10.0036 206.477 9.96973 206.236 9.96973C205.986 9.96973 205.766 9.99723 205.576 10.0522C205.389 10.1073 205.235 10.1813 205.112 10.2744C204.985 10.3675 204.89 10.4754 204.827 10.5981C204.763 10.7209 204.731 10.8478 204.731 10.979C204.731 11.1144 204.757 11.235 204.808 11.3408C204.858 11.4466 204.947 11.5418 205.074 11.6265C205.197 11.7111 205.362 11.7873 205.569 11.855C205.781 11.9227 206.048 11.9883 206.369 12.0518C206.792 12.1406 207.171 12.2443 207.505 12.3628C207.84 12.4771 208.121 12.6146 208.35 12.7754C208.578 12.9404 208.752 13.1309 208.87 13.3467C208.993 13.5625 209.054 13.8122 209.054 14.0957C209.054 14.4004 208.984 14.6776 208.845 14.9272C208.709 15.1769 208.519 15.3906 208.273 15.5684C208.028 15.7461 207.734 15.8836 207.391 15.981C207.048 16.0783 206.674 16.127 206.268 16.127C205.802 16.127 205.387 16.0656 205.023 15.9429C204.66 15.8159 204.353 15.6488 204.103 15.4414C203.849 15.2383 203.654 15.0013 203.519 14.7305C203.388 14.4596 203.322 14.1782 203.322 13.8862H204.497C204.514 14.1274 204.577 14.3306 204.687 14.4956C204.801 14.6606 204.943 14.7939 205.112 14.8955C205.277 14.9971 205.461 15.069 205.665 15.1113C205.868 15.1536 206.069 15.1748 206.268 15.1748C206.581 15.1748 206.854 15.1388 207.086 15.0669C207.319 14.9907 207.501 14.887 207.632 14.7559C207.713 14.6755 207.774 14.5866 207.816 14.4893C207.859 14.3919 207.88 14.2882 207.88 14.1782ZM216.158 16.127C215.675 16.127 215.231 16.0444 214.825 15.8794C214.423 15.7144 214.078 15.4837 213.79 15.1875C213.502 14.8913 213.278 14.54 213.117 14.1338C212.956 13.7275 212.876 13.2853 212.876 12.8071V12.5405C212.876 11.9862 212.965 11.491 213.143 11.0552C213.32 10.6151 213.557 10.2427 213.854 9.93799C214.146 9.63753 214.478 9.4069 214.85 9.24609C215.227 9.08529 215.612 9.00488 216.005 9.00488C216.5 9.00488 216.932 9.09163 217.3 9.26514C217.673 9.43441 217.982 9.66927 218.227 9.96973C218.472 10.2744 218.654 10.632 218.773 11.0425C218.896 11.453 218.957 11.8973 218.957 12.3755V12.9023H214.05V12.9468C214.08 13.2811 214.146 13.5752 214.247 13.8291C214.353 14.083 214.497 14.3073 214.679 14.502C214.865 14.7093 215.089 14.8722 215.352 14.9907C215.614 15.1092 215.904 15.1685 216.221 15.1685C216.64 15.1685 217.013 15.0838 217.338 14.9146C217.664 14.7453 217.935 14.521 218.151 14.2417L218.868 14.8003C218.64 15.1473 218.297 15.4562 217.84 15.7271C217.387 15.9937 216.826 16.127 216.158 16.127ZM216.005 9.96973C215.768 9.96973 215.544 10.0142 215.333 10.103C215.121 10.1877 214.931 10.3125 214.761 10.4775C214.592 10.6468 214.448 10.8542 214.33 11.0996C214.215 11.3408 214.135 11.6201 214.088 11.9375H217.783V11.8804C217.783 11.6688 217.743 11.4424 217.662 11.2012C217.582 10.9557 217.47 10.7441 217.326 10.5664C217.182 10.3887 217 10.2448 216.78 10.1348C216.564 10.0247 216.306 9.96973 216.005 9.96973ZM222.709 12.5088C222.709 11.9967 222.772 11.527 222.899 11.0996C223.031 10.668 223.217 10.2977 223.458 9.98877C223.695 9.67985 223.983 9.43864 224.321 9.26514C224.66 9.09163 225.039 9.00488 225.458 9.00488C225.868 9.00488 226.226 9.07471 226.53 9.21436C226.839 9.34977 227.106 9.54867 227.33 9.81104V6.25H228.504V16H227.425L227.375 15.2764C227.146 15.5557 226.873 15.7673 226.556 15.9111C226.238 16.055 225.868 16.127 225.445 16.127C225.03 16.127 224.653 16.0381 224.315 15.8604C223.981 15.6826 223.695 15.4372 223.458 15.124C223.221 14.8109 223.037 14.4427 222.906 14.0195C222.775 13.5921 222.709 13.133 222.709 12.6421V12.5088ZM223.883 12.6421C223.883 12.9764 223.919 13.2938 223.991 13.5942C224.063 13.8947 224.175 14.1592 224.328 14.3877C224.476 14.6162 224.666 14.7982 224.899 14.9336C225.132 15.0648 225.411 15.1304 225.737 15.1304C226.13 15.1304 226.456 15.0415 226.714 14.8638C226.972 14.686 227.178 14.4469 227.33 14.1465V10.96C227.178 10.6807 226.972 10.4521 226.714 10.2744C226.456 10.0924 226.135 10.0015 225.75 10.0015C225.419 10.0015 225.136 10.0692 224.899 10.2046C224.666 10.34 224.476 10.522 224.328 10.7505C224.175 10.9832 224.063 11.252 223.991 11.5566C223.919 11.8571 223.883 12.1745 223.883 12.5088V12.6421Z" fill="#8C8A6E"/>
</svg>
