<svg width="246" height="22" viewBox="0 0 246 22" fill="none" xmlns="http://www.w3.org/2000/svg">
<rect x="1" y="1" width="244" height="20" rx="3" fill="#1D1D1D"/>
<rect x="1" y="1" width="244" height="20" rx="3" stroke="#6A6853" stroke-width="2"/>
<path opacity="0.65" d="M22.2109 13.6641C22.2109 13.3805 22.1453 13.1414 22.0142 12.9468C21.8872 12.7521 21.7222 12.5871 21.519 12.4517C21.3159 12.3205 21.0916 12.2104 20.8462 12.1216C20.605 12.0327 20.3722 11.9523 20.1479 11.8804C19.8221 11.7746 19.4899 11.6476 19.1514 11.4995C18.8171 11.3472 18.5124 11.1652 18.2373 10.9536C17.958 10.7378 17.7295 10.4839 17.5518 10.1919C17.3783 9.89567 17.2915 9.54867 17.2915 9.15088C17.2915 8.75309 17.3783 8.39762 17.5518 8.08447C17.7295 7.77132 17.9601 7.50684 18.2437 7.29102C18.5272 7.0752 18.8488 6.91227 19.2085 6.80225C19.5682 6.68799 19.93 6.63086 20.2939 6.63086C20.696 6.63086 21.0832 6.69857 21.4556 6.83398C21.828 6.96517 22.158 7.15137 22.4458 7.39258C22.7336 7.63379 22.9642 7.92578 23.1377 8.26855C23.3112 8.61133 23.4022 8.9943 23.4106 9.41748H22.2046C22.1707 9.15088 22.1051 8.90967 22.0078 8.69385C21.9105 8.4738 21.7814 8.28548 21.6206 8.12891C21.4598 7.97233 21.2673 7.85173 21.043 7.76709C20.8229 7.67822 20.5732 7.63379 20.2939 7.63379C20.0697 7.63379 19.8496 7.66553 19.6338 7.729C19.4222 7.79248 19.2339 7.8877 19.0688 8.01465C18.8996 8.1416 18.7642 8.29818 18.6626 8.48438C18.5653 8.67057 18.5166 8.88639 18.5166 9.13184C18.5208 9.39844 18.5885 9.62484 18.7197 9.81104C18.8509 9.993 19.0181 10.1475 19.2212 10.2744C19.4201 10.4014 19.6359 10.5072 19.8687 10.5918C20.1056 10.6764 20.3278 10.7505 20.5352 10.814C20.8779 10.9198 21.2207 11.0488 21.5635 11.2012C21.9062 11.3493 22.2194 11.5397 22.5029 11.7725C22.7822 11.9883 23.0065 12.2528 23.1758 12.5659C23.3493 12.8791 23.436 13.2409 23.436 13.6514C23.436 14.0661 23.3429 14.4279 23.1567 14.7368C22.9748 15.0457 22.7378 15.3018 22.4458 15.5049C22.1538 15.7122 21.8237 15.8688 21.4556 15.9746C21.0874 16.0762 20.7192 16.127 20.3511 16.127C19.911 16.127 19.4772 16.0529 19.0498 15.9048C18.6266 15.7567 18.2585 15.543 17.9453 15.2637C17.666 15.0225 17.4438 14.741 17.2788 14.4194C17.118 14.0936 17.0312 13.7318 17.0186 13.334H18.2183C18.2563 13.6217 18.3346 13.8778 18.4531 14.1021C18.5716 14.3221 18.724 14.5083 18.9102 14.6606C19.0964 14.8172 19.3101 14.9357 19.5513 15.0161C19.7967 15.0923 20.0633 15.1304 20.3511 15.1304C20.5796 15.1304 20.8039 15.1029 21.0239 15.0479C21.2482 14.9886 21.4471 14.8976 21.6206 14.7749C21.7941 14.6564 21.9359 14.5062 22.0459 14.3242C22.1559 14.138 22.2109 13.918 22.2109 13.6641ZM29.9619 7.46875V9.13184H32.5771V10.0396H29.9619V13.772C29.9619 14.0386 29.9958 14.2586 30.0635 14.4321C30.1312 14.6056 30.2243 14.7432 30.3428 14.8447C30.4613 14.9505 30.5967 15.0246 30.749 15.0669C30.9056 15.1092 31.0706 15.1304 31.2441 15.1304C31.3711 15.1304 31.5023 15.124 31.6377 15.1113C31.7731 15.0944 31.9064 15.0754 32.0376 15.0542C32.1646 15.033 32.283 15.0119 32.3931 14.9907C32.5073 14.9653 32.6004 14.9442 32.6724 14.9272L32.8374 15.7588C32.7401 15.818 32.6216 15.8709 32.4819 15.9175C32.3423 15.9598 32.1899 15.9958 32.0249 16.0254C31.8599 16.0592 31.6842 16.0846 31.498 16.1016C31.3161 16.1185 31.1341 16.127 30.9521 16.127C30.6475 16.127 30.3618 16.0846 30.0952 16C29.8328 15.9111 29.6043 15.7715 29.4097 15.5811C29.215 15.3949 29.0605 15.1536 28.9463 14.8574C28.8363 14.557 28.7812 14.1951 28.7812 13.772V10.0396H26.9785V9.13184H28.7812V7.46875H29.9619ZM41.5024 16C41.4559 15.9111 41.4178 15.8011 41.3882 15.6699C41.3628 15.5345 41.3438 15.3949 41.3311 15.251C41.2126 15.3695 41.0793 15.4816 40.9312 15.5874C40.7873 15.6932 40.6286 15.7863 40.4551 15.8667C40.2773 15.9471 40.089 16.0106 39.8901 16.0571C39.6912 16.1037 39.4797 16.127 39.2554 16.127C38.8914 16.127 38.5614 16.0741 38.2651 15.9683C37.9731 15.8625 37.7256 15.7186 37.5225 15.5366C37.3151 15.3589 37.1543 15.1473 37.04 14.9019C36.93 14.6522 36.875 14.3835 36.875 14.0957C36.875 13.7191 36.9491 13.389 37.0972 13.1055C37.2495 12.8219 37.4632 12.585 37.7383 12.3945C38.0133 12.2083 38.3434 12.0687 38.7285 11.9756C39.1178 11.8825 39.5516 11.8359 40.0298 11.8359H41.312V11.2964C41.312 11.089 41.2739 10.9028 41.1978 10.7378C41.1216 10.5728 41.0137 10.431 40.874 10.3125C40.7344 10.1982 40.563 10.1094 40.3599 10.0459C40.161 9.98242 39.9367 9.95068 39.687 9.95068C39.4543 9.95068 39.2448 9.98031 39.0586 10.0396C38.8766 10.0988 38.7222 10.1771 38.5952 10.2744C38.4683 10.3717 38.3688 10.4881 38.2969 10.6235C38.2292 10.7547 38.1953 10.8923 38.1953 11.0361H37.0146C37.0189 10.7865 37.0824 10.541 37.2051 10.2998C37.332 10.0586 37.514 9.84066 37.751 9.646C37.9837 9.45557 38.2673 9.30111 38.6016 9.18262C38.9401 9.06413 39.3231 9.00488 39.7505 9.00488C40.1398 9.00488 40.5016 9.05355 40.8359 9.15088C41.1702 9.24398 41.4601 9.38574 41.7056 9.57617C41.9468 9.77083 42.1372 10.012 42.2769 10.2998C42.4165 10.5876 42.4863 10.924 42.4863 11.3091V14.502C42.4863 14.7305 42.5075 14.9738 42.5498 15.2319C42.5921 15.4858 42.6514 15.708 42.7275 15.8984V16H41.5024ZM39.4268 15.105C39.6553 15.105 39.869 15.0754 40.0679 15.0161C40.2668 14.9569 40.4487 14.8786 40.6138 14.7812C40.7746 14.6839 40.9142 14.5739 41.0327 14.4512C41.1512 14.3242 41.2443 14.193 41.312 14.0576V12.6675H40.2202C39.814 12.6675 39.4585 12.7035 39.1538 12.7754C38.8534 12.8431 38.6143 12.9489 38.4365 13.0928C38.3096 13.1943 38.2122 13.3149 38.1445 13.4546C38.0811 13.5942 38.0493 13.7529 38.0493 13.9307C38.0493 14.0999 38.0768 14.2565 38.1318 14.4004C38.1911 14.5443 38.2778 14.667 38.3921 14.7686C38.5063 14.8743 38.6502 14.9569 38.8237 15.0161C38.9972 15.0754 39.1982 15.105 39.4268 15.105ZM46.7969 16V9.13184H47.8506L47.9331 10.1475C48.0347 10.0036 48.1447 9.8724 48.2632 9.75391C48.3859 9.63118 48.515 9.52539 48.6504 9.43652C48.8535 9.30111 49.0736 9.19743 49.3105 9.12549C49.5518 9.04932 49.8057 9.00911 50.0723 9.00488C50.432 9.00488 50.7578 9.05566 51.0498 9.15723C51.346 9.25879 51.5978 9.41748 51.8052 9.6333C52.0125 9.84912 52.1712 10.1242 52.2812 10.4585C52.3955 10.7886 52.4526 11.1821 52.4526 11.6392V16H51.2783V11.6646C51.2783 11.3599 51.2445 11.1017 51.1768 10.8901C51.109 10.6785 51.0096 10.5072 50.8784 10.376C50.743 10.2448 50.578 10.1496 50.3833 10.0903C50.1929 10.0311 49.9728 10.0015 49.7231 10.0015C49.5073 10.0015 49.3063 10.0332 49.1201 10.0967C48.9339 10.1559 48.7625 10.2384 48.606 10.3442C48.479 10.4373 48.3605 10.5452 48.2505 10.668C48.1447 10.7907 48.0516 10.9261 47.9712 11.0742V16H46.7969ZM56.3823 12.5088C56.3823 11.9967 56.4458 11.527 56.5728 11.0996C56.7039 10.668 56.8901 10.2977 57.1313 9.98877C57.3683 9.67985 57.6561 9.43864 57.9946 9.26514C58.3332 9.09163 58.7119 9.00488 59.1309 9.00488C59.5413 9.00488 59.8989 9.07471 60.2036 9.21436C60.5125 9.34977 60.7791 9.54867 61.0034 9.81104V6.25H62.1777V16H61.0986L61.0479 15.2764C60.8193 15.5557 60.5464 15.7673 60.229 15.9111C59.9116 16.055 59.5413 16.127 59.1182 16.127C58.7035 16.127 58.3268 16.0381 57.9883 15.8604C57.654 15.6826 57.3683 15.4372 57.1313 15.124C56.8944 14.8109 56.7103 14.4427 56.5791 14.0195C56.4479 13.5921 56.3823 13.133 56.3823 12.6421V12.5088ZM57.5566 12.6421C57.5566 12.9764 57.5926 13.2938 57.6646 13.5942C57.7365 13.8947 57.8486 14.1592 58.001 14.3877C58.1491 14.6162 58.3395 14.7982 58.5723 14.9336C58.805 15.0648 59.0843 15.1304 59.4102 15.1304C59.8037 15.1304 60.1296 15.0415 60.3877 14.8638C60.6458 14.686 60.8511 14.4469 61.0034 14.1465V10.96C60.8511 10.6807 60.6458 10.4521 60.3877 10.2744C60.1296 10.0924 59.8079 10.0015 59.4229 10.0015C59.0928 10.0015 58.8092 10.0692 58.5723 10.2046C58.3395 10.34 58.1491 10.522 58.001 10.7505C57.8486 10.9832 57.7365 11.252 57.6646 11.5566C57.5926 11.8571 57.5566 12.1745 57.5566 12.5088V12.6421ZM70.9253 16C70.8787 15.9111 70.8407 15.8011 70.811 15.6699C70.7856 15.5345 70.7666 15.3949 70.7539 15.251C70.6354 15.3695 70.5021 15.4816 70.354 15.5874C70.2101 15.6932 70.0514 15.7863 69.8779 15.8667C69.7002 15.9471 69.5119 16.0106 69.313 16.0571C69.1141 16.1037 68.9025 16.127 68.6782 16.127C68.3143 16.127 67.9842 16.0741 67.688 15.9683C67.396 15.8625 67.1484 15.7186 66.9453 15.5366C66.738 15.3589 66.5771 15.1473 66.4629 14.9019C66.3529 14.6522 66.2979 14.3835 66.2979 14.0957C66.2979 13.7191 66.3719 13.389 66.52 13.1055C66.6724 12.8219 66.8861 12.585 67.1611 12.3945C67.4362 12.2083 67.7663 12.0687 68.1514 11.9756C68.5407 11.8825 68.9744 11.8359 69.4526 11.8359H70.7349V11.2964C70.7349 11.089 70.6968 10.9028 70.6206 10.7378C70.5444 10.5728 70.4365 10.431 70.2969 10.3125C70.1572 10.1982 69.9858 10.1094 69.7827 10.0459C69.5838 9.98242 69.3595 9.95068 69.1099 9.95068C68.8771 9.95068 68.6676 9.98031 68.4814 10.0396C68.2995 10.0988 68.145 10.1771 68.0181 10.2744C67.8911 10.3717 67.7917 10.4881 67.7197 10.6235C67.652 10.7547 67.6182 10.8923 67.6182 11.0361H66.4375C66.4417 10.7865 66.5052 10.541 66.6279 10.2998C66.7549 10.0586 66.9368 9.84066 67.1738 9.646C67.4066 9.45557 67.6901 9.30111 68.0244 9.18262C68.363 9.06413 68.7459 9.00488 69.1733 9.00488C69.5627 9.00488 69.9245 9.05355 70.2588 9.15088C70.5931 9.24398 70.883 9.38574 71.1284 9.57617C71.3696 9.77083 71.5601 10.012 71.6997 10.2998C71.8394 10.5876 71.9092 10.924 71.9092 11.3091V14.502C71.9092 14.7305 71.9303 14.9738 71.9727 15.2319C72.015 15.4858 72.0742 15.708 72.1504 15.8984V16H70.9253ZM68.8496 15.105C69.0781 15.105 69.2918 15.0754 69.4907 15.0161C69.6896 14.9569 69.8716 14.8786 70.0366 14.7812C70.1974 14.6839 70.3371 14.5739 70.4556 14.4512C70.5741 14.3242 70.6672 14.193 70.7349 14.0576V12.6675H69.6431C69.2368 12.6675 68.8813 12.7035 68.5767 12.7754C68.2762 12.8431 68.0371 12.9489 67.8594 13.0928C67.7324 13.1943 67.6351 13.3149 67.5674 13.4546C67.5039 13.5942 67.4722 13.7529 67.4722 13.9307C67.4722 14.0999 67.4997 14.2565 67.5547 14.4004C67.6139 14.5443 67.7007 14.667 67.8149 14.7686C67.9292 14.8743 68.0731 14.9569 68.2466 15.0161C68.4201 15.0754 68.6211 15.105 68.8496 15.105ZM80.7202 9.00488C80.936 9.00488 81.1603 9.01969 81.3931 9.04932C81.63 9.07894 81.8078 9.11914 81.9263 9.16992L81.7676 10.3188C81.5391 10.2681 81.3211 10.2321 81.1138 10.2109C80.9106 10.1855 80.6969 10.1729 80.4727 10.1729C80.1849 10.1729 79.9246 10.2088 79.6919 10.2808C79.4591 10.3485 79.256 10.45 79.0825 10.5854C78.9259 10.7039 78.7884 10.8499 78.6699 11.0234C78.5557 11.1927 78.4604 11.3831 78.3843 11.5947V16H77.2036V9.13184H78.3208L78.3716 10.0522L78.3779 10.2236C78.6572 9.84701 78.9915 9.55078 79.3809 9.33496C79.7744 9.11491 80.2209 9.00488 80.7202 9.00488ZM85.8052 12.5088C85.8052 11.9967 85.8687 11.527 85.9956 11.0996C86.1268 10.668 86.313 10.2977 86.5542 9.98877C86.7912 9.67985 87.0789 9.43864 87.4175 9.26514C87.756 9.09163 88.1348 9.00488 88.5537 9.00488C88.9642 9.00488 89.3218 9.07471 89.6265 9.21436C89.9354 9.34977 90.202 9.54867 90.4263 9.81104V6.25H91.6006V16H90.5215L90.4707 15.2764C90.2422 15.5557 89.9692 15.7673 89.6519 15.9111C89.3345 16.055 88.9642 16.127 88.541 16.127C88.1263 16.127 87.7497 16.0381 87.4111 15.8604C87.0768 15.6826 86.7912 15.4372 86.5542 15.124C86.3172 14.8109 86.1331 14.4427 86.002 14.0195C85.8708 13.5921 85.8052 13.133 85.8052 12.6421V12.5088ZM86.9795 12.6421C86.9795 12.9764 87.0155 13.2938 87.0874 13.5942C87.1593 13.8947 87.2715 14.1592 87.4238 14.3877C87.5719 14.6162 87.7624 14.7982 87.9951 14.9336C88.2279 15.0648 88.5072 15.1304 88.833 15.1304C89.2266 15.1304 89.5524 15.0415 89.8105 14.8638C90.0687 14.686 90.2739 14.4469 90.4263 14.1465V10.96C90.2739 10.6807 90.0687 10.4521 89.8105 10.2744C89.5524 10.0924 89.2308 10.0015 88.8457 10.0015C88.5156 10.0015 88.2321 10.0692 87.9951 10.2046C87.7624 10.34 87.5719 10.522 87.4238 10.7505C87.2715 10.9832 87.1593 11.252 87.0874 11.5566C87.0155 11.8571 86.9795 12.1745 86.9795 12.5088V12.6421Z" fill="#8C8A6E"/>
<rect x="109.5" y="2.5" width="134" height="17" rx="1.5" fill="#6A6853"/>
<rect x="109.5" y="2.5" width="134" height="17" rx="1.5" stroke="#6A6853"/>
<path d="M140.456 13.2197C140.401 13.6471 140.291 14.0407 140.126 14.4004C139.961 14.7559 139.747 15.0605 139.485 15.3145C139.218 15.5726 138.903 15.7736 138.539 15.9175C138.179 16.0571 137.777 16.127 137.333 16.127C136.952 16.127 136.605 16.0741 136.292 15.9683C135.983 15.8582 135.708 15.708 135.467 15.5176C135.221 15.3271 135.01 15.1029 134.832 14.8447C134.659 14.5866 134.515 14.3052 134.4 14.0005C134.282 13.6958 134.193 13.3763 134.134 13.042C134.079 12.7077 134.049 12.3691 134.045 12.0264V10.7378C134.049 10.395 134.079 10.0565 134.134 9.72217C134.193 9.38786 134.282 9.06836 134.4 8.76367C134.515 8.45898 134.659 8.17757 134.832 7.91943C135.01 7.65706 135.221 7.43066 135.467 7.24023C135.708 7.0498 135.983 6.90169 136.292 6.7959C136.601 6.68587 136.948 6.63086 137.333 6.63086C137.794 6.63086 138.207 6.7028 138.571 6.84668C138.935 6.98633 139.248 7.18522 139.51 7.44336C139.773 7.70573 139.982 8.01888 140.139 8.38281C140.299 8.74674 140.405 9.14876 140.456 9.58887H139.282C139.244 9.30957 139.178 9.04932 139.085 8.80811C138.992 8.56689 138.867 8.35531 138.71 8.17334C138.554 7.99137 138.361 7.84961 138.133 7.74805C137.909 7.64225 137.642 7.58936 137.333 7.58936C137.054 7.58936 136.806 7.6359 136.59 7.729C136.379 7.81787 136.197 7.94059 136.044 8.09717C135.888 8.25374 135.757 8.43571 135.651 8.64307C135.549 8.85042 135.467 9.07048 135.403 9.30322C135.34 9.53597 135.293 9.77507 135.264 10.0205C135.238 10.2617 135.226 10.4966 135.226 10.7251V12.0264C135.226 12.2549 135.238 12.4919 135.264 12.7373C135.293 12.9785 135.34 13.2155 135.403 13.4482C135.467 13.6852 135.549 13.9074 135.651 14.1147C135.752 14.3221 135.882 14.5041 136.038 14.6606C136.195 14.8215 136.379 14.9484 136.59 15.0415C136.802 15.1304 137.049 15.1748 137.333 15.1748C137.642 15.1748 137.909 15.1261 138.133 15.0288C138.361 14.9315 138.554 14.7939 138.71 14.6162C138.867 14.4427 138.992 14.2375 139.085 14.0005C139.178 13.7593 139.244 13.499 139.282 13.2197H140.456ZM143.948 12.5024C143.948 12.0073 144.02 11.5482 144.164 11.125C144.307 10.6976 144.515 10.3273 144.786 10.0142C145.052 9.70101 145.378 9.45557 145.763 9.27783C146.148 9.09587 146.582 9.00488 147.064 9.00488C147.551 9.00488 147.987 9.09587 148.372 9.27783C148.761 9.45557 149.091 9.70101 149.362 10.0142C149.629 10.3273 149.834 10.6976 149.978 11.125C150.122 11.5482 150.194 12.0073 150.194 12.5024V12.6421C150.194 13.1372 150.122 13.5964 149.978 14.0195C149.834 14.4427 149.629 14.8109 149.362 15.124C149.091 15.4372 148.764 15.6826 148.378 15.8604C147.993 16.0381 147.56 16.127 147.077 16.127C146.59 16.127 146.153 16.0381 145.763 15.8604C145.378 15.6826 145.052 15.4372 144.786 15.124C144.515 14.8109 144.307 14.4427 144.164 14.0195C144.02 13.5964 143.948 13.1372 143.948 12.6421V12.5024ZM145.122 12.6421C145.122 12.9806 145.162 13.3044 145.243 13.6133C145.323 13.918 145.446 14.1867 145.611 14.4194C145.772 14.6522 145.975 14.8363 146.22 14.9717C146.466 15.1071 146.751 15.1748 147.077 15.1748C147.399 15.1748 147.68 15.1071 147.921 14.9717C148.167 14.8363 148.372 14.6522 148.537 14.4194C148.698 14.1867 148.819 13.918 148.899 13.6133C148.979 13.3044 149.02 12.9806 149.02 12.6421V12.5024C149.02 12.1681 148.977 11.8486 148.893 11.5439C148.812 11.235 148.692 10.9642 148.531 10.7314C148.366 10.4987 148.16 10.3146 147.915 10.1792C147.674 10.0396 147.39 9.96973 147.064 9.96973C146.739 9.96973 146.455 10.0396 146.214 10.1792C145.973 10.3146 145.772 10.4987 145.611 10.7314C145.446 10.9642 145.323 11.235 145.243 11.5439C145.162 11.8486 145.122 12.1681 145.122 12.5024V12.6421ZM154.085 16V9.13184H155.139L155.222 10.1475C155.323 10.0036 155.433 9.8724 155.552 9.75391C155.674 9.63118 155.804 9.52539 155.939 9.43652C156.142 9.30111 156.362 9.19743 156.599 9.12549C156.84 9.04932 157.094 9.00911 157.361 9.00488C157.721 9.00488 158.046 9.05566 158.338 9.15723C158.635 9.25879 158.886 9.41748 159.094 9.6333C159.301 9.84912 159.46 10.1242 159.57 10.4585C159.684 10.7886 159.741 11.1821 159.741 11.6392V16H158.567V11.6646C158.567 11.3599 158.533 11.1017 158.465 10.8901C158.398 10.6785 158.298 10.5072 158.167 10.376C158.032 10.2448 157.867 10.1496 157.672 10.0903C157.481 10.0311 157.261 10.0015 157.012 10.0015C156.796 10.0015 156.595 10.0332 156.409 10.0967C156.222 10.1559 156.051 10.2384 155.895 10.3442C155.768 10.4373 155.649 10.5452 155.539 10.668C155.433 10.7907 155.34 10.9261 155.26 11.0742V16H154.085ZM163.671 12.5088C163.671 11.9967 163.734 11.527 163.861 11.0996C163.993 10.668 164.179 10.2977 164.42 9.98877C164.657 9.67985 164.945 9.43864 165.283 9.26514C165.622 9.09163 166 9.00488 166.419 9.00488C166.83 9.00488 167.188 9.07471 167.492 9.21436C167.801 9.34977 168.068 9.54867 168.292 9.81104V6.25H169.466V16H168.387L168.336 15.2764C168.108 15.5557 167.835 15.7673 167.518 15.9111C167.2 16.055 166.83 16.127 166.407 16.127C165.992 16.127 165.615 16.0381 165.277 15.8604C164.943 15.6826 164.657 15.4372 164.42 15.124C164.183 14.8109 163.999 14.4427 163.868 14.0195C163.736 13.5921 163.671 13.133 163.671 12.6421V12.5088ZM164.845 12.6421C164.845 12.9764 164.881 13.2938 164.953 13.5942C165.025 13.8947 165.137 14.1592 165.29 14.3877C165.438 14.6162 165.628 14.7982 165.861 14.9336C166.094 15.0648 166.373 15.1304 166.699 15.1304C167.092 15.1304 167.418 15.0415 167.676 14.8638C167.934 14.686 168.14 14.4469 168.292 14.1465V10.96C168.14 10.6807 167.934 10.4521 167.676 10.2744C167.418 10.0924 167.097 10.0015 166.711 10.0015C166.381 10.0015 166.098 10.0692 165.861 10.2046C165.628 10.34 165.438 10.522 165.29 10.7505C165.137 10.9832 165.025 11.252 164.953 11.5566C164.881 11.8571 164.845 12.1745 164.845 12.5088V12.6421ZM176.735 16.127C176.252 16.127 175.808 16.0444 175.402 15.8794C175 15.7144 174.655 15.4837 174.367 15.1875C174.079 14.8913 173.855 14.54 173.694 14.1338C173.534 13.7275 173.453 13.2853 173.453 12.8071V12.5405C173.453 11.9862 173.542 11.491 173.72 11.0552C173.897 10.6151 174.134 10.2427 174.431 9.93799C174.723 9.63753 175.055 9.4069 175.427 9.24609C175.804 9.08529 176.189 9.00488 176.583 9.00488C177.078 9.00488 177.509 9.09163 177.877 9.26514C178.25 9.43441 178.559 9.66927 178.804 9.96973C179.05 10.2744 179.232 10.632 179.35 11.0425C179.473 11.453 179.534 11.8973 179.534 12.3755V12.9023H174.627V12.9468C174.657 13.2811 174.723 13.5752 174.824 13.8291C174.93 14.083 175.074 14.3073 175.256 14.502C175.442 14.7093 175.666 14.8722 175.929 14.9907C176.191 15.1092 176.481 15.1685 176.798 15.1685C177.217 15.1685 177.59 15.0838 177.916 14.9146C178.241 14.7453 178.512 14.521 178.728 14.2417L179.445 14.8003C179.217 15.1473 178.874 15.4562 178.417 15.7271C177.964 15.9937 177.403 16.127 176.735 16.127ZM176.583 9.96973C176.346 9.96973 176.121 10.0142 175.91 10.103C175.698 10.1877 175.508 10.3125 175.338 10.4775C175.169 10.6468 175.025 10.8542 174.907 11.0996C174.792 11.3408 174.712 11.6201 174.666 11.9375H178.36V11.8804C178.36 11.6688 178.32 11.4424 178.239 11.2012C178.159 10.9557 178.047 10.7441 177.903 10.5664C177.759 10.3887 177.577 10.2448 177.357 10.1348C177.141 10.0247 176.883 9.96973 176.583 9.96973ZM183.508 16V9.13184H184.562L184.645 10.1475C184.746 10.0036 184.856 9.8724 184.975 9.75391C185.097 9.63118 185.226 9.52539 185.362 9.43652C185.565 9.30111 185.785 9.19743 186.022 9.12549C186.263 9.04932 186.517 9.00911 186.784 9.00488C187.143 9.00488 187.469 9.05566 187.761 9.15723C188.057 9.25879 188.309 9.41748 188.517 9.6333C188.724 9.84912 188.883 10.1242 188.993 10.4585C189.107 10.7886 189.164 11.1821 189.164 11.6392V16H187.99V11.6646C187.99 11.3599 187.956 11.1017 187.888 10.8901C187.82 10.6785 187.721 10.5072 187.59 10.376C187.454 10.2448 187.289 10.1496 187.095 10.0903C186.904 10.0311 186.684 10.0015 186.435 10.0015C186.219 10.0015 186.018 10.0332 185.832 10.0967C185.645 10.1559 185.474 10.2384 185.317 10.3442C185.19 10.4373 185.072 10.5452 184.962 10.668C184.856 10.7907 184.763 10.9261 184.683 11.0742V16H183.508ZM197.88 14.1782C197.88 14.0386 197.852 13.9137 197.797 13.8037C197.742 13.6895 197.649 13.5858 197.518 13.4927C197.387 13.3996 197.213 13.3149 196.998 13.2388C196.782 13.1584 196.513 13.0864 196.191 13.0229C195.798 12.9425 195.438 12.8452 195.112 12.731C194.791 12.6167 194.516 12.4792 194.287 12.3184C194.054 12.1618 193.875 11.9777 193.748 11.7661C193.621 11.5503 193.557 11.3006 193.557 11.0171C193.557 10.7378 193.623 10.4775 193.754 10.2363C193.885 9.99089 194.069 9.77718 194.306 9.59521C194.543 9.41325 194.825 9.26937 195.15 9.16357C195.48 9.05778 195.842 9.00488 196.236 9.00488C196.659 9.00488 197.04 9.0599 197.378 9.16992C197.717 9.27995 198.005 9.43229 198.242 9.62695C198.479 9.82161 198.661 10.0501 198.788 10.3125C198.919 10.5706 198.984 10.8499 198.984 11.1504H197.81C197.81 11.0023 197.772 10.8584 197.696 10.7188C197.62 10.5749 197.514 10.4479 197.378 10.3379C197.243 10.2279 197.078 10.139 196.883 10.0713C196.693 10.0036 196.477 9.96973 196.236 9.96973C195.986 9.96973 195.766 9.99723 195.576 10.0522C195.389 10.1073 195.235 10.1813 195.112 10.2744C194.985 10.3675 194.89 10.4754 194.827 10.5981C194.763 10.7209 194.731 10.8478 194.731 10.979C194.731 11.1144 194.757 11.235 194.808 11.3408C194.858 11.4466 194.947 11.5418 195.074 11.6265C195.197 11.7111 195.362 11.7873 195.569 11.855C195.781 11.9227 196.048 11.9883 196.369 12.0518C196.792 12.1406 197.171 12.2443 197.505 12.3628C197.84 12.4771 198.121 12.6146 198.35 12.7754C198.578 12.9404 198.752 13.1309 198.87 13.3467C198.993 13.5625 199.054 13.8122 199.054 14.0957C199.054 14.4004 198.984 14.6776 198.845 14.9272C198.709 15.1769 198.519 15.3906 198.273 15.5684C198.028 15.7461 197.734 15.8836 197.391 15.981C197.048 16.0783 196.674 16.127 196.268 16.127C195.802 16.127 195.387 16.0656 195.023 15.9429C194.66 15.8159 194.353 15.6488 194.103 15.4414C193.849 15.2383 193.654 15.0013 193.519 14.7305C193.388 14.4596 193.322 14.1782 193.322 13.8862H194.497C194.514 14.1274 194.577 14.3306 194.687 14.4956C194.801 14.6606 194.943 14.7939 195.112 14.8955C195.277 14.9971 195.461 15.069 195.665 15.1113C195.868 15.1536 196.069 15.1748 196.268 15.1748C196.581 15.1748 196.854 15.1388 197.086 15.0669C197.319 14.9907 197.501 14.887 197.632 14.7559C197.713 14.6755 197.774 14.5866 197.816 14.4893C197.859 14.3919 197.88 14.2882 197.88 14.1782ZM206.158 16.127C205.675 16.127 205.231 16.0444 204.825 15.8794C204.423 15.7144 204.078 15.4837 203.79 15.1875C203.502 14.8913 203.278 14.54 203.117 14.1338C202.956 13.7275 202.876 13.2853 202.876 12.8071V12.5405C202.876 11.9862 202.965 11.491 203.143 11.0552C203.32 10.6151 203.557 10.2427 203.854 9.93799C204.146 9.63753 204.478 9.4069 204.85 9.24609C205.227 9.08529 205.612 9.00488 206.005 9.00488C206.5 9.00488 206.932 9.09163 207.3 9.26514C207.673 9.43441 207.982 9.66927 208.227 9.96973C208.472 10.2744 208.654 10.632 208.773 11.0425C208.896 11.453 208.957 11.8973 208.957 12.3755V12.9023H204.05V12.9468C204.08 13.2811 204.146 13.5752 204.247 13.8291C204.353 14.083 204.497 14.3073 204.679 14.502C204.865 14.7093 205.089 14.8722 205.352 14.9907C205.614 15.1092 205.904 15.1685 206.221 15.1685C206.64 15.1685 207.013 15.0838 207.338 14.9146C207.664 14.7453 207.935 14.521 208.151 14.2417L208.868 14.8003C208.64 15.1473 208.297 15.4562 207.84 15.7271C207.387 15.9937 206.826 16.127 206.158 16.127ZM206.005 9.96973C205.768 9.96973 205.544 10.0142 205.333 10.103C205.121 10.1877 204.931 10.3125 204.761 10.4775C204.592 10.6468 204.448 10.8542 204.33 11.0996C204.215 11.3408 204.135 11.6201 204.088 11.9375H207.783V11.8804C207.783 11.6688 207.743 11.4424 207.662 11.2012C207.582 10.9557 207.47 10.7441 207.326 10.5664C207.182 10.3887 207 10.2448 206.78 10.1348C206.564 10.0247 206.306 9.96973 206.005 9.96973ZM212.709 12.5088C212.709 11.9967 212.772 11.527 212.899 11.0996C213.031 10.668 213.217 10.2977 213.458 9.98877C213.695 9.67985 213.983 9.43864 214.321 9.26514C214.66 9.09163 215.039 9.00488 215.458 9.00488C215.868 9.00488 216.226 9.07471 216.53 9.21436C216.839 9.34977 217.106 9.54867 217.33 9.81104V6.25H218.504V16H217.425L217.375 15.2764C217.146 15.5557 216.873 15.7673 216.556 15.9111C216.238 16.055 215.868 16.127 215.445 16.127C215.03 16.127 214.653 16.0381 214.315 15.8604C213.981 15.6826 213.695 15.4372 213.458 15.124C213.221 14.8109 213.037 14.4427 212.906 14.0195C212.775 13.5921 212.709 13.133 212.709 12.6421V12.5088ZM213.883 12.6421C213.883 12.9764 213.919 13.2938 213.991 13.5942C214.063 13.8947 214.175 14.1592 214.328 14.3877C214.476 14.6162 214.666 14.7982 214.899 14.9336C215.132 15.0648 215.411 15.1304 215.737 15.1304C216.13 15.1304 216.456 15.0415 216.714 14.8638C216.972 14.686 217.178 14.4469 217.33 14.1465V10.96C217.178 10.6807 216.972 10.4521 216.714 10.2744C216.456 10.0924 216.135 10.0015 215.75 10.0015C215.419 10.0015 215.136 10.0692 214.899 10.2046C214.666 10.34 214.476 10.522 214.328 10.7505C214.175 10.9832 214.063 11.252 213.991 11.5566C213.919 11.8571 213.883 12.1745 213.883 12.5088V12.6421Z" fill="#CDCDCD"/>
</svg>
